<?xml version="1.0" encoding="utf-8"?> <svg xmlns="http://www.w3.org/2000/svg" xmlns:xlink="http://www.w3.org/1999/xlink" version="1.1" id="Слой_1" x="0px" y="0px" viewBox="0 0 269 45.4" style="enable-background:new 0 0 269 45.4;" xml:space="preserve"> <style type="text/css"> .st0{opacity:0.4;fill:#054798;} .st1{opacity:0.6;fill:#054798;} .st2{fill:#054798;} </style> <circle class="st0" cx="68.5" cy="22.7" r="22.7"></circle> <circle class="st0" cx="72.5" cy="22.7" r="18.7"></circle> <circle class="st1" cx="77.2" cy="22.7" r="14"></circle> <circle class="st2" cx="81.4" cy="22.7" r="9.9"></circle> <g> <rect y="10.2" class="st2" width="6" height="25"></rect> </g> <g> <rect x="21.5" y="10.2" class="st2" width="6" height="25"></rect> </g> <g> <rect x="13.6" y="10.2" class="st2" width="22" height="6"></rect> </g> <g> <rect x="129.9" y="10.2" class="st2" width="6" height="25"></rect> </g> <g> <rect x="103.9" y="10.2" class="st2" width="6" height="25"></rect> </g> <g> <rect x="255.1" y="10.2" class="st2" width="6" height="25"></rect> </g> <g> <rect x="247.1" y="10.2" class="st2" width="22" height="6"></rect> </g> <g> <path class="st2" d="M115.8,16.2c1.6,0,2.8,1.3,2.8,2.8s-1.3,2.8-2.8,2.8h-6v-5.7H115.8 M115.8,10.2h-12v17.7h12 c4.9,0,8.8-4,8.8-8.8S120.7,10.2,115.8,10.2L115.8,10.2z"></path> </g> <g> <rect x="139.5" y="25" transform="matrix(-1.836970e-16 1 -1 -1.836970e-16 174.7109 -110.3704)" class="st2" width="6.1" height="14.3"></rect> </g> <g> <rect x="187.4" y="10.2" transform="matrix(-1 -1.224647e-16 1.224647e-16 -1 380.8945 45.4468)" class="st2" width="6.1" height="25"></rect> </g> <g> <rect x="227.8" y="1.9" transform="matrix(6.123234e-17 -1 1 6.123234e-17 217.628 243.5004)" class="st2" width="5.4" height="22.1"></rect> </g> <g> <rect x="227.8" y="21.5" transform="matrix(6.123234e-17 -1 1 6.123234e-17 198.0535 263.0749)" class="st2" width="5.4" height="22.1"></rect> </g> <g> <rect x="227.8" y="11.7" transform="matrix(6.123234e-17 -1 1 6.123234e-17 207.8407 253.2876)" class="st2" width="5.4" height="22.1"></rect> </g> <g> <rect x="165.1" y="23" transform="matrix(6.123234e-17 -1 1 6.123234e-17 135.3575 200.3788)" class="st2" width="5.4" height="19"></rect> </g> <g> <rect x="206.3" y="10.2" transform="matrix(-1 -1.224647e-16 1.224647e-16 -1 418.8109 45.4468)" class="st2" width="6.1" height="25"></rect> </g> <g> <polygon class="st2" points="155,35.2 161.1,35.2 171.1,10.2 165,10.2 "></polygon> </g> <g> <polygon class="st2" points="181.5,35.2 175.4,35.2 165.4,10.2 171.5,10.2 "></polygon> </g> <g> <polygon class="st2" points="208,35.2 201.9,35.2 191.9,10.2 198,10.2 "></polygon> </g> <g> <rect x="219.5" y="10.2" class="st2" width="7" height="25"></rect> </g> </svg> 