<?xml version="1.0" encoding="UTF-8"?> <svg xmlns="http://www.w3.org/2000/svg" width="568" height="128" viewBox="0 0 568 128" fill="none"><path d="M1.50035 67.5L33.8004 123.4C35.2004 125.8 37.7004 127.3 40.5004 127.3H105C107.8 127.3 110.3 125.8 111.7 123.4L144 67.5C145.4 65.1 145.4 62.2 144 59.8L111.7 3.89999C110.3 1.49999 107.8 0 105 0H40.4003C37.6003 0 35.1003 1.49999 33.7003 3.89999L1.40034 59.8C0.100344 62.2 0.10035 65.1 1.50035 67.5Z" fill="white"></path><path d="M94.4008 41.2001L50.6008 15.6001L43.5008 27.9001L88.1008 52.8001C89.9008 53.8001 89.2008 56.6001 87.1008 56.6001H22.8008V70.8001H87.1008C89.2008 70.8001 89.9008 73.6001 88.1008 74.6001L43.5008 99.5001L50.6008 111.8L94.4008 86.2001C96.2008 85.1001 98.2008 87.2001 97.2008 89.0001L83.6008 111.8H100.201L127.401 64.8001C127.801 64.2001 127.801 63.4001 127.401 62.8001L100.201 15.8001H83.6008L97.2008 38.6001C98.2008 40.2001 96.2008 42.2001 94.4008 41.2001Z" fill="#1E0040"></path><path d="M179.9 63.6C179.9 73.6 187.7 80.2 197.4 80.2C204.2 80.2 209.9 76.8 212.5 71.1C212.7 70.7 213 70.5 213.4 70.5H221.8C222.5 70.5 222.9 71.1 222.7 71.8C219.3 82.3 209.6 89.2 197.3 89.2C182.2 89.2 169.9 79 169.9 63.6C169.9 48.2 182.2 38 197.3 38C209.5 38 219.2 44.9 222.6 55C222.8 55.6 222.3 56.3 221.7 56.3H213.3C212.9 56.3 212.6 56.1 212.4 55.7C209.8 50.4 204.1 46.9 197.3 46.9C187.8 47 179.9 53.6 179.9 63.6ZM256.1 71.1L273.4 86.6C274.1 87.2 273.6 88.3 272.7 88.3H262.7C262.5 88.3 262.2 88.2 262 88L244.2 71.5C244 71.3 243.8 71.2 243.5 71.2H241.3C240.8 71.2 240.3 71.6 240.3 72.2V87.3C240.3 87.8 239.9 88.3 239.3 88.3H231.4C230.9 88.3 230.4 87.9 230.4 87.3V39.8C230.4 39.3 230.8 38.8 231.4 38.8H256.7C266.6 38.8 273.8 45.4 273.8 55.2C273.8 64.7 266.5 71 258 71H256.1V71.1ZM241.5 62.4H256.5C261.1 62.4 264.1 59.6 264.1 55.1C264.1 50.6 261.1 47.8 256.5 47.8H241.5C241 47.8 240.5 48.2 240.5 48.8V61.4C240.5 62 240.9 62.4 241.5 62.4ZM334.2 63.6C334.2 79 321.8 89.2 306.8 89.2C291.7 89.2 279.4 79 279.4 63.6C279.4 48.2 291.7 38 306.8 38C321.8 38 334.2 48.2 334.2 63.6ZM324.3 63.6C324.3 53.6 316.5 47 306.8 47C297.1 47 289.3 53.6 289.3 63.6C289.3 73.6 297.1 80.2 306.8 80.2C316.5 80.3 324.3 73.7 324.3 63.6ZM340.3 88.4H348.6C349.1 88.4 349.6 88 349.6 87.4V79C349.6 78.5 349.2 78 348.6 78H340.3C339.8 78 339.3 78.4 339.3 79V87.4C339.3 88 339.8 88.4 340.3 88.4ZM349.8 48.4H365.2C365.7 48.4 366.2 48.8 366.2 49.4V87.5C366.2 88 366.6 88.5 367.2 88.5H375.1C375.6 88.5 376.1 88.1 376.1 87.5V49.4C376.1 48.9 376.5 48.4 377.1 48.4H392.5C393 48.4 393.5 48 393.5 47.4V39.9C393.5 39.4 393.1 38.9 392.5 38.9H350C349.5 38.9 349 39.3 349 39.9V47.4C348.8 47.9 349.2 48.4 349.8 48.4ZM400.1 88.4H436.3C436.8 88.4 437.3 88 437.3 87.4V80.8C437.3 80.3 436.9 79.8 436.3 79.8H410C409.5 79.8 409 79.4 409 78.8V68.7C409 68.2 409.4 67.7 410 67.7H434.7C435.2 67.7 435.7 67.3 435.7 66.7V60.2C435.7 59.7 435.3 59.2 434.7 59.2H410C409.5 59.2 409 58.8 409 58.2V48.4C409 47.9 409.4 47.4 410 47.4H436.3C436.8 47.4 437.3 47 437.3 46.4V39.8C437.3 39.3 436.9 38.8 436.3 38.8H400.1C399.6 38.8 399.1 39.2 399.1 39.8V87.3C399.1 88 399.6 88.4 400.1 88.4ZM552.1 39.5L537.5 73.5C537.3 73.9 537 74.1 536.6 74.1H536.3C535.9 74.1 535.6 73.9 535.4 73.5L520.8 39.5C520.6 39.1 520.3 38.9 519.9 38.9H506.5C506 38.9 505.5 39.3 505.5 39.9V87.4C505.5 87.9 505.9 88.4 506.5 88.4H514.4C514.9 88.4 515.4 88 515.4 87.4V54.7C515.4 54.2 515.8 53.7 516.4 53.7H516.5C516.9 53.7 517.2 53.9 517.4 54.3L531.7 87.8C531.9 88.2 532.2 88.4 532.6 88.4H540.4C540.8 88.4 541.1 88.2 541.3 87.8L555.7 54.3C555.9 53.9 556.2 53.7 556.6 53.7C557.1 53.7 557.6 54.1 557.6 54.7V87.4C557.6 87.9 558 88.4 558.6 88.4H566.5C567 88.4 567.5 88 567.5 87.4V39.9C567.5 39.4 567.1 38.9 566.5 38.9H553C552.6 38.9 552.2 39.1 552.1 39.5ZM487.6 39.9C487.6 39.4 488 38.9 488.6 38.9H496.5C497 38.9 497.5 39.3 497.5 39.9V87.4C497.5 87.9 497.1 88.4 496.5 88.4H488.6C488.1 88.4 487.6 88 487.6 87.4V84C487.6 83.1 486.6 82.7 486 83.3C482.3 86.8 477.1 89.3 470.2 89.3C455.1 89.3 442.8 79.1 442.8 63.7C442.8 48.3 455.1 38.1 470.2 38.1C477.3 38.1 482.4 40.3 486 43.6C486.6 44.2 487.6 43.7 487.6 42.9V39.9ZM487.6 63.6C487.6 53.6 479.8 47 470.1 47C460.4 47 452.6 53.6 452.6 63.6C452.6 73.6 460.4 80.2 470.1 80.2C479.8 80.2 487.6 73.7 487.6 63.6Z" fill="#F5FFFF"></path></svg> 