<?xml version="1.0" encoding="UTF-8"?> <!-- Generator: Adobe Illustrator 18.0.0, SVG Export Plug-In . SVG Version: 6.00 Build 0) --> <svg xmlns="http://www.w3.org/2000/svg" xmlns:xlink="http://www.w3.org/1999/xlink" id="Layer_1" x="0px" y="0px" viewBox="0 0 477.8 197.1" style="enable-background:new 0 0 477.8 197.1;" xml:space="preserve"> <style type="text/css"> .st0{fill:#FFFFFF;} </style> <g> <g> <g> <path class="st0" d="M189.7,189.7H7.4V7.4h182.2V189.7z M12.7,184.4h171.7V12.7H12.7V184.4z"></path> </g> <g> <path class="st0" d="M33.1,109h11v19.2h16.4V109h11v47.4h-11v-18.8H44v18.8h-11V109z"></path> <path class="st0" d="M81.1,140.3V109h10.9v30.7c0,5.4,3.3,8.5,8.2,8.5c5,0,8.2-3,8.2-8.5V109h11v31.4c0,11-7.5,17.3-19.2,17.3 S81.1,151.4,81.1,140.3z"></path> <path class="st0" d="M164.7,143.2c0,8.1-5.8,13.1-15.2,13.1h-20.2V109h19.5c9.4,0,15.2,4.7,15.2,12.3c0,6.2-3.6,9.8-9.1,10.8 C160.4,132.7,164.7,136.7,164.7,143.2z M140.2,116.9v11.5h6.1c4.2,0,6.7-2.2,6.7-5.8c0-3.6-2.4-5.8-6.7-5.8H140.2z M153.6,141.8 c0-3.5-2.6-5.8-6.6-5.8h-6.8V148h6.8C151.1,148,153.6,145.7,153.6,141.8z"></path> </g> <g> <path class="st0" d="M33.1,79.7h6.3v21.2h-6.3V79.7z"></path> <path class="st0" d="M45.8,79.7h8l4.5,13.8l4.5-13.8h7.8v21.2h-6V87.5l-3.9,13.4H56l-4.1-13.5v13.5h-6V79.7z"></path> <path class="st0" d="M95,87.6c0,4.5-3.3,7.9-7.9,7.9h-3.9v5.4h-6.3V79.7h10.2C91.7,79.7,95,83.1,95,87.6z M88.6,87.6 c0-1.7-1.2-3-2.8-3h-2.6v6h2.6C87.4,90.6,88.6,89.3,88.6,87.6z"></path> <g> <path class="st0" d="M110.4,98.4h-6.8l-0.7,2.4h-6.5l7.2-21.2h6.8l7.2,21.2h-6.5L110.4,98.4z M109.2,93.9l-2.2-8.2l-2.2,8.2 H109.2z"></path> <path class="st0" d="M120.2,90.3c0-6.6,4.8-11.2,11.7-11.2c6.6,0,10.9,3.2,11.4,8.8h-6.6c-0.4-1.9-2.1-3.2-4.7-3.2 c-3.3,0-5.2,2.2-5.2,5.7s1.9,5.7,5.2,5.7c2.6,0,4.3-1.3,4.7-3.2h6.6c-0.5,5.6-4.8,8.8-11.4,8.8 C124.9,101.5,120.2,96.9,120.2,90.3z"></path> <path class="st0" d="M152.3,85.1h-5.4v-5.4H164v5.4h-5.4v15.7h-6.3V85.1z"></path> </g> </g> </g> <g> <path class="st0" d="M210,109h12.7l12.6,33.7l12.6-33.7h12.5v47.4h-10.5v-30.7l-10.5,30.7h-8.1l-10.8-30.9v30.9H210V109z"></path> <path class="st0" d="M266.7,140.1c0-10,6.9-17.3,18.1-17.3c11.2,0,18.1,7.3,18.1,17.3c0,10-6.9,17.3-18.1,17.3 C273.6,157.4,266.7,150,266.7,140.1z M292.6,140.1c0-4.9-2.9-8.5-7.8-8.5c-4.9,0-7.8,3.6-7.8,8.5s2.8,8.5,7.8,8.5 C289.7,148.6,292.6,145,292.6,140.1z"></path> <path class="st0" d="M306.1,146.6h10.3c0,2.2,2.2,3.9,5.3,3.9c2.2,0,3.8-1.2,3.8-3c0-1.3-0.6-2.4-2.4-2.8l-8-2 c-5.4-1.4-8.2-4.7-8.2-9.4c0-6.1,5.3-10.4,14-10.4c9.5,0,14.6,4,14.6,10.2h-10.2c0-2.3-1.7-3.6-4.5-3.6c-2.2,0-3.7,1.1-3.7,2.7 c0,1.5,1,2.4,2.8,2.9l7.7,2.1c5,1.4,8.3,4.4,8.3,9.1c0,6.7-5.4,11.2-14.3,11.2C312,157.4,306.1,152.7,306.1,146.6z"></path> <path class="st0" d="M339.6,140.1c0-10.3,6.7-17.3,17.5-17.3c9.8,0,16.1,5.2,16.9,13.3h-10.4c-0.7-3-2.7-4.6-6.5-4.6 c-4.5,0-7.2,3.1-7.2,8.5c0,5.4,2.7,8.5,7.2,8.5c3.8,0,5.8-1.5,6.5-4.3H374c-0.8,7.9-7.2,13.1-16.9,13.1 C346.3,157.4,339.6,150.3,339.6,140.1z"></path> <path class="st0" d="M377.3,140.1c0-10,6.9-17.3,18.1-17.3c11.2,0,18.1,7.3,18.1,17.3c0,10-6.9,17.3-18.1,17.3 C384.2,157.4,377.3,150,377.3,140.1z M403.3,140.1c0-4.9-2.9-8.5-7.8-8.5c-4.9,0-7.8,3.6-7.8,8.5s2.8,8.5,7.8,8.5 C400.3,148.6,403.3,145,403.3,140.1z"></path> <path class="st0" d="M414.1,123.7h10.8l5.9,19.8l5.6-19.8h10.1l5.6,19.8l5.9-19.8h10.8L457,156.4h-9.3l-6.3-19.8l-6.2,19.8h-9.3 L414.1,123.7z"></path> </g> </g> </svg> 