<?xml version="1.0" encoding="UTF-8"?> <svg xmlns="http://www.w3.org/2000/svg" version="1.1" viewBox="0 0 600 300"><defs><style> .cls-1 { fill: #fff; } </style></defs><g><g id="Layer_1"><g><polygon class="cls-1" points="394.21 181.33 394.21 166.14 438.33 166.14 447.77 167.79 447.77 144.69 438.33 146.31 394.21 146.31 394.21 131.12 443.27 131.12 453.44 132.82 453.44 111.16 371.96 111.16 374.25 120.94 374.25 191.54 371.96 201.29 454.08 201.29 454.08 178.96 443.27 181.33 394.21 181.33"></polygon><polygon class="cls-1" points="355.64 111.16 320.97 111.16 296.25 181.59 271.65 111.16 237.17 111.16 239.2 120.94 239.2 191.54 237.17 201.29 261.28 201.29 259.16 191.54 259.16 132.92 282.6 201.29 310.02 201.29 333.46 132.92 333.46 191.54 331.18 201.29 355.64 201.29 353.42 191.54 353.42 120.94 355.64 111.16"></polygon><polygon class="cls-1" points="48.64 133.17 58.43 130.41 78.09 130.41 78.09 191.55 75.92 201.31 101.4 201.31 99.42 191.55 99.42 130.41 119.24 130.41 128.99 133.17 128.99 111.17 48.64 111.17 48.64 133.17"></polygon><path class="cls-1" d="M532.82,182.01c-1.97-1.76-4.16-5.13-4.79-11.92h.75l3.83-1.66,4.25-1.95c10.43-5.15,15.71-15.07,15.71-26.01,0-15.71-11.07-29.36-32.71-29.36h-51.2l2.14,9.78v70.6l-2.14,9.75h24.12l-2.02-9.75v-21.41h18.34c.71,11.16,4.4,19.95,11.11,25.97,7.31,6.56,16.61,8.4,24.75,8.4l6.64-.34v-19.56l-6.64,1.02c-5.65,0-9.63-1.31-12.15-3.57ZM490.76,131.07h30.13c7.73,0,11.72,3.99,11.72,9.66s-3.99,9.4-11.72,9.4h-30.13v-19.06Z"></path><path class="cls-1" d="M178.74,108.77c-26.61,0-47.61,19.07-47.61,47.35,0,14.13,5.08,25.97,13.58,34.28,8.5,8.31,20.41,13.07,34.02,13.07,26.61,0,47.61-19.07,47.61-47.35s-21-47.35-47.61-47.35ZM178.74,183.09c-7.86,0-14.66-2.73-19.5-7.46-4.84-4.73-7.73-11.47-7.73-19.51,0-15.44,11.53-26.98,27.23-26.98,7.86,0,14.66,2.73,19.5,7.46,4.84,4.73,7.73,11.47,7.73,19.51,0,15.44-11.53,26.98-27.23,26.98Z"></path></g><g><path class="cls-1" d="M51.05,74.5v16.88h7.15v-16.88h2.37v16.88h7.15v-16.88h2.37v19.07h-21.44v-19.07h2.41Z"></path><path class="cls-1" d="M81.77,84.09c0-5.8,4.18-10.01,9.87-10.01s9.91,4.21,9.91,10.01-4.21,9.98-9.91,9.98-9.87-4.18-9.87-9.98ZM99.07,84.09c0-4.53-3.18-7.79-7.43-7.79s-7.43,3.26-7.43,7.79,3.18,7.75,7.43,7.75,7.43-3.26,7.43-7.75Z"></path><path class="cls-1" d="M113.16,74.5h2.37v9.48l10.93-9.48h3.11l-7.71,6.76,8.88,12.32h-2.87l-7.71-10.69-4.64,3.89v6.79h-2.37v-19.07Z"></path><path class="cls-1" d="M138.92,84.09c0-5.8,4.18-10.01,9.87-10.01s9.91,4.21,9.91,10.01-4.21,9.98-9.91,9.98-9.87-4.18-9.87-9.98ZM156.22,84.09c0-4.53-3.18-7.79-7.43-7.79s-7.43,3.26-7.43,7.79,3.18,7.75,7.43,7.75,7.43-3.26,7.43-7.75Z"></path><path class="cls-1" d="M176.25,74.5h1.98l8.95,19.07h-2.58l-7.4-15.75-7.22,15.75h-2.55l8.81-19.07Z"></path><path class="cls-1" d="M204.88,74.5h1.98l9.45,19.07h-2.58l-2.58-5.13h-10.55l-2.51,5.13h-2.55l9.34-19.07ZM210.08,86.21l-4.21-8.46-4.18,8.46h8.39Z"></path><path class="cls-1" d="M227.03,93.57v4.25h-2.12v-6.44h2.44l7.25-16.88h1.98l7.57,16.88h2.51v6.44h-2.12v-4.25h-17.52ZM241.61,91.38l-6.05-13.63-5.66,13.63h11.71Z"></path><path class="cls-1" d="M256.37,74.5h2.41v7.54h11.25v-7.54h2.37v19.07h-2.37v-9.34h-11.25v9.34h-2.41v-19.07Z"></path><path class="cls-1" d="M292.08,74.5h1.98l9.45,19.07h-2.58l-2.58-5.13h-10.55l-2.51,5.13h-2.55l9.34-19.07ZM297.28,86.21l-4.21-8.46-4.18,8.46h8.39Z"></path><path class="cls-1" d="M326.79,93.57v-8.17h-6.44l-5.56,8.17h-2.62l5.59-8.35c-1.13-.11-2.76-.42-3.86-1.52-.88-.88-1.45-2.23-1.45-3.75,0-1.66.64-3.08,1.52-3.93.81-.81,2.23-1.52,4.64-1.52h10.55v19.07h-2.37ZM326.79,76.7h-8.28c-.46,0-1.66.04-2.48.64-.67.53-1.1,1.41-1.1,2.65s.46,1.95.99,2.37,1.31.81,2.69.81h8.18v-6.48Z"></path><path class="cls-1" d="M366.25,88.87c-2.69,0-4.28-.81-5.17-1.63-.81-.74-1.8-2.19-1.8-4.85,0-2.44.92-3.89,1.73-4.64.95-.88,2.51-1.7,5.2-1.7h2.58v-2.48h2.37v2.48h2.58c2.69,0,4.25.81,5.2,1.7.81.81,1.73,2.19,1.73,4.64,0,2.26-.67,3.82-1.8,4.85-.88.81-2.48,1.63-5.17,1.63h-2.55v4.71h-2.37v-4.71h-2.55ZM366.32,78.29c-1.52,0-2.87.42-3.61,1.17-.81.81-1.1,1.98-1.1,3.08,0,1.38.5,2.44,1.24,3.11,1.1.96,2.65.99,3.5.99h2.44v-8.35h-2.48ZM371.17,86.64h2.44c.78,0,2.44-.04,3.5-.99.74-.67,1.24-1.8,1.24-3.11,0-1.1-.28-2.34-1.1-3.08-.74-.74-2.09-1.17-3.61-1.17h-2.48v8.35Z"></path><path class="cls-1" d="M397.43,74.5h1.98l9.45,19.07h-2.58l-2.58-5.13h-10.55l-2.51,5.13h-2.55l9.34-19.07ZM402.63,86.21l-4.21-8.46-4.18,8.46h8.39Z"></path><path class="cls-1" d="M419.19,74.5h15.68v2.19h-13.31v5.34h8.1c2.3,0,4.35.35,5.73,1.87.57.67,1.31,1.84,1.31,3.82,0,2.16-.88,3.47-1.63,4.18-1.49,1.49-3.61,1.66-4.81,1.66h-11.08v-19.07ZM430.59,91.38c1.24,0,2.12-.39,2.65-.85s.99-1.27.99-2.72-.5-2.16-.96-2.62c-.95-.88-2.44-.95-3.08-.95h-8.63v7.15h9.02Z"></path><path class="cls-1" d="M448.81,74.5h10.94c3.79,0,5.98,1.95,5.98,5.17s-2.12,5.56-5.66,5.56h-8.88v8.35h-2.37v-19.07ZM459.61,82.99c2.44,0,3.64-1.03,3.64-3.11s-1.24-3.18-3.54-3.18h-8.53v6.3h8.42Z"></path><path class="cls-1" d="M490.78,93.57v-14.79l-12.14,14.79h-1.56v-19.07h2.37v14.79l12.1-14.79h1.59v19.07h-2.37Z"></path><path class="cls-1" d="M506.28,74.5h2.37v9.48l10.93-9.48h3.11l-7.71,6.76,8.88,12.32h-2.87l-7.71-10.69-4.64,3.89v6.79h-2.37v-19.07Z"></path><path class="cls-1" d="M541.14,74.5h1.98l9.45,19.07h-2.58l-2.58-5.13h-10.55l-2.51,5.13h-2.55l9.34-19.07ZM546.34,86.21l-4.21-8.46-4.18,8.46h8.39Z"></path></g></g></g></svg> 