<?xml version="1.0" encoding="UTF-8"?> <svg xmlns="http://www.w3.org/2000/svg" viewBox="5684.263671875 5410.2978515625 507.30322265625 267.28125" data-guides="{&quot;vertical&quot;:[],&quot;horizontal&quot;:[]}"><path fill="#ffffff" stroke="none" fill-opacity="1" stroke-width="1" stroke-opacity="1" font-size-adjust="none" id="tSvg9c415881b3" title="Path 1" d="M 5899.158122070313 5411.791341380208 C 5900.248122070313 5411.781341380208 5900.248122070313 5411.781341380208 5901.358122070313 5411.761341380208C 5903.758122070313 5411.731341380208 5906.158122070313 5411.711341380208 5908.568122070313 5411.691341380208C 5909.388122070312 5411.681341380208 5910.208122070313 5411.681341380208 5911.0581220703125 5411.671341380208C 5915.418122070313 5411.641341380208 5919.788122070313 5411.611341380208 5924.148122070313 5411.591341380208C 5927.748122070313 5411.581341380208 5931.338122070313 5411.541341380208 5934.938122070313 5411.491341380208C 5939.298122070313 5411.431341380208 5943.648122070313 5411.401341380208 5947.998122070313 5411.391341380208C 5949.658122070313 5411.381341380208 5951.3081220703125 5411.361341380208 5952.958122070313 5411.331341380208C 5962.468122070313 5411.171341380208 5970.498122070313 5411.321341380208 5977.998122070313 5418.001341380208C 5980.228122070313 5420.601341380208 5981.938122070313 5423.271341380208 5983.628122070313 5426.251341380208C 5984.628122070313 5427.941341380208 5985.638122070312 5429.621341380208 5986.648122070313 5431.311341380208C 5987.178122070313 5432.221341380208 5987.708122070313 5433.121341380208 5988.258122070313 5434.061341380208C 5990.818122070313 5438.391341380208 5993.488122070313 5442.651341380208 5996.138122070312 5446.911341380208C 5998.868122070313 5451.311341380208 6001.5581220703125 5455.731341380208 6004.248122070313 5460.151341380208C 6005.728122070313 5462.561341380208 6007.248122070313 5464.941341380208 6008.798122070313 5467.311341380208C 6013.578122070313 5474.781341380208 6015.818122070313 5481.091341380208 6013.998122070313 5490.001341380208C 6012.488122070313 5494.331341380208 6010.388122070312 5498.091341380208 6007.998122070313 5502.001341380208C 6007.318122070313 5503.121341380208 6006.638122070312 5504.241341380208 6005.938122070313 5505.391341380208C 6004.328122070313 5508.001341380208 6002.698122070313 5510.581341380208 6001.0581220703125 5513.161341380208C 5998.668122070313 5516.921341380208 5996.328122070313 5520.721341380208 5994.008122070313 5524.521341380208C 5993.658122070313 5525.101341380208 5993.3081220703125 5525.671341380208 5992.948122070313 5526.261341380208C 5991.198122070313 5529.121341380208 5989.448122070313 5531.991341380208 5987.708122070313 5534.861341380208C 5985.838122070313 5537.931341380208 5983.928122070313 5540.971341380208 5981.998122070313 5544.001341380208C 5981.488122070313 5544.801341380208 5980.988122070313 5545.591341380208 5980.458122070313 5546.421341380208C 5979.748122070313 5547.461341380208 5979.748122070313 5547.461341380208 5979.0181220703125 5548.531341380208C 5978.618122070313 5549.111341380208 5978.228122070313 5549.701341380208 5977.818122070313 5550.301341380208C 5970.078122070313 5557.531341380208 5960.7681220703125 5556.591341380208 5950.878122070313 5556.531341380208C 5949.198122070313 5556.531341380208 5947.528122070313 5556.541341380208 5945.858122070313 5556.541341380208C 5942.358122070313 5556.551341380208 5938.858122070313 5556.541341380208 5935.368122070313 5556.521341380208C 5930.898122070313 5556.501341380208 5926.438122070313 5556.511341380208 5921.968122070313 5556.531341380208C 5918.5181220703125 5556.551341380208 5915.068122070313 5556.541341380208 5911.608122070313 5556.531341380208C 5909.968122070313 5556.531341380208 5908.318122070313 5556.531341380208 5906.678122070313 5556.541341380208C 5888.8481220703125 5556.621341380208 5888.8481220703125 5556.621341380208 5881.898122070313 5550.001341380208C 5881.398122070313 5549.301341380208 5880.898122070313 5548.601341380208 5880.378122070313 5547.881341380208C 5879.8081220703125 5547.091341380208 5879.238122070313 5546.301341380208 5878.648122070313 5545.491341380208C 5875.918122070313 5541.371341380208 5873.398122070313 5537.161341380208 5870.938122070313 5532.871341380208C 5869.818122070313 5530.941341380208 5868.688122070313 5529.011341380208 5867.5581220703125 5527.081341380208C 5866.988122070313 5526.081341380208 5866.408122070313 5525.091341380208 5865.8081220703125 5524.071341380208C 5862.178122070313 5517.911341380208 5858.428122070313 5511.841341380208 5854.668122070313 5505.761341380208C 5843.988122070313 5488.361341380208 5843.988122070313 5488.361341380208 5845.998122070313 5477.001341380208C 5847.708122070313 5472.791341380208 5850.038122070313 5469.101341380208 5852.508122070313 5465.311341380208C 5854.278122070313 5462.571341380208 5855.978122070313 5459.791341380208 5857.668122070313 5457.001341380208C 5861.088122070313 5451.381341380208 5864.548122070313 5445.791341380208 5868.0181220703125 5440.201341380208C 5869.8481220703125 5437.241341380208 5871.658122070313 5434.261341380208 5873.458122070313 5431.271341380208C 5874.488122070313 5429.581341380208 5875.528122070313 5427.881341380208 5876.5581220703125 5426.191341380208C 5877.0181220703125 5425.421341380208 5877.468122070313 5424.661341380208 5877.928122070313 5423.871341380208C 5883.158122070313 5415.401341380208 5889.108122070313 5411.911341380208 5899.158122070313 5411.791341380208ZM 5940.488122070313 5418.021341380208 C 5938.218122070313 5421.031341380208 5938.008122070313 5424.301341380208 5937.5581220703125 5427.941341380208C 5936.108122070313 5437.691341380208 5932.7681220703125 5445.691341380208 5928.128122070313 5454.371341380208C 5926.628122070313 5457.331341380208 5925.998122070313 5458.711341380208 5925.998122070313 5462.061341380208C 5926.328122070313 5463.031341380208 5926.658122070313 5464.001341380208 5926.998122070313 5465.001341380208C 5927.248122070313 5465.781341380208 5927.498122070313 5466.561341380208 5927.758122070313 5467.361341380208C 5928.468122070313 5469.591341380208 5929.218122070313 5471.791341380208 5929.998122070313 5474.001341380208C 5931.158122070313 5471.811341380208 5932.118122070313 5469.671341380208 5932.968122070313 5467.331341380208C 5936.678122070313 5457.261341380208 5942.698122070313 5450.891341380208 5950.608122070313 5443.891341380208C 5957.758122070313 5437.561341380208 5962.758122070313 5431.071341380208 5965.998122070313 5422.001341380208C 5965.948122070313 5419.771341380208 5965.948122070313 5419.771341380208 5964.998122070313 5418.001341380208C 5960.838122070313 5416.611341380208 5956.918122070313 5416.771341380208 5952.5581220703125 5416.751341380208C 5951.698122070313 5416.731341380208 5950.8481220703125 5416.711341380208 5949.958122070313 5416.691341380208C 5946.488122070313 5416.661341380208 5943.718122070313 5416.701341380208 5940.488122070313 5418.021341380208ZM 5897.998122070313 5418.001341380208 C 5899.5981220703125 5432.361341380208 5905.208122070313 5441.201341380208 5916.108122070313 5450.591341380208C 5917.998122070313 5451.991341380208 5919.858122070313 5453.021341380208 5921.998122070313 5454.001341380208C 5929.968122070313 5442.241341380208 5931.898122070313 5432.261341380208 5932.998122070313 5418.001341380208C 5921.448122070313 5418.001341380208 5909.898122070313 5418.001341380208 5897.998122070313 5418.001341380208ZM 5889.998122070313 5420.001341380208 C 5885.278122070313 5423.251341380208 5882.868122070313 5426.921341380208 5880.128122070313 5431.811341380208C 5879.708122070313 5432.501341380208 5879.298122070313 5433.181341380208 5878.868122070313 5433.891341380208C 5876.868122070313 5437.411341380208 5876.008122070313 5439.541341380208 5875.948122070313 5443.651341380208C 5877.208122070313 5447.651341380208 5878.798122070313 5449.661341380208 5881.688122070313 5452.691341380208C 5882.168122070313 5453.191341380208 5882.648122070313 5453.701341380208 5883.138122070312 5454.221341380208C 5889.488122070313 5460.741341380208 5896.488122070313 5466.621341380208 5903.608122070313 5472.271341380208C 5912.928122070313 5479.761341380208 5919.3081220703125 5490.301341380208 5920.878122070313 5502.191341380208C 5921.538122070313 5514.411341380208 5918.438122070313 5525.881341380208 5915.028122070313 5537.501341380208C 5914.7681220703125 5538.401341380208 5914.508122070313 5539.301341380208 5914.238122070313 5540.231341380208C 5914.008122070313 5541.031341380208 5913.7681220703125 5541.831341380208 5913.5181220703125 5542.651341380208C 5912.958122070313 5545.171341380208 5912.908122070313 5547.431341380208 5912.998122070313 5550.001341380208C 5914.958122070313 5550.051341380208 5916.918122070313 5550.091341380208 5918.878122070313 5550.121341380208C 5919.968122070313 5550.151341380208 5921.0581220703125 5550.171341380208 5922.178122070313 5550.191341380208C 5925.138122070312 5550.301341380208 5925.138122070312 5550.301341380208 5926.998122070313 5548.001341380208C 5927.3081220703125 5545.691341380208 5927.3081220703125 5545.691341380208 5927.258122070313 5542.991341380208C 5927.2681220703125 5541.951341380208 5927.2681220703125 5540.901341380208 5927.278122070313 5539.821341380208C 5927.278122070313 5538.681341380208 5927.2681220703125 5537.541341380208 5927.2681220703125 5536.371341380208C 5927.2681220703125 5535.191341380208 5927.2681220703125 5534.011341380208 5927.2681220703125 5532.801341380208C 5927.2681220703125 5530.301341380208 5927.2681220703125 5527.791341380208 5927.258122070313 5525.281341380208C 5927.248122070313 5521.501341380208 5927.258122070313 5517.731341380208 5927.2681220703125 5513.951341380208C 5927.988122070313 5482.741341380208 5927.988122070313 5482.741341380208 5913.998122070313 5456.001341380208C 5912.2681220703125 5454.281341380208 5910.5181220703125 5452.591341380208 5908.758122070313 5450.891341380208C 5899.968122070313 5442.371341380208 5895.438122070313 5435.221341380208 5892.678122070313 5423.151341380208C 5892.448122070313 5422.441341380208 5892.228122070313 5421.731341380208 5891.998122070313 5421.001341380208C 5891.338122070313 5420.671341380208 5890.678122070313 5420.341341380208 5889.998122070313 5420.001341380208ZM 5971.998122070313 5422.001341380208 C 5971.5181220703125 5423.051341380208 5971.028122070313 5424.101341380208 5970.528122070313 5425.181341380208C 5965.248122070313 5436.361341380208 5959.328122070313 5444.271341380208 5949.878122070313 5452.321341380208C 5935.838122070313 5464.821341380208 5934.128122070313 5482.221341380208 5932.998122070313 5500.001341380208C 5932.718122070313 5507.301341380208 5932.708122070313 5514.601341380208 5932.738122070313 5521.911341380208C 5932.748122070313 5525.181341380208 5932.738122070313 5528.461341380208 5932.728122070313 5531.741341380208C 5932.728122070313 5533.831341380208 5932.728122070313 5535.921341380208 5932.738122070313 5538.011341380208C 5932.728122070313 5538.981341380208 5932.728122070313 5539.961341380208 5932.718122070313 5540.971341380208C 5932.728122070313 5541.861341380208 5932.738122070313 5542.761341380208 5932.738122070313 5543.681341380208C 5932.738122070313 5544.471341380208 5932.748122070313 5545.261341380208 5932.748122070313 5546.071341380208C 5932.828122070313 5548.241341380208 5932.828122070313 5548.241341380208 5934.998122070313 5550.001341380208C 5937.898122070313 5550.241341380208 5937.898122070313 5550.241341380208 5941.128122070313 5550.121341380208C 5942.218122070313 5550.111341380208 5943.318122070313 5550.091341380208 5944.448122070313 5550.071341380208C 5945.288122070313 5550.051341380208 5946.128122070313 5550.021341380208 5946.998122070313 5550.001341380208C 5946.088122070313 5545.071341380208 5945.108122070313 5540.201341380208 5943.708122070313 5535.391341380208C 5938.978122070313 5518.961341380208 5937.108122070313 5502.131341380208 5943.998122070313 5486.001341380208C 5944.528122070313 5484.701341380208 5944.528122070313 5484.701341380208 5945.0581220703125 5483.381341380208C 5952.258122070313 5467.361341380208 5966.478122070313 5456.471341380208 5981.668122070313 5448.531341380208C 5984.2681220703125 5446.821341380208 5984.998122070313 5445.911341380208 5985.998122070313 5443.001341380208C 5985.428122070313 5440.971341380208 5985.428122070313 5440.971341380208 5984.148122070313 5439.031341380208C 5983.708122070313 5438.291341380208 5983.2681220703125 5437.561341380208 5982.818122070313 5436.801341380208C 5982.338122070313 5436.041341380208 5981.868122070313 5435.281341380208 5981.378122070313 5434.501341380208C 5980.918122070313 5433.741341380208 5980.468122070313 5432.981341380208 5980.008122070313 5432.201341380208C 5977.668122070313 5428.361341380208 5975.398122070313 5425.001341380208 5971.998122070313 5422.001341380208ZM 5868.998122070313 5450.001341380208 C 5868.0581220703125 5451.681341380208 5868.0581220703125 5451.681341380208 5867.0981220703125 5453.391341380208C 5866.278122070313 5454.871341380208 5865.448122070313 5456.341341380208 5864.628122070313 5457.811341380208C 5864.208122070313 5458.551341380208 5863.798122070313 5459.291341380208 5863.378122070313 5460.051341380208C 5862.978122070313 5460.761341380208 5862.578122070313 5461.471341380208 5862.168122070313 5462.211341380208C 5861.798122070313 5462.861341380208 5861.428122070313 5463.511341380208 5861.048122070313 5464.191341380208C 5860.0981220703125 5465.831341380208 5859.048122070313 5467.421341380208 5857.998122070313 5469.001341380208C 5857.458122070313 5472.001341380208 5857.428122070313 5474.021341380208 5858.988122070313 5476.701341380208C 5866.368122070313 5485.971341380208 5877.298122070313 5491.321341380208 5888.2681220703125 5495.141341380208C 5898.088122070313 5498.571341380208 5905.118122070313 5502.761341380208 5909.938122070313 5512.251341380208C 5910.638122070312 5513.831341380208 5911.328122070313 5515.411341380208 5911.998122070313 5517.001341380208C 5912.658122070313 5518.341341380208 5913.318122070313 5519.671341380208 5913.998122070313 5521.001341380208C 5916.178122070313 5509.331341380208 5916.248122070313 5498.381341380208 5909.998122070313 5488.001341380208C 5902.888122070312 5478.421341380208 5893.128122070313 5470.101341380208 5883.688122070313 5462.871341380208C 5879.478122070313 5459.621341380208 5876.478122070313 5456.061341380208 5873.468122070313 5451.691341380208C 5872.988122070313 5451.131341380208 5872.498122070313 5450.571341380208 5871.998122070313 5450.001341380208C 5871.008122070313 5450.001341380208 5870.0181220703125 5450.001341380208 5868.998122070313 5450.001341380208ZM 5980.438122070313 5455.441341380208 C 5979.818122070313 5455.791341380208 5979.208122070313 5456.151341380208 5978.568122070313 5456.521341380208C 5962.398122070313 5466.181341380208 5951.148122070313 5478.821341380208 5945.668122070313 5496.921341380208C 5944.988122070313 5500.041341380208 5944.878122070313 5502.811341380208 5944.998122070313 5506.001341380208C 5946.028122070313 5505.391341380208 5947.048122070313 5504.781341380208 5948.108122070313 5504.151341380208C 5954.148122070313 5501.141341380208 5960.638122070312 5500.481341380208 5967.248122070313 5499.501341380208C 5978.7681220703125 5497.771341380208 5989.8481220703125 5495.691341380208 6000.128122070313 5489.941341380208C 6001.0181220703125 5489.451341380208 6001.908122070313 5488.961341380208 6002.818122070313 5488.461341380208C 6005.258122070313 5487.031341380208 6005.258122070313 5487.031341380208 6006.998122070313 5484.001341380208C 6008.408122070313 5476.511341380208 6004.028122070313 5471.291341380208 6000.128122070313 5465.191341380208C 5999.148122070313 5463.611341380208 5999.148122070313 5463.611341380208 5998.148122070313 5462.011341380208C 5994.948122070313 5456.711341380208 5994.948122070313 5456.711341380208 5990.998122070313 5452.001341380208C 5986.538122070313 5452.001341380208 5984.148122070313 5453.261341380208 5980.438122070313 5455.441341380208ZM 5851.998122070313 5479.001341380208 C 5851.078122070313 5487.391341380208 5853.188122070313 5492.331341380208 5857.688122070313 5499.311341380208C 5858.2681220703125 5500.261341380208 5858.858122070313 5501.201341380208 5859.458122070313 5502.171341380208C 5860.678122070313 5504.141341380208 5861.908122070313 5506.111341380208 5863.148122070313 5508.071341380208C 5864.938122070313 5510.901341380208 5866.698122070313 5513.751341380208 5868.438122070313 5516.601341380208C 5871.108122070313 5520.971341380208 5873.818122070313 5525.311341380208 5876.538122070313 5529.651341380208C 5877.908122070313 5531.851341380208 5879.238122070313 5534.061341380208 5880.568122070313 5536.281341380208C 5881.338122070313 5537.541341380208 5882.108122070313 5538.801341380208 5882.878122070313 5540.061341380208C 5883.508122070313 5541.121341380208 5884.148122070313 5542.191341380208 5884.8081220703125 5543.281341380208C 5888.288122070313 5547.591341380208 5892.0581220703125 5549.731341380208 5897.628122070313 5550.501341380208C 5901.738122070313 5549.891341380208 5903.258122070313 5549.131341380208 5905.998122070313 5546.001341380208C 5909.498122070313 5536.991341380208 5909.378122070313 5525.401341380208 5906.158122070313 5516.311341380208C 5900.688122070313 5505.401341380208 5891.338122070313 5501.601341380208 5880.498122070313 5497.561341380208C 5870.088122070313 5493.641341380208 5860.638122070312 5488.091341380208 5853.998122070313 5479.001341380208C 5853.338122070313 5479.001341380208 5852.678122070313 5479.001341380208 5851.998122070313 5479.001341380208ZM 5995.3081220703125 5498.311341380208 C 5986.5181220703125 5501.731341380208 5977.548122070313 5503.341341380208 5968.258122070313 5504.711341380208C 5967.458122070313 5504.831341380208 5966.658122070313 5504.951341380208 5965.828122070313 5505.081341380208C 5964.278122070313 5505.311341380208 5962.718122070313 5505.531341380208 5961.168122070313 5505.731341380208C 5956.2681220703125 5506.461341380208 5952.778122070313 5507.591341380208 5948.998122070313 5511.001341380208C 5946.698122070313 5516.251341380208 5946.868122070313 5520.721341380208 5947.628122070313 5526.251341380208C 5947.718122070313 5526.991341380208 5947.818122070313 5527.731341380208 5947.918122070313 5528.501341380208C 5949.048122070313 5536.441341380208 5950.498122070313 5544.711341380208 5956.998122070313 5550.001341380208C 5959.108122070313 5550.621341380208 5959.108122070313 5550.621341380208 5961.3081220703125 5550.501341380208C 5962.028122070313 5550.511341380208 5962.748122070313 5550.521341380208 5963.488122070313 5550.531341380208C 5968.3481220703125 5549.501341380208 5971.928122070313 5547.291341380208 5975.0581220703125 5543.531341380208C 5975.658122070313 5542.531341380208 5976.258122070313 5541.531341380208 5976.878122070313 5540.501341380208C 5977.228122070313 5539.931341380208 5977.578122070313 5539.361341380208 5977.938122070313 5538.771341380208C 5978.778122070313 5537.381341380208 5979.608122070313 5536.001341380208 5980.438122070313 5534.611341380208C 5982.3481220703125 5531.421341380208 5984.278122070313 5528.241341380208 5986.218122070313 5525.061341380208C 5988.498122070313 5521.301341380208 5990.788122070313 5517.541341380208 5993.0581220703125 5513.771341380208C 5993.418122070313 5513.181341380208 5993.778122070313 5512.581341380208 5994.158122070313 5511.961341380208C 5995.148122070313 5510.321341380208 5996.138122070312 5508.671341380208 5997.128122070313 5507.031341380208C 5998.448122070313 5504.901341380208 5999.818122070313 5502.801341380208 6001.238122070313 5500.741341380208C 6003.178122070313 5498.261341380208 6003.178122070313 5498.261341380208 6002.998122070313 5496.001341380208C 6000.108122070313 5496.001341380208 5997.978122070313 5497.201341380208 5995.3081220703125 5498.311341380208Z"></path><path fill="#ffffff" stroke="none" fill-opacity="1" stroke-width="1" stroke-opacity="1" font-size-adjust="none" id="tSvg128e0b9efc1" title="Path 2" d="M 5957.504122070312 5615.734081380208 C 5961.794122070312 5617.724081380208 5964.8841220703125 5620.484081380208 5968.004122070312 5624.004081380209C 5968.524122070313 5623.514081380208 5969.044122070312 5623.034081380209 5969.574122070312 5622.534081380209C 5970.274122070313 5621.9040813802085 5970.974122070313 5621.274081380208 5971.684122070313 5620.624081380209C 5972.374122070312 5619.994081380209 5973.054122070313 5619.374081380209 5973.764122070313 5618.724081380208C 5979.874122070312 5614.014081380208 5986.594122070313 5614.304081380208 5994.004122070312 5615.004081380209C 6000.584122070312 5616.704081380209 6005.324122070312 5621.414081380209 6009.004122070312 5627.004081380209C 6011.264122070313 5632.314081380208 6011.264122070313 5637.104081380208 6011.194122070312 5642.774081380208C 6011.194122070312 5643.694081380208 6011.194122070312 5644.624081380209 6011.184122070313 5645.574081380209C 6011.1741220703125 5648.504081380209 6011.154122070312 5651.444081380208 6011.124122070312 5654.374081380209C 6011.114122070312 5656.374081380209 6011.104122070313 5658.3640813802085 6011.094122070313 5660.3640813802085C 6011.074122070312 5665.244081380209 6011.044122070312 5670.124081380209 6011.004122070312 5675.004081380209C 6007.044122070312 5675.004081380209 6003.084122070312 5675.004081380209 5999.004122070312 5675.004081380209C 5998.984122070312 5673.914081380209 5998.974122070313 5672.834081380209 5998.954122070312 5671.714081380208C 5998.894122070313 5667.664081380209 5998.824122070312 5663.624081380209 5998.734122070312 5659.574081380209C 5998.704122070312 5657.834081380209 5998.6741220703125 5656.084081380209 5998.654122070312 5654.334081380209C 5998.624122070312 5651.814081380208 5998.564122070313 5649.294081380209 5998.514122070313 5646.774081380208C 5998.504122070312 5646.004081380209 5998.504122070312 5645.234081380208 5998.494122070312 5644.434081380208C 5998.334122070312 5638.6140813802085 5997.334122070312 5633.594081380208 5993.314122070313 5629.124081380209C 5988.304122070313 5626.684081380208 5984.394122070313 5626.584081380209 5979.184122070313 5628.124081380209C 5975.734122070312 5630.1540813802085 5974.564122070313 5631.3640813802085 5973.004122070312 5635.004081380209C 5971.894122070313 5639.344081380208 5971.784122070312 5643.684081380208 5971.684122070313 5648.144081380208C 5971.664122070312 5648.914081380209 5971.644122070313 5649.684081380208 5971.624122070312 5650.474081380208C 5971.554122070313 5652.924081380208 5971.494122070312 5655.3640813802085 5971.434122070313 5657.814081380208C 5971.394122070313 5659.474081380208 5971.354122070313 5661.134081380208 5971.304122070313 5662.804081380208C 5971.204122070312 5666.8640813802085 5971.094122070313 5670.934081380208 5971.004122070312 5675.004081380209C 5967.044122070312 5675.004081380209 5963.084122070312 5675.004081380209 5959.004122070312 5675.004081380209C 5958.984122070312 5673.884081380208 5958.974122070313 5672.764081380208 5958.954122070312 5671.604081380208C 5958.894122070313 5667.434081380208 5958.824122070312 5663.264081380208 5958.734122070312 5659.094081380208C 5958.704122070312 5657.294081380209 5958.6741220703125 5655.494081380209 5958.654122070312 5653.684081380208C 5958.624122070312 5651.094081380208 5958.564122070313 5648.494081380209 5958.514122070313 5645.894081380208C 5958.504122070312 5645.094081380208 5958.504122070312 5644.294081380209 5958.494122070312 5643.474081380208C 5958.344122070313 5637.814081380208 5957.304122070313 5633.474081380208 5953.314122070313 5629.184081380208C 5948.354122070313 5626.644081380208 5944.3841220703125 5626.594081380208 5939.184122070313 5628.124081380209C 5935.584122070312 5630.244081380209 5934.694122070312 5631.234081380208 5933.004122070312 5635.004081380209C 5932.544122070312 5638.074081380209 5932.514122070313 5641.134081380208 5932.484122070312 5644.234081380208C 5932.474122070313 5645.1140813802085 5932.454122070312 5646.004081380209 5932.434122070313 5646.9040813802085C 5932.3841220703125 5649.704081380209 5932.344122070313 5652.514081380208 5932.314122070313 5655.314081380208C 5932.284122070312 5657.214081380208 5932.244122070312 5659.124081380209 5932.214122070312 5661.024081380208C 5932.124122070312 5665.684081380208 5932.054122070313 5670.344081380208 5932.004122070312 5675.004081380209C 5927.714122070312 5675.004081380209 5923.4241220703125 5675.004081380209 5919.004122070312 5675.004081380209C 5919.004122070312 5655.534081380209 5919.004122070312 5636.064081380208 5919.004122070312 5616.004081380209C 5923.294122070312 5616.004081380209 5927.584122070312 5616.004081380209 5932.004122070312 5616.004081380209C 5932.334122070312 5617.324081380209 5932.664122070312 5618.644081380208 5933.004122070312 5620.004081380209C 5933.414122070312 5619.634081380208 5933.834122070312 5619.274081380208 5934.254122070312 5618.9040813802085C 5941.114122070312 5613.744081380209 5949.344122070313 5613.344081380208 5957.504122070312 5615.734081380208Z"></path><path fill="#ffffff" stroke="none" fill-opacity="1" stroke-width="1" stroke-opacity="1" font-size-adjust="none" id="tSvgf6cd3b0f7a" title="Path 3" d="M 5731.0001220703125 5596.000081380208 C 5735.2901220703125 5596.000081380208 5739.580122070312 5596.000081380208 5744.0001220703125 5596.000081380208C 5744.0001220703125 5622.070081380208 5744.0001220703125 5648.140081380208 5744.0001220703125 5675.000081380208C 5739.7101220703125 5675.000081380208 5735.420122070313 5675.000081380208 5731.0001220703125 5675.000081380208C 5730.670122070313 5673.350081380208 5730.340122070313 5671.700081380208 5730.0001220703125 5670.000081380208C 5729.4601220703125 5670.350081380208 5728.910122070312 5670.700081380208 5728.360122070312 5671.060081380208C 5727.640122070313 5671.510081380208 5726.920122070313 5671.970081380208 5726.190122070312 5672.440081380208C 5725.480122070312 5672.890081380208 5724.770122070313 5673.340081380208 5724.0401220703125 5673.810081380208C 5718.490122070312 5677.050081380208 5712.2101220703125 5676.620081380208 5706.0001220703125 5676.000081380208C 5697.970122070313 5673.560081380208 5693.050122070313 5668.970081380208 5688.7501220703125 5661.960081380208C 5684.520122070313 5653.420081380208 5684.550122070313 5642.310081380208 5686.660122070312 5633.120081380208C 5687.570122070312 5630.850081380208 5688.600122070313 5629.010081380208 5690.0001220703125 5627.000081380208C 5690.5001220703125 5626.280081380208 5691.0001220703125 5625.570081380208 5691.510122070313 5624.830081380208C 5696.310122070313 5618.700081380208 5701.380122070313 5615.610081380208 5709.110122070312 5614.590081380208C 5716.880122070313 5614.230081380208 5722.490122070312 5615.760081380208 5729.0001220703125 5620.000081380208C 5729.330122070312 5620.330081380208 5729.660122070312 5620.660081380208 5730.0001220703125 5621.000081380208C 5730.330122070312 5612.750081380208 5730.660122070312 5604.500081380208 5731.0001220703125 5596.000081380208ZM 5702.0001220703125 5632.000081380208 C 5698.620122070312 5636.850081380208 5697.850122070313 5642.180081380208 5698.0001220703125 5648.000081380208C 5699.0401220703125 5653.460081380208 5700.970122070313 5658.080081380208 5705.0001220703125 5662.000081380208C 5709.4601220703125 5664.940081380208 5713.730122070312 5666.030081380208 5719.0001220703125 5665.000081380208C 5723.560122070313 5663.210081380208 5726.980122070312 5660.680081380208 5729.5001220703125 5656.440081380208C 5732.010122070313 5650.500081380208 5732.130122070313 5643.740081380208 5730.270122070313 5637.590081380208C 5728.0001220703125 5632.630081380208 5724.930122070313 5629.460081380208 5720.0001220703125 5627.000081380208C 5712.720122070313 5626.150081380208 5707.160122070312 5626.440081380208 5702.0001220703125 5632.000081380208Z"></path><path fill="#ffffff" stroke="none" fill-opacity="1" stroke-width="1" stroke-opacity="1" font-size-adjust="none" id="tSvg8dbecfd29d" title="Path 4" d="M 6059.6251220703125 5617.375081380208 C 6062.155122070312 5618.775081380208 6063.955122070312 5619.955081380208 6066.005122070313 5621.995081380208C 6066.325122070312 5620.025081380208 6066.655122070312 5618.035081380208 6067.005122070313 5615.995081380208C 6070.955122070312 5615.995081380208 6074.925122070313 5615.995081380208 6079.005122070313 5615.995081380208C 6079.005122070313 5635.805081380208 6079.005122070313 5655.595081380208 6079.005122070313 5675.995081380208C 6075.045122070313 5675.995081380208 6071.075122070312 5675.995081380208 6067.005122070313 5675.995081380208C 6066.505122070313 5672.535081380208 6066.505122070313 5672.535081380208 6066.005122070313 5668.995081380208C 6065.115122070312 5669.785081380208 6064.225122070313 5670.565081380208 6063.315122070312 5671.375081380208C 6057.575122070312 5676.445081380208 6051.185122070313 5676.675081380208 6043.805122070313 5676.435081380208C 6036.3751220703125 5675.585081380208 6031.285122070312 5671.915081380208 6026.565122070312 5666.255081380208C 6020.645122070313 5657.375081380208 6019.535122070312 5646.865081380208 6021.465122070313 5636.485081380208C 6023.715122070313 5628.815081380208 6027.6251220703125 5621.995081380208 6034.685122070313 5617.995081380208C 6042.8351220703125 5613.945081380208 6051.325122070312 5613.265081380208 6059.6251220703125 5617.375081380208ZM 6037.245122070312 5632.995081380208 C 6032.905122070312 5638.785081380208 6033.525122070312 5645.025081380208 6034.005122070313 5651.995081380208C 6035.8351220703125 5657.405081380208 6039.215122070313 5660.985081380208 6043.815122070312 5664.315081380208C 6048.955122070312 5665.925081380208 6052.815122070312 5665.485081380208 6057.685122070313 5663.495081380208C 6061.755122070313 5660.805081380208 6064.355122070312 5657.615081380208 6066.005122070313 5652.995081380208C 6066.975122070313 5646.115081380208 6066.815122070312 5639.665081380208 6063.215122070313 5633.585081380208C 6060.945122070312 5630.615081380208 6058.315122070312 5628.655081380208 6055.005122070313 5626.995081380208C 6047.245122070312 5626.285081380208 6042.505122070313 5627.015081380208 6037.245122070312 5632.995081380208Z"></path><path fill="#ffffff" stroke="none" fill-opacity="1" stroke-width="1" stroke-opacity="1" font-size-adjust="none" id="tSvg3866664d9d" title="Path 5" d="M 5841.313122070313 5621.188081380208 C 5847.703122070313 5627.868081380208 5850.1431220703125 5634.5780813802085 5850.123122070313 5643.688081380208C 5850.133122070312 5645.428081380208 5850.133122070312 5645.428081380208 5850.133122070312 5647.198081380208C 5850.003122070312 5649.9980813802085 5850.003122070312 5649.9980813802085 5849.003122070312 5650.9980813802085C 5845.8931220703125 5651.088081380208 5842.813122070313 5651.118081380208 5839.713122070312 5651.098081380208C 5838.783122070313 5651.098081380208 5837.853122070313 5651.098081380208 5836.8931220703125 5651.098081380208C 5833.913122070313 5651.088081380208 5830.923122070312 5651.0780813802085 5827.9331220703125 5651.068081380208C 5825.923122070312 5651.058081380208 5823.903122070313 5651.058081380208 5821.883122070312 5651.048081380208C 5816.923122070312 5651.0380813802085 5811.963122070312 5651.018081380208 5807.003122070312 5650.9980813802085C 5807.603122070313 5652.448081380208 5808.2231220703125 5653.898081380208 5808.833122070313 5655.338081380208C 5809.173122070312 5656.148081380208 5809.523122070313 5656.948081380208 5809.873122070313 5657.778081380208C 5811.6431220703125 5661.258081380208 5813.4331220703125 5662.478081380208 5817.003122070312 5663.9980813802085C 5821.653122070313 5664.648081380208 5825.593122070312 5664.598081380208 5829.9331220703125 5662.7480813802085C 5832.083122070313 5661.128081380208 5832.083122070313 5661.128081380208 5833.213122070312 5658.908081380208C 5835.003122070312 5656.9980813802085 5835.003122070312 5656.9980813802085 5838.133122070312 5656.608081380208C 5839.313122070313 5656.658081380208 5840.483122070313 5656.698081380208 5841.693122070313 5656.7480813802085C 5842.863122070313 5656.7880813802085 5844.043122070312 5656.818081380208 5845.263122070312 5656.858081380208C 5846.163122070313 5656.908081380208 5847.073122070313 5656.948081380208 5848.003122070312 5656.9980813802085C 5847.533122070313 5661.758081380208 5846.493122070313 5664.188081380208 5843.253122070312 5667.688081380208C 5842.233122070313 5668.808081380208 5842.233122070313 5668.808081380208 5841.203122070313 5669.948081380208C 5834.343122070312 5676.338081380208 5827.713122070312 5676.368081380208 5818.703122070313 5676.208081380209C 5811.813122070313 5675.818081380208 5806.7231220703125 5673.5380813802085 5801.603122070313 5668.888081380208C 5794.1431220703125 5660.138081380208 5793.343122070312 5650.0380813802085 5793.823122070313 5639.068081380208C 5794.4731220703125 5631.588081380208 5798.353122070313 5624.848081380208 5804.003122070312 5619.9980813802085C 5816.133122070312 5612.318081380208 5829.523122070313 5613.408081380208 5841.313122070313 5621.188081380208ZM 5808.623122070313 5632.9980813802085 C 5806.6831220703125 5636.018081380208 5806.6831220703125 5636.018081380208 5807.003122070312 5639.9980813802085C 5816.903122070313 5639.9980813802085 5826.803122070312 5639.9980813802085 5837.003122070312 5639.9980813802085C 5834.793122070312 5631.888081380208 5834.793122070312 5631.888081380208 5828.813122070313 5626.688081380208C 5820.163122070313 5624.5780813802085 5814.353122070313 5625.768081380208 5808.623122070313 5632.9980813802085Z"></path><path fill="#ffffff" stroke="none" fill-opacity="1" stroke-width="1" stroke-opacity="1" font-size-adjust="none" id="tSvg17f319b19a8" title="Path 6" d="M 6124.063122070313 5616.250081380208 C 6129.4331220703125 5619.450081380208 6132.763122070312 5622.000081380208 6135.003122070312 5628.000081380208C 6135.1831220703125 5631.870081380208 6135.1831220703125 5631.870081380208 6135.003122070312 5635.000081380208C 6131.043122070312 5635.000081380208 6127.083122070313 5635.000081380208 6123.003122070312 5635.000081380208C 6122.563122070313 5634.050081380208 6122.133122070312 5633.100081380208 6121.6831220703125 5632.130081380208C 6120.203122070313 5628.800081380208 6120.203122070313 5628.800081380208 6117.003122070312 5627.000081380208C 6112.813122070313 5626.800081380208 6109.013122070312 5626.660081380208 6105.003122070312 5628.000081380208C 6104.583122070313 5632.060081380208 6104.583122070313 5632.060081380208 6106.233122070313 5635.590081380208C 6108.273122070313 5637.220081380208 6110.013122070312 5637.890081380208 6112.493122070313 5638.680081380208C 6113.793122070312 5639.120081380208 6113.793122070312 5639.120081380208 6115.133122070312 5639.560081380208C 6116.953122070313 5640.140081380208 6118.773122070313 5640.720081380208 6120.603122070313 5641.310081380208C 6126.663122070313 5643.320081380208 6131.123122070313 5645.210081380208 6134.813122070313 5650.690081380208C 6136.763122070312 5656.120081380208 6136.763122070312 5660.800081380208 6134.873122070313 5666.250081380208C 6131.563122070313 5671.110081380208 6127.583122070313 5674.200081380208 6122.003122070312 5676.000081380208C 6112.783122070313 5677.000081380208 6104.693122070313 5676.630081380208 6097.003122070312 5671.000081380208C 6092.3931220703125 5667.130081380208 6090.9731220703125 5662.7700813802085 6090.003122070312 5657.000081380208C 6091.003122070312 5656.000081380208 6091.003122070312 5656.000081380208 6093.7231220703125 5655.900081380208C 6094.823122070313 5655.910081380208 6095.923122070312 5655.930081380208 6097.063122070313 5655.940081380208C 6098.7231220703125 5655.950081380208 6098.7231220703125 5655.950081380208 6100.413122070313 5655.960081380208C 6101.263122070312 5655.980081380208 6102.123122070313 5655.990081380208 6103.003122070312 5656.000081380208C 6103.413122070313 5656.950081380208 6103.823122070313 5657.900081380208 6104.253122070312 5658.870081380208C 6106.103122070313 5662.180081380208 6106.613122070313 5662.720081380208 6110.003122070312 5664.000081380208C 6114.103122070313 5664.560081380208 6117.783122070313 5664.560081380208 6121.563122070313 5662.810081380208C 6123.443122070313 5660.440081380208 6123.323122070313 5658.950081380208 6123.003122070312 5656.000081380208C 6117.103122070313 5652.800081380208 6111.063122070313 5650.460081380208 6104.7231220703125 5648.280081380208C 6099.813122070313 5646.530081380208 6095.763122070312 5644.570081380208 6092.713122070312 5640.120081380208C 6090.813122070313 5634.460081380208 6091.1831220703125 5628.030081380208 6093.373122070313 5622.560081380208C 6101.483122070313 5614.650081380208 6113.293122070312 5612.0200813802085 6124.063122070313 5616.250081380208Z"></path><path fill="#ffffff" stroke="none" fill-opacity="1" stroke-width="1" stroke-opacity="1" font-size-adjust="none" id="tSvgf17ea13d9e" title="Path 7" d="M 6179.6251220703125 5616.625081380208 C 6185.1651220703125 5620.045081380208 6188.475122070313 5624.625081380208 6190.005122070313 5631.005081380208C 6190.005122070313 5632.315081380208 6190.005122070313 5633.635081380208 6190.005122070313 5635.005081380208C 6186.045122070313 5635.005081380208 6182.075122070312 5635.005081380208 6178.005122070313 5635.005081380208C 6177.5851220703125 5634.055081380208 6177.175122070313 5633.105081380208 6176.745122070312 5632.125081380208C 6175.285122070312 5629.065081380208 6175.285122070312 5629.065081380208 6173.315122070312 5627.625081380208C 6169.8351220703125 5626.685081380208 6166.565122070312 5626.375081380208 6163.005122070313 5627.005081380208C 6160.495122070312 5628.835081380208 6160.495122070312 5628.835081380208 6159.005122070313 5631.005081380208C 6159.445122070312 5633.465081380208 6159.445122070312 5633.465081380208 6161.005122070313 5636.005081380208C 6163.595122070313 5637.265081380208 6165.905122070312 5638.195081380208 6168.6251220703125 5639.065081380208C 6170.0851220703125 5639.575081380208 6171.545122070313 5640.085081380208 6172.995122070312 5640.595081380208C 6173.695122070312 5640.835081380208 6174.385122070313 5641.085081380208 6175.105122070312 5641.325081380208C 6180.395122070313 5643.205081380208 6185.675122070313 5645.405081380208 6189.155122070312 5650.035081380208C 6191.075122070312 5654.485081380208 6190.695122070312 5659.295081380208 6190.005122070313 5664.005081380208C 6187.515122070313 5669.155081380208 6183.9151220703125 5672.575081380208 6178.765122070313 5675.085081380208C 6172.245122070312 5677.235081380208 6163.925122070313 5677.015081380208 6157.435122070313 5674.745081380208C 6151.115122070312 5671.535081380208 6147.965122070313 5668.365081380208 6145.005122070313 5662.005081380208C 6144.935122070313 5660.005081380208 6144.925122070313 5657.995081380208 6145.005122070313 5656.005081380208C 6149.055122070313 5655.655081380208 6152.955122070312 5655.465081380208 6157.005122070313 5656.005081380208C 6159.565122070312 5658.875081380208 6159.565122070312 5658.875081380208 6161.005122070313 5662.005081380208C 6165.035122070312 5664.695081380208 6168.265122070313 5664.545081380208 6173.005122070313 5664.005081380208C 6175.615122070312 5663.015081380208 6175.615122070312 5663.015081380208 6177.005122070313 5661.005081380208C 6177.745122070312 5658.505081380208 6177.745122070312 5658.505081380208 6177.005122070313 5656.005081380208C 6172.045122070313 5652.305081380208 6165.855122070312 5650.755081380208 6160.035122070312 5648.865081380208C 6154.285122070312 5646.875081380208 6150.9151220703125 5644.695081380208 6147.005122070313 5640.005081380208C 6145.545122070313 5635.6450813802085 6145.485122070312 5631.545081380208 6146.005122070313 5627.005081380208C 6148.565122070312 5621.875081380208 6152.065122070312 5618.445081380208 6157.205122070312 5615.915081380208C 6163.8351220703125 5613.745081380208 6173.195122070312 5613.675081380208 6179.6251220703125 5616.625081380208Z"></path><path fill="#ffffff" stroke="none" fill-opacity="1" stroke-width="1" stroke-opacity="1" font-size-adjust="none" id="tSvgd8e61eb0b9" title="Path 8" d="M 5854.0001220703125 5616.000081380208 C 5858.2901220703125 5616.000081380208 5862.580122070312 5616.000081380208 5867.0001220703125 5616.000081380208C 5870.800122070313 5625.040081380208 5873.770122070313 5634.290081380208 5876.7501220703125 5643.620081380208C 5877.260122070313 5645.220081380208 5877.770122070313 5646.810081380208 5878.2901220703125 5648.400081380208C 5879.530122070312 5652.2700813802085 5880.760122070313 5656.130081380208 5882.0001220703125 5660.000081380208C 5885.760122070313 5651.160081380208 5888.700122070312 5642.060081380208 5891.690122070312 5632.940081380208C 5892.670122070313 5629.950081380208 5893.650122070312 5626.950081380208 5894.640122070313 5623.960081380208C 5894.860122070312 5623.280081380208 5895.080122070312 5622.590081380208 5895.310122070313 5621.890081380208C 5896.890122070313 5617.110081380208 5896.890122070313 5617.110081380208 5898.0001220703125 5616.000081380208C 5900.190122070312 5615.930081380208 5902.380122070313 5615.920081380208 5904.560122070313 5615.940081380208C 5906.360122070312 5615.950081380208 5906.360122070312 5615.950081380208 5908.190122070312 5615.960081380208C 5909.120122070312 5615.980081380208 5910.050122070313 5615.990081380208 5911.0001220703125 5616.000081380208C 5908.940122070312 5623.170081380208 5906.570122070312 5630.180081380208 5904.020122070313 5637.190081380208C 5903.650122070312 5638.210081380208 5903.280122070312 5639.240081380208 5902.900122070312 5640.290081380208C 5902.120122070312 5642.440081380208 5901.340122070313 5644.580081380208 5900.570122070312 5646.730081380208C 5899.370122070312 5650.0200813802085 5898.180122070313 5653.310081380208 5896.980122070312 5656.610081380208C 5896.230122070312 5658.700081380208 5895.470122070313 5660.790081380208 5894.7101220703125 5662.880081380208C 5894.350122070313 5663.860081380208 5894.0001220703125 5664.850081380208 5893.630122070313 5665.860081380208C 5893.300122070313 5666.7700813802085 5892.970122070313 5667.680081380208 5892.630122070313 5668.620081380208C 5892.190122070312 5669.820081380208 5892.190122070312 5669.820081380208 5891.7501220703125 5671.040081380208C 5891.0001220703125 5673.000081380208 5891.0001220703125 5673.000081380208 5890.0001220703125 5675.000081380208C 5885.050122070313 5675.000081380208 5880.100122070313 5675.000081380208 5875.0001220703125 5675.000081380208C 5870.530122070312 5664.630081380208 5866.640122070313 5654.070081380208 5862.7901220703125 5643.460081380208C 5861.680122070313 5640.410081380208 5860.560122070313 5637.360081380208 5859.440122070312 5634.320081380208C 5858.740122070312 5632.380081380208 5858.030122070312 5630.440081380208 5857.320122070312 5628.500081380208C 5856.990122070312 5627.590081380208 5856.660122070312 5626.680081380208 5856.310122070313 5625.740081380208C 5856.010122070313 5624.900081380208 5855.700122070312 5624.060081380208 5855.390122070313 5623.190081380208C 5855.120122070312 5622.450081380208 5854.850122070313 5621.710081380208 5854.570122070312 5620.950081380208C 5854.0001220703125 5619.000081380208 5854.0001220703125 5619.000081380208 5854.0001220703125 5616.000081380208Z"></path><path fill="#ffffff" stroke="none" fill-opacity="1" stroke-width="1" stroke-opacity="1" font-size-adjust="none" id="tSvg156be5b1bb7" title="Path 9" d="M 5788.0001220703125 5615.000081380208 C 5788.0001220703125 5619.290081380208 5788.0001220703125 5623.580081380208 5788.0001220703125 5628.000081380208C 5784.970122070313 5628.650081380208 5781.950122070312 5629.300081380208 5778.920122070313 5629.950081380208C 5775.640122070313 5631.130081380208 5774.690122070312 5632.010081380208 5773.0001220703125 5635.000081380208C 5771.730122070312 5638.800081380208 5771.770122070313 5642.420081380208 5771.680122070313 5646.390081380208C 5771.660122070312 5647.200081380208 5771.640122070313 5648.0200813802085 5771.620122070312 5648.860081380208C 5771.560122070313 5651.470081380208 5771.5001220703125 5654.080081380208 5771.440122070312 5656.690081380208C 5771.390122070313 5658.460081380208 5771.350122070313 5660.230081380208 5771.310122070313 5661.990081380208C 5771.200122070312 5666.330081380208 5771.100122070313 5670.660081380208 5771.0001220703125 5675.000081380208C 5767.0401220703125 5675.000081380208 5763.080122070312 5675.000081380208 5759.0001220703125 5675.000081380208C 5759.0001220703125 5655.530081380208 5759.0001220703125 5636.060081380208 5759.0001220703125 5616.000081380208C 5762.9601220703125 5616.000081380208 5766.920122070313 5616.000081380208 5771.0001220703125 5616.000081380208C 5771.330122070312 5617.650081380208 5771.660122070312 5619.300081380208 5772.0001220703125 5621.000081380208C 5772.720122070313 5620.380081380208 5773.440122070312 5619.760081380208 5774.190122070312 5619.120081380208C 5779.140122070313 5615.380081380208 5781.620122070312 5615.000081380208 5788.0001220703125 5615.000081380208Z"></path><defs></defs></svg> 