<?xml version="1.0" encoding="UTF-8"?> <svg xmlns="http://www.w3.org/2000/svg" viewBox="6257.10205078125 5274.9833984375 141.89794921875 63.07373046875" data-guides="{&quot;vertical&quot;:[],&quot;horizontal&quot;:[]}"><path fill="#ffffff" stroke="none" fill-opacity="1" stroke-width="1" stroke-opacity="1" id="tSvg16e5ef5d93f" title="Path 1" d="M 6340.051322070312 5275.983392070312 C 6340.229637859786 5275.9848657545235 6340.40795364926 5275.9848657545235 6340.592164175576 5275.986339438734C 6340.783743122944 5275.986339438734 6340.976795754523 5275.986339438734 6341.174269438734 5275.987813122944C 6341.379111543996 5275.987813122944 6341.5839536492595 5275.989286807155 6341.788795754523 5275.990760491365C 6341.993637859786 5275.9922341755755 6342.198479965049 5275.9922341755755 6342.403322070312 5275.9922341755755C 6342.907322070312 5275.995181543996 6343.411322070313 5275.996655228208 6343.915322070313 5275.999602596628C 6343.915322070313 5276.096865754523 6343.915322070313 5276.194128912418 6343.915322070313 5276.294339438734C 6344.106901017681 5276.294339438734 6344.298479965049 5276.2928657545235 6344.49595364926 5276.291392070312C 6346.299743122944 5276.282549965049 6348.103532596629 5276.276655228207 6349.907322070312 5276.272234175575C 6350.834269438734 5276.2692868071545 6351.762690491365 5276.266339438734 6352.689637859787 5276.2619183861025C 6353.585637859786 5276.25602364926 6354.480164175576 5276.25454996505 6355.3761641755755 5276.253076280839C 6355.716585228207 5276.251602596628 6356.05847996505 5276.2501289124175 6356.398901017681 5276.248655228207C 6356.877848386102 5276.244234175576 6357.356795754523 5276.244234175576 6357.835743122944 5276.244234175576C 6358.046479965049 5276.2427604913655 6358.046479965049 5276.2427604913655 6358.261637859786 5276.239813122944C 6359.302058912418 5276.244234175576 6360.136164175576 5276.393076280839 6360.973216807155 5277.059181543997C 6361.57595364926 5277.810760491365 6362.0106904913655 5278.547602596628 6361.950269438734 5279.536444701891C 6361.769006280839 5280.495813122944 6361.265006280839 5281.122128912418 6360.522269438734 5281.727813122944C 6360.080164175575 5282.02549733347 6359.691111543997 5282.060865754523 6359.173848386102 5282.065286807155C 6358.97195364926 5282.0682341755755 6358.97195364926 5282.0682341755755 6358.767111543997 5282.069707859786C 6358.619743122944 5282.071181543997 6358.472374701892 5282.071181543997 6358.320585228207 5282.072655228208C 6358.165848386102 5282.074128912418 6358.009637859786 5282.075602596628 6357.850479965049 5282.077076280839C 6357.3361641755755 5282.08149733347 6356.821848386102 5282.085918386102 6356.307532596628 5282.088865754523C 6355.950901017681 5282.091813122944 6355.594269438734 5282.094760491365 6355.239111543997 5282.097707859786C 6354.300374701891 5282.106549965049 6353.361637859786 5282.113918386102 6352.4229010176805 5282.121286807154C 6351.466479965049 5282.128655228207 6350.508585228207 5282.13602364926 6349.552164175576 5282.144865754523C 6347.673216807155 5282.159602596628 6345.794269438734 5282.175813122944 6343.915322070313 5282.189076280839C 6344.012585228207 5282.286339438734 6344.109848386102 5282.383602596628 6344.2100589124175 5282.483813122944C 6343.772374701892 5282.629707859786 6343.772374701892 5282.629707859786 6343.325848386102 5282.778549965049C 6343.325848386102 5283.021707859786 6343.325848386102 5283.264865754523 6343.325848386102 5283.515392070312C 6343.7635325966285 5283.661286807154 6343.7635325966285 5283.661286807154 6344.2100589124175 5283.810128912418C 6344.064164175576 5283.95602364926 6344.064164175576 5283.95602364926 6343.915322070313 5284.104865754523C 6343.720795754523 5284.104865754523 6343.526269438734 5284.104865754523 6343.325848386102 5284.104865754523C 6343.325848386102 5284.34802364926 6343.325848386102 5284.591181543997 6343.325848386102 5284.841707859786C 6343.958058912418 5284.841707859786 6344.590269438733 5284.841707859786 6345.241637859786 5284.841707859786C 6345.268164175575 5285.087813122944 6345.268164175575 5285.087813122944 6345.294690491365 5285.336865754523C 6345.358058912418 5285.948444701891 6345.42142733347 5286.55854996505 6345.486269438734 5287.170128912418C 6345.514269438733 5287.433918386102 6345.540795754523 5287.6977078597865 6345.568795754523 5287.96002364926C 6345.608585228208 5288.341707859786 6345.648374701891 5288.721918386102 6345.688164175575 5289.102128912418C 6345.699953649259 5289.2185499650495 6345.713216807155 5289.334971017681 6345.725006280839 5289.454339438734C 6345.748585228207 5289.6768657545235 6345.772164175575 5289.899392070312 6345.798690491365 5290.120444701892C 6345.820795754523 5290.338549965049 6345.838479965049 5290.5581289124175 6345.853216807154 5290.7777078597865C 6345.873848386102 5291.132865754523 6345.873848386102 5291.132865754523 6345.97847996505 5291.620655228207C 6346.242269438733 5291.8328657545235 6346.242269438733 5291.8328657545235 6346.56795364926 5291.915392070313C 6346.743322070312 5292.045076280839 6346.912795754523 5292.1791815439965 6347.079322070313 5292.317707859786C 6347.1751115439965 5292.395813122944 6347.27090101768 5292.475392070312 6347.368164175576 5292.556444701891C 6347.469848386102 5292.638971017681 6347.570058912418 5292.722971017681 6347.673216807155 5292.809918386102C 6347.780795754523 5292.8953920703125 6347.88690101768 5292.979392070312 6347.99742733347 5293.067813122944C 6348.467532596628 5293.445076280839 6348.908164175576 5293.81202364926 6349.3237431229445 5294.248234175576C 6350.399532596628 5295.29602364926 6351.463532596628 5295.26949733347 6352.915111543996 5295.278339438733C 6353.108164175575 5295.275392070313 6353.301216807155 5295.272444701892 6353.500164175575 5295.26949733347C 6353.682901017681 5295.266549965049 6353.864164175576 5295.265076280839 6354.052795754523 5295.262128912418C 6354.217848386102 5295.256234175576 6354.384374701892 5295.251813122944 6354.553848386102 5295.245918386102C 6354.96795364926 5295.304865754523 6354.96795364926 5295.304865754523 6355.245006280838 5295.515602596628C 6355.50142733347 5296.103602596629 6355.4572168071545 5296.662128912418 6355.436585228207 5297.295813122944C 6355.433637859786 5297.4313920703125 6355.432164175576 5297.566971017681 6355.429216807154 5297.706971017681C 6355.421848386102 5297.994339438734 6355.414479965049 5298.280234175576 6355.405637859786 5298.567602596629C 6355.392374701892 5299.006760491365 6355.383532596628 5299.447392070312 6355.3761641755755 5299.886549965049C 6355.368795754523 5300.165076280839 6355.361427333471 5300.443602596628 6355.354058912418 5300.722128912418C 6355.352585228207 5300.854760491366 6355.3496378597865 5300.985918386102 6355.346690491365 5301.122971017681C 6355.340795754523 5301.305707859786 6355.340795754523 5301.305707859786 6355.33342733347 5301.491392070313C 6355.329006280839 5301.65349733347 6355.329006280839 5301.65349733347 6355.324585228207 5301.81854996505C 6355.262690491365 5302.083813122944 6355.262690491365 5302.083813122944 6354.820585228207 5302.378549965049C 6354.139743122944 5302.378549965049 6353.458901017681 5302.378549965049 6352.75742733347 5302.378549965049C 6352.75742733347 5305.393707859786 6352.75742733347 5308.408865754523 6352.75742733347 5311.515392070312C 6352.209216807155 5311.332655228207 6351.963111543997 5311.057076280839 6351.578479965049 5310.631181543997C 6351.578479965049 5310.533918386102 6351.578479965049 5310.436655228207 6351.578479965049 5310.336444701891C 6351.500374701891 5310.302549965049 6351.422269438734 5310.267181543997 6351.3412168071545 5310.231813122944C 6350.978690491365 5310.035813122944 6350.664795754523 5309.802971017681 6350.339111543997 5309.552444701892C 6348.088795754523 5307.844444701892 6345.281427333471 5306.755392070312 6342.441637859786 5306.652234175575C 6342.279532596628 5306.644865754523 6342.117427333471 5306.6374973334705 6341.94942733347 5306.630128912418C 6337.811322070313 5306.52549733347 6334.094690491365 5308.052234175576 6331.072164175575 5310.838971017681C 6330.652164175575 5311.220655228207 6330.652164175575 5311.220655228207 6330.357427333471 5311.36802364926C 6330.357427333471 5308.401497333471 6330.357427333471 5305.434971017681 6330.357427333471 5302.378549965049C 6329.773848386102 5302.329918386102 6329.190269438734 5302.281286807154 6328.5890062808385 5302.231181543997C 6328.394479965049 5302.133918386102 6328.199953649259 5302.036655228208 6327.999532596628 5301.936444701892C 6327.791743122944 5301.226128912418 6327.840374701891 5300.486339438734 6327.861006280838 5299.752444701891C 6327.86247996505 5299.630128912418 6327.8654273334705 5299.506339438733 6327.868374701891 5299.381076280839C 6327.874269438734 5299.123181543997 6327.881637859786 5298.866760491365 6327.889006280839 5298.610339438734C 6327.899322070312 5298.215392070312 6327.906690491365 5297.820444701892 6327.914058912418 5297.42549733347C 6327.92142733347 5297.176444701891 6327.927322070313 5296.925918386102 6327.9346904913655 5296.675392070312C 6327.936164175576 5296.557497333471 6327.937637859786 5296.439602596628 6327.940585228207 5296.317286807154C 6327.967111543997 5295.486128912418 6327.967111543997 5295.486128912418 6328.294269438734 5295.15749733347C 6328.6892168071545 5295.144234175576 6328.6892168071545 5295.144234175576 6329.191743122944 5295.169286807155C 6331.707322070312 5295.238549965049 6333.310690491365 5295.008655228207 6335.2235325966285 5293.218128912417C 6335.668585228207 5292.806971017681 6336.1475325966285 5292.445918386102 6336.630901017681 5292.081918386102C 6336.779743122944 5291.96402364926 6336.928585228207 5291.844655228208 6337.081848386102 5291.723813122944C 6337.431111543997 5291.473286807154 6337.431111543997 5291.473286807154 6337.725848386102 5291.473286807154C 6337.737637859786 5291.349497333471 6337.737637859786 5291.349497333471 6337.74795364926 5291.222760491365C 6337.821637859786 5290.365076280839 6337.895322070312 5289.507392070313 6337.970479965049 5288.648234175575C 6337.998479965049 5288.328444701891 6338.025006280839 5288.007181543997 6338.053006280838 5287.687392070313C 6338.092795754523 5287.226128912418 6338.132585228207 5286.766339438734 6338.172374701891 5286.306549965049C 6338.191532596628 5286.091392070312 6338.191532596628 5286.091392070312 6338.209216807155 5285.870339438734C 6338.226901017681 5285.671392070312 6338.226901017681 5285.671392070312 6338.244585228207 5285.4680236492595C 6338.254901017681 5285.350128912418 6338.2652168071545 5285.232234175575 6338.275532596628 5285.111392070313C 6338.3153220703125 5284.841707859786 6338.3153220703125 5284.841707859786 6338.462690491365 5284.694339438734C 6338.735322070313 5284.660444701892 6339.009427333471 5284.633918386102 6339.283532596628 5284.611813122944C 6339.432374701892 5284.60002364926 6339.581216807154 5284.586760491366 6339.734479965049 5284.574971017681C 6339.908374701891 5284.561707859786 6339.908374701891 5284.561707859786 6340.083743122944 5284.546971017681C 6340.083743122944 5284.401076280838 6340.083743122944 5284.2551815439965 6340.083743122944 5284.104865754523C 6339.840585228208 5284.104865754523 6339.5974273334705 5284.104865754523 6339.346901017681 5284.104865754523C 6339.298269438734 5283.958971017681 6339.249637859786 5283.813076280839 6339.199532596628 5283.662760491365C 6339.710901017681 5283.590549965049 6339.710901017681 5283.590549965049 6340.231111543997 5283.515392070312C 6340.231111543997 5283.272234175575 6340.231111543997 5283.029076280839 6340.231111543997 5282.778549965049C 6340.064585228207 5282.760865754523 6339.898058912418 5282.743181543997 6339.725637859786 5282.72402364926C 6339.551743122944 5282.693076280839 6339.379322070313 5282.663602596628 6339.199532596628 5282.631181543997C 6339.150901017681 5282.533918386102 6339.102269438734 5282.436655228207 6339.052164175576 5282.336444701891C 6339.563532596629 5282.264234175575 6339.563532596629 5282.264234175575 6340.083743122944 5282.189076280839C 6340.083743122944 5282.091813122944 6340.083743122944 5281.994549965049 6340.083743122944 5281.894339438733C 6339.890690491365 5281.895813122944 6339.6976378597865 5281.897286807155 6339.498690491365 5281.897286807155C 6337.674269438734 5281.906128912417 6335.851322070313 5281.91349733347 6334.026901017681 5281.917918386102C 6333.089637859786 5281.919392070313 6332.152374701891 5281.923813122944 6331.2151115439965 5281.928234175576C 6330.3102694387335 5281.932655228207 6329.4054273334705 5281.935602596628 6328.5005852282075 5281.9370762808385C 6328.155743122944 5281.9370762808385 6327.810901017681 5281.93854996505 6327.466058912418 5281.941497333471C 6326.981216807155 5281.944444701891 6326.497848386102 5281.945918386102 6326.01447996505 5281.944444701891C 6325.871532596629 5281.945918386102 6325.730058912418 5281.948865754523 6325.582690491365 5281.950339438734C 6324.322690491365 5281.944444701891 6323.463532596628 5281.63202364926 6322.546901017681 5280.715392070312C 6322.06795364926 5279.9004447018915 6321.994269438734 5279.1341289124175 6322.104795754523 5278.2101289124175C 6322.4054273334705 5277.3745499650495 6322.913848386102 5276.8278131229445 6323.656585228207 5276.3503394387335C 6324.344795754523 5276.077707859787 6324.941637859786 5276.089497333471 6325.674058912417 5276.099813122944C 6325.898058912418 5276.099813122944 6325.898058912418 5276.099813122944 6326.126479965049 5276.099813122944C 6326.618690491365 5276.101286807155 6327.110901017681 5276.105707859786 6327.603111543996 5276.110128912418C 6327.945006280839 5276.110128912418 6328.286901017681 5276.1116025966285 6328.628795754523 5276.113076280839C 6329.527743122944 5276.114549965049 6330.426690491365 5276.120444701892 6331.325637859786 5276.126339438733C 6332.7669010176805 5276.135181543997 6334.208164175576 5276.139602596629 6335.650901017681 5276.14402364926C 6336.154901017681 5276.146971017681 6336.658901017681 5276.149918386102 6337.164374701892 5276.152865754523C 6337.470901017681 5276.154339438734 6337.778901017681 5276.155813122944 6338.085427333471 5276.157286807154C 6338.226901017681 5276.158760491365 6338.368374701891 5276.160234175576 6338.514269438733 5276.160234175576C 6338.641006280839 5276.1617078597865 6338.769216807154 5276.1617078597865 6338.901848386102 5276.1617078597865C 6339.0123747018915 5276.163181543997 6339.124374701892 5276.163181543997 6339.2393220703125 5276.164655228207C 6339.616585228207 5276.139602596629 6339.621006280839 5276.001076280839 6340.051322070312 5275.983392070312Z"></path><path fill="#ffffff" stroke="none" fill-opacity="1" stroke-width="1" stroke-opacity="1" id="tSvgac0156caae" title="Path 2" d="M 6320.4843325966285 5283.073806280839 C 6321.86222733347 5284.361806280839 6322.986648386102 5286.087490491365 6323.431701017681 5287.936964175576C 6323.458227333471 5288.044543122944 6323.48475364926 5288.1521220703125 6323.51275364926 5288.262648386102C 6323.938648386102 5290.907911543996 6323.334437859786 5293.267279965049 6321.794437859786 5295.449806280839C 6320.546227333471 5297.0502273334705 6318.942858912418 5298.078858912418 6317.2422273334705 5299.1369641755755C 6317.394016807155 5299.198858912418 6317.544332596628 5299.26222733347 6317.7005431229445 5299.327069438734C 6320.696543122944 5300.585595754523 6323.044122070312 5302.218437859786 6324.315911543997 5305.326437859786C 6325.291490491365 5308.124964175576 6325.05422733347 5311.316964175576 6323.832543122944 5313.991701017681C 6322.425174701892 5316.751911543996 6320.015701017681 5318.6470694387335 6317.118437859786 5319.647701017681C 6315.008122070312 5320.324122070313 6312.8182273334705 5320.577595754523 6310.610648386102 5320.6527536492595C 6310.383701017681 5320.661595754523 6310.383701017681 5320.661595754523 6310.152332596628 5320.670437859786C 6306.09822733347 5320.755911543996 6301.151069438733 5320.194437859786 6298.072543122944 5317.275069438733C 6296.566437859786 5315.646648386102 6294.547490491365 5312.9483325966285 6294.547490491365 5310.631701017681C 6295.528964175575 5310.316332596628 6296.508964175576 5310.000964175576 6297.490437859787 5309.6870694387335C 6297.824964175576 5309.5794904913655 6298.158016807155 5309.473385228207 6298.492543122944 5309.365806280839C 6298.971490491365 5309.211069438734 6299.450437859787 5309.057806280839 6299.929385228207 5308.904543122944C 6300.079701017681 5308.855911543997 6300.230016807154 5308.80875364926 6300.384753649259 5308.758648386102C 6300.523279965049 5308.714437859786 6300.661806280838 5308.67022733347 6300.8047536492595 5308.6245431229445C 6300.927069438733 5308.58475364926 6301.049385228207 5308.544964175576 6301.176122070312 5308.5051747018915C 6301.473806280839 5308.421174701892 6301.473806280839 5308.421174701892 6301.768543122944 5308.421174701892C 6301.84222733347 5308.596543122944 6301.914437859786 5308.773385228207 6301.989595754523 5308.954648386102C 6302.748543122944 5310.745174701891 6303.463279965049 5312.395701017681 6305.305385228207 5313.284332596629C 6308.08327996505 5314.279069438733 6311.281174701891 5314.417595754523 6314.0001220703125 5313.1369641755755C 6315.1746483861025 5312.497385228207 6315.890858912418 5311.4274904913655 6316.383069438733 5310.201385228207C 6316.761806280839 5308.792543122944 6316.5451747018915 5307.495701017681 6315.915911543997 5306.210648386102C 6315.815701017681 5305.966016807155 6315.716964175575 5305.719911543997 6315.6211747018915 5305.473806280839C 6315.523911543996 5305.473806280839 6315.426648386102 5305.473806280839 6315.326437859786 5305.473806280839C 6315.326437859786 5305.376543122944 6315.326437859786 5305.27927996505 6315.326437859786 5305.179069438734C 6315.208543122944 5305.1245431229445 6315.208543122944 5305.1245431229445 6315.087701017681 5305.068543122944C 6314.736964175576 5304.884332596628 6314.736964175576 5304.884332596628 6314.359701017681 5304.607279965049C 6312.264122070313 5303.204332596629 6309.480332596629 5303.351701017681 6307.073806280839 5303.263279965049C 6307.073806280839 5301.318016807155 6307.073806280839 5299.37275364926 6307.073806280839 5297.368543122944C 6307.5969641755755 5297.331701017681 6308.120122070312 5297.294858912418 6308.658016807155 5297.2580168071545C 6309.93275364926 5297.154858912418 6311.055701017681 5297.010437859786 6312.231701017681 5296.4843325966285C 6312.34075364926 5296.440122070312 6312.449806280839 5296.395911543997 6312.561806280839 5296.351701017681C 6313.756964175575 5295.825595754523 6314.490858912418 5294.945806280839 6315.0317010176805 5293.774227333471C 6315.678648386102 5292.083911543997 6315.618227333471 5290.474648386102 6314.884332596628 5288.821174701891C 6313.986858912418 5287.447701017681 6312.7946483861015 5286.794858912418 6311.228122070313 5286.417595754523C 6309.139911543997 5286.0727536492595 6307.137174701891 5286.279069438733 6305.374648386102 5287.494858912418C 6304.214858912418 5288.433595754523 6303.665174701891 5289.680332596628 6303.094858912418 5291.0317010176805C 6302.195911543997 5290.935911543997 6301.335279965049 5290.764964175575 6300.456964175576 5290.55275364926C 6300.255069438734 5290.504122070312 6300.255069438734 5290.504122070312 6300.04875364926 5290.455490491365C 6299.764332596628 5290.387701017681 6299.481385228207 5290.319911543997 6299.198437859786 5290.252122070313C 6298.76370101768 5290.147490491365 6298.3289641755755 5290.044332596628 6297.894227333471 5289.939701017681C 6297.618648386102 5289.874858912418 6297.343069438733 5289.808543122944 6297.067490491365 5289.7422273334705C 6296.937806280839 5289.7112799650495 6296.8081220703125 5289.680332596628 6296.672543122944 5289.647911543997C 6296.553174701891 5289.619911543997 6296.433806280839 5289.590437859786 6296.310016807154 5289.5609641755755C 6296.150858912418 5289.522648386102 6296.150858912418 5289.522648386102 6295.98875364926 5289.482858912418C 6295.7264378597865 5289.410648386102 6295.7264378597865 5289.410648386102 6295.431701017681 5289.263279965049C 6295.673385228207 5286.752122070313 6297.369595754523 5284.304332596628 6299.263279965049 5282.71422733347C 6299.555069438734 5282.485806280839 6299.8498062808385 5282.261806280839 6300.147490491365 5282.042227333471C 6300.262437859787 5281.958227333471 6300.375911543997 5281.87275364926 6300.493806280839 5281.785806280839C 6305.908122070313 5278.185595754523 6315.582858912418 5278.859069438733 6320.4843325966285 5283.073806280839Z"></path><path fill="#ffffff" stroke="none" fill-opacity="1" stroke-width="1" stroke-opacity="1" id="tSvg137ef2ed363" title="Path 3" d="M 6258.147490491365 5280.126437859786 C 6260.773595754523 5280.126437859786 6263.399701017681 5280.126437859786 6266.1053852282075 5280.126437859786C 6266.1127536492595 5281.127069438734 6266.120122070312 5282.127701017681 6266.127490491365 5283.159279965049C 6266.1319115439965 5283.795911543996 6266.137806280839 5284.4325431229445 6266.1437010176805 5285.069174701892C 6266.152543122944 5286.078648386102 6266.161385228207 5287.086648386102 6266.16727996505 5288.096122070312C 6266.173174701891 5288.909595754523 6266.180543122944 5289.724543122944 6266.187911543997 5290.538016807154C 6266.190858912418 5290.8474904913655 6266.192332596628 5291.156964175576 6266.1938062808385 5291.466437859786C 6266.098016807155 5294.723279965049 6266.098016807155 5294.723279965049 6267.548122070312 5297.501174701892C 6268.964332596628 5298.836332596628 6270.70327996505 5299.179701017681 6272.589595754523 5299.284332596629C 6272.728122070313 5299.291701017681 6272.866648386102 5299.300543122944 6273.011069438733 5299.307911543997C 6275.766858912418 5299.3874904913655 6278.646437859787 5298.880543122944 6280.989595754523 5297.368543122944C 6281.284332596629 5297.073806280839 6281.162016807155 5296.481385228207 6281.164964175576 5296.077595754523C 6281.166437859786 5295.95675364926 6281.1679115439965 5295.8373852282075 6281.1679115439965 5295.713595754523C 6281.170858912417 5295.451279965049 6281.173806280839 5295.187490491365 6281.175279965049 5294.925174701892C 6281.17822733347 5294.506648386102 6281.182648386102 5294.086648386102 6281.1870694387335 5293.666648386102C 6281.195911543997 5292.770648386102 6281.20327996505 5291.873174701892 6281.210648386102 5290.975701017681C 6281.220964175575 5289.808543122944 6281.231279965049 5288.641385228208 6281.243069438734 5287.47275364926C 6281.244543122944 5287.331279965049 6281.246016807155 5287.191279965049 6281.247490491365 5287.045385228207C 6281.269595754523 5284.78475364926 6281.332964175575 5282.531490491365 6281.431701017681 5280.2738062808385C 6284.057806280839 5280.2738062808385 6286.683911543997 5280.2738062808385 6289.389595754523 5280.2738062808385C 6289.3689641755755 5284.037595754523 6289.346858912418 5287.801385228207 6289.32475364926 5291.565174701891C 6289.32475364926 5291.705174701891 6289.32327996505 5291.843701017681 6289.32327996505 5291.9866483861015C 6289.280543122944 5299.251911543996 6289.234858912418 5306.517174701891 6289.159701017681 5313.782437859786C 6289.158227333471 5313.940122070312 6289.15675364926 5314.099279965049 6289.153806280839 5314.262858912418C 6289.136122070313 5316.097595754523 6289.115490491366 5317.933806280839 6289.094858912418 5319.768543122944C 6288.3874904913655 5319.772964175576 6287.681595754523 5319.774437859786 6286.9742273334705 5319.775911543997C 6286.734016807154 5319.777385228207 6286.495279965049 5319.7788589124175 6286.256543122944 5319.780332596628C 6284.544122070312 5319.789174701891 6282.844964175576 5319.734648386102 6281.1369641755755 5319.6211747018915C 6281.134016807155 5317.804122070313 6281.131069438734 5315.988543122944 6281.129595754523 5314.171490491365C 6281.128122070312 5313.327069438734 6281.128122070312 5312.484122070313 6281.125174701891 5311.641174701892C 6281.123701017681 5310.82475364926 6281.123701017681 5310.009806280838 6281.123701017681 5309.194858912418C 6281.122227333471 5308.885385228207 6281.122227333471 5308.575911543997 6281.12075364926 5308.264964175575C 6281.113385228207 5305.145174701892 6281.113385228207 5305.145174701892 6281.284332596629 5303.85275364926C 6281.194437859786 5303.888122070312 6281.106016807154 5303.923490491365 6281.013174701891 5303.958858912418C 6276.070437859787 5305.899701017681 6270.952332596628 5306.646858912418 6265.810648386102 5305.0317010176805C 6265.651490491365 5304.981595754523 6265.493806280839 5304.932964175576 6265.33022733347 5304.881385228207C 6262.7630694387335 5303.988332596628 6260.62327996505 5302.433595754523 6259.326437859786 5300.021174701891C 6258.128332596628 5297.471701017681 6258.085595754523 5294.9900168071545 6258.10475364926 5292.229806280839C 6258.10475364926 5291.8790694387335 6258.10622733347 5291.528332596628 6258.10622733347 5291.179069438734C 6258.1077010176805 5290.263911543997 6258.112122070313 5289.34875364926 6258.116543122944 5288.433595754523C 6258.122437859786 5287.331279965049 6258.123911543997 5286.230437859786 6258.126858912417 5285.128122070312C 6258.1312799650495 5283.461385228207 6258.140122070313 5281.793174701891 6258.147490491365 5280.126437859786Z"></path><path fill="#ffffff" stroke="none" fill-opacity="1" stroke-width="1" stroke-opacity="1" id="tSvg138b3ae7950" title="Path 4" d="M 6373.979069438734 5280.8632799650495 C 6375.078437859786 5280.858858912417 6376.1763325966285 5280.857385228207 6377.275701017681 5280.855911543997C 6377.650016807154 5280.854437859786 6378.022858912418 5280.852964175576 6378.397174701891 5280.851490491365C 6378.935069438734 5280.850016807154 6379.471490491365 5280.850016807154 6380.009385228207 5280.848543122944C 6380.175911543996 5280.848543122944 6380.3424378597865 5280.847069438733 6380.514858912418 5280.847069438733C 6380.749174701891 5280.847069438733 6380.749174701891 5280.847069438733 6380.9893852282075 5280.847069438733C 6381.194227333471 5280.845595754523 6381.194227333471 5280.845595754523 6381.4049641755755 5280.845595754523C 6381.796964175575 5280.8632799650495 6382.147701017681 5280.904543122944 6382.526437859786 5281.010648386102C 6382.735701017681 5281.337806280839 6382.735701017681 5281.337806280839 6382.90222733347 5281.779911543997C 6382.967069438733 5281.947911543996 6383.033385228207 5282.115911543997 6383.099701017681 5282.288332596629C 6383.170437859786 5282.476964175576 6383.239701017681 5282.664122070312 6383.308964175576 5282.85275364926C 6383.385595754523 5283.0502273334705 6383.46075364926 5283.247701017681 6383.537385228207 5283.445174701891C 6383.703911543997 5283.875490491365 6383.867490491365 5284.307279965049 6384.0310694387335 5284.739069438733C 6384.30222733347 5285.452332596628 6384.57927996505 5286.162648386102 6384.856332596628 5286.872964175575C 6384.928543122944 5287.057174701891 6384.928543122944 5287.057174701891 6385.002227333471 5287.244332596629C 6385.099490491365 5287.494858912418 6385.198227333471 5287.745385228207 6385.296964175575 5287.997385228207C 6385.498858912418 5288.513174701891 6385.70075364926 5289.030437859787 6385.901174701891 5289.547701017681C 6386.509806280839 5291.109806280839 6387.1228589124175 5292.668964175576 6387.740332596628 5294.228122070313C 6388.561174701891 5296.304543122944 6389.376122070313 5298.383911543997 6390.189595754523 5300.463279965049C 6390.997174701892 5302.527911543997 6391.806227333471 5304.591069438734 6392.6211747018915 5306.6527536492595C 6393.562858912418 5309.03422733347 6394.497174701892 5311.417174701892 6395.428543122944 5313.801595754523C 6395.9207536492595 5315.060122070313 6396.411490491365 5316.317174701891 6396.908122070313 5317.57422733347C 6396.946437859786 5317.6729641755755 6396.98622733347 5317.773174701892 6397.0260168071545 5317.874858912418C 6397.2028589124175 5318.324332596629 6397.381174701892 5318.7738062808385 6397.558016807155 5319.223279965049C 6397.618437859786 5319.373595754523 6397.677385228208 5319.523911543996 6397.73927996505 5319.678648386102C 6397.789385228207 5319.808332596628 6397.840964175575 5319.936543122944 6397.894016807155 5320.070648386102C 6398.0001220703125 5320.358016807155 6398.0001220703125 5320.358016807155 6398.0001220703125 5320.505385228207C 6397.07022733347 5320.509806280839 6396.138858912418 5320.51127996505 6395.208964175576 5320.51275364926C 6394.893595754523 5320.51422733347 6394.578227333471 5320.515701017681 6394.2613852282075 5320.517174701891C 6392.6020168071545 5320.523069438734 6390.958858912418 5320.524543122944 6389.305385228207 5320.358016807155C 6388.938437859786 5319.358858912417 6388.571490491366 5318.361174701891 6388.204543122944 5317.362016807155C 6388.07927996505 5317.023069438734 6387.955490491365 5316.684122070313 6387.83022733347 5316.343701017681C 6387.6504378597865 5315.854437859786 6387.470648386102 5315.365174701891 6387.290858912418 5314.874437859786C 6387.236332596628 5314.725595754523 6387.180332596628 5314.575279965049 6387.124332596628 5314.422016807154C 6387.071279965049 5314.277595754523 6387.01822733347 5314.133174701891 6386.963701017681 5313.9843325966285C 6386.918016807154 5313.859069438733 6386.870858912418 5313.7338062808385 6386.823701017681 5313.605595754523C 6386.57022733347 5312.9100168071545 6386.31675364926 5312.2129641755755 6386.063279965049 5311.5159115439965C 6380.811069438733 5311.46727996505 6375.558858912418 5311.418648386102 6370.147490491365 5311.368543122944C 6370.001595754523 5311.8548589124175 6369.855701017681 5312.341174701892 6369.705385228207 5312.84222733347C 6369.6110694387335 5313.113385228207 6369.51527996505 5313.384543122944 6369.413595754523 5313.654227333471C 6369.362016807155 5313.79422733347 6369.308964175576 5313.935701017681 6369.254437859786 5314.080122070312C 6369.199911543997 5314.226016807154 6369.143911543997 5314.371911543997 6369.086437859786 5314.523701017681C 6369.028964175575 5314.676964175575 6368.971490491365 5314.831701017681 6368.911069438734 5314.990858912418C 6368.79022733347 5315.313595754523 6368.6679115439965 5315.636332596629 6368.547069438733 5315.959069438733C 6368.3599115439965 5316.455701017681 6368.17275364926 5316.950858912418 6367.987069438734 5317.447490491365C 6367.869174701891 5317.762858912418 6367.749806280839 5318.07675364926 6367.6319115439965 5318.392122070312C 6367.575911543997 5318.5394904913655 6367.519911543996 5318.688332596628 6367.462437859786 5318.841595754523C 6367.410858912418 5318.978648386102 6367.35927996505 5319.115701017681 6367.306227333471 5319.257174701891C 6367.260543122944 5319.376543122944 6367.214858912418 5319.497385228207 6367.167701017681 5319.6211747018915C 6367.05275364926 5319.915911543997 6367.05275364926 5319.915911543997 6366.905385228207 5320.210648386102C 6364.133385228207 5320.210648386102 6361.361385228207 5320.210648386102 6358.505385228207 5320.210648386102C 6359.002016807155 5318.555701017681 6359.002016807155 5318.555701017681 6359.252543122944 5317.960332596628C 6359.310016807154 5317.821806280839 6359.367490491365 5317.681806280839 6359.427911543997 5317.537385228207C 6359.491279965049 5317.387069438733 6359.554648386102 5317.23527996505 6359.6194904913655 5317.079069438733C 6360.38875364926 5315.217806280839 6361.125595754523 5313.346227333471 6361.858016807155 5311.470227333471C 6361.972964175576 5311.175490491365 6362.087911543997 5310.8807536492595 6362.2028589124175 5310.587490491365C 6362.260332596628 5310.441595754523 6362.316332596628 5310.295701017681 6362.375279965049 5310.1453852282075C 6362.43275364926 5309.999490491366 6362.48875364926 5309.853595754523 6362.547701017681 5309.70327996505C 6362.633174701891 5309.485174701891 6362.633174701891 5309.485174701891 6362.720122070313 5309.262648386102C 6363.271279965049 5307.850858912418 6363.825385228207 5306.440543122944 6364.3824378597865 5305.0317010176805C 6364.428122070312 5304.915279965049 6364.473806280839 5304.800332596628 6364.5209641755755 5304.680964175575C 6365.164964175576 5303.046648386102 6365.816332596628 5301.41675364926 6366.4691747018915 5299.786858912417C 6367.206016807155 5297.947701017681 6367.935490491365 5296.105595754523 6368.664964175576 5294.264964175575C 6368.729806280839 5294.099911543996 6368.7946483861015 5293.934858912417 6368.862437859786 5293.765385228207C 6369.199911543997 5292.912122070313 6369.537385228207 5292.058858912418 6369.876332596628 5291.2055957545235C 6370.514437859786 5289.5919115439965 6371.1554904913655 5287.97675364926 6371.795069438734 5286.3615957545235C 6371.994016807154 5285.856122070312 6372.194437859786 5285.352122070312 6372.3948589124175 5284.846648386102C 6372.517174701891 5284.535701017681 6372.640964175575 5284.22622733347 6372.763279965049 5283.915279965049C 6372.81927996505 5283.77675364926 6372.873806280839 5283.63822733347 6372.929806280839 5283.495279965049C 6373.277595754523 5282.616964175576 6373.628332596629 5281.740122070312 6373.979069438734 5280.8632799650495ZM 6378.1053852282075 5290.147490491365 C 6377.378858912418 5291.821595754523 6376.752543122944 5293.532543122944 6376.115911543997 5295.2405431229445C 6375.998016807154 5295.555911543996 6375.881595754523 5295.869806280839 6375.76370101768 5296.185174701892C 6375.585385228207 5296.659701017681 6375.408543122944 5297.135701017681 6375.23022733347 5297.611701017681C 6374.907490491365 5298.47675364926 6374.58475364926 5299.340332596628 6374.257595754523 5300.203911543997C 6374.077806280839 5300.682858912418 6373.898016807155 5301.161806280838 6373.71675364926 5301.64075364926C 6373.63422733347 5301.861806280839 6373.551701017681 5302.081385228207 6373.467701017681 5302.302437859787C 6373.35275364926 5302.604543122944 6373.23927996505 5302.908122070313 6373.125806280839 5303.21022733347C 6373.062437859786 5303.37822733347 6372.999069438733 5303.546227333471 6372.9342273334705 5303.718648386102C 6372.770648386102 5304.166648386102 6372.770648386102 5304.166648386102 6372.800122070313 5304.736964175576C 6376.350227333471 5304.736964175576 6379.900332596629 5304.736964175576 6383.558016807155 5304.736964175576C 6382.575069438733 5301.967911543997 6381.590648386102 5299.20327996505 6380.573806280839 5296.447490491365C 6380.461806280839 5296.143911543997 6380.3498062808385 5295.840332596628 6380.23927996505 5295.5367536492595C 6379.972543122944 5294.8131747018915 6379.704332596628 5294.088122070312 6379.4375957545235 5293.363069438734C 6379.1870694387335 5292.685174701892 6378.938016807155 5292.00727996505 6378.687490491365 5291.329385228208C 6378.603490491365 5291.098016807155 6378.518016807155 5290.868122070313 6378.4325431229445 5290.63675364926C 6378.373595754523 5290.476122070312 6378.314648386102 5290.314016807155 6378.25275364926 5290.147490491365C 6378.204122070312 5290.147490491365 6378.1554904913655 5290.147490491365 6378.1053852282075 5290.147490491365Z"></path><path fill="#ffffff" stroke="none" fill-opacity="1" stroke-width="1" stroke-opacity="1" id="tSvg1e2762e4d1" title="Path 5" d="M 6341.512037859786 5307.325195754523 C 6341.68887996505 5307.323722070312 6341.865722070313 5307.322248386102 6342.046985228208 5307.320774701891C 6346.17035364926 5307.360564175576 6349.5391957545235 5309.267511543997 6352.432037859786 5312.058669438734C 6353.983827333471 5313.67235364926 6354.9874062808385 5315.602879965049 6355.705090491365 5317.705827333471C 6355.766985228207 5317.876774701892 6355.827406280839 5318.047722070312 6355.890774701891 5318.223090491365C 6356.7086694387335 5320.905195754523 6356.583406280839 5324.044143122944 6355.705090491365 5326.695301017681C 6355.619616807155 5326.951722070313 6355.619616807155 5326.951722070313 6355.532669438733 5327.214037859786C 6354.15035364926 5331.050037859786 6351.370985228207 5333.957616807154 6347.733932596629 5335.739301017681C 6346.833511543997 5336.160774701892 6345.913932596628 5336.482037859786 6344.947195754523 5336.71635364926C 6344.844037859786 5336.741406280838 6344.739406280839 5336.767932596628 6344.63182733347 5336.794458912418C 6343.592879965049 5337.030248386102 6342.583406280839 5337.061195754523 6341.520879965049 5337.056774701891C 6341.3455115439965 5337.056774701891 6341.168669438734 5337.055301017681 6340.985932596628 5337.055301017681C 6339.742143122944 5337.037616807154 6338.623616807155 5336.949195754523 6337.431406280839 5336.568985228208C 6337.26635364926 5336.51887996505 6337.099827333471 5336.468774701892 6336.928879965049 5336.417195754523C 6334.715406280839 5335.6906694387335 6332.9440378597865 5334.604564175575 6331.241932596628 5333.032143122944C 6331.07982733347 5332.886248386102 6331.07982733347 5332.886248386102 6330.913301017681 5332.738879965049C 6328.562774701892 5330.543090491366 6326.834143122944 5327.107932596628 6326.6484589124175 5323.883511543997C 6326.592458912418 5320.9435115439965 6326.705932596628 5318.470669438733 6327.99982733347 5315.790037859786C 6328.052879965049 5315.679511543996 6328.104458912418 5315.567511543997 6328.158985228208 5315.454037859786C 6330.0718273334705 5311.7300378597865 6333.453932596628 5309.130458912417 6337.359195754523 5307.804143122944C 6338.7311957545235 5307.391511543997 6340.085511543996 5307.3325641755755 6341.512037859786 5307.325195754523ZM 6340.231406280839 5309.6005641755755 C 6339.851195754523 5310.103090491365 6339.883616807155 5310.608564175575 6339.936669438734 5311.2216168071545C 6340.119406280839 5311.632774701891 6340.274143122944 5311.875932596628 6340.62782733347 5312.151511543997C 6341.318985228208 5312.357827333471 6341.918774701891 5312.351932596628 6342.571616807155 5312.068985228208C 6343.080037859786 5311.650458912418 6343.162564175575 5311.37635364926 6343.234774701891 5310.723511543997C 6343.168458912418 5310.086879965049 6342.997511543997 5309.792143122944 6342.589301017681 5309.30582733347C 6341.756669438733 5308.694248386102 6340.969722070313 5308.99635364926 6340.231406280839 5309.6005641755755ZM 6331.978774701892 5312.990037859786 C 6331.723827333471 5313.499932596628 6331.7621431229445 5314.052564175576 6331.831406280839 5314.611090491365C 6332.096669438733 5315.070879965049 6332.31035364926 5315.281616807155 6332.761301017681 5315.549827333471C 6333.297722070312 5315.675090491365 6333.657301017681 5315.636774701891 6334.189301017681 5315.4953010176805C 6334.628458912418 5315.190248386102 6334.867195754523 5314.958879965049 6335.020458912418 5314.440143122944C 6335.107406280838 5313.884564175576 6335.1118273334705 5313.526458912418 6334.898143122944 5312.998879965049C 6334.55035364926 5312.602458912418 6334.24382733347 5312.431511543997 6333.720669438733 5312.350458912418C 6332.949932596628 5312.337195754523 6332.53435364926 5312.399090491365 6331.978774701892 5312.990037859786ZM 6348.189301017681 5312.990037859786 C 6347.907827333471 5313.442458912417 6347.894564175575 5313.706248386102 6347.904879965049 5314.242669438733C 6348.068458912418 5314.855722070312 6348.2954062808385 5315.094458912417 6348.778774701892 5315.4953010176805C 6349.237090491365 5315.723722070313 6349.599616807154 5315.683932596628 6350.105090491365 5315.642669438734C 6350.579616807155 5315.427511543997 6350.883195754523 5315.259511543997 6351.124879965049 5314.787932596629C 6351.307616807155 5314.214669438734 6351.292879965049 5313.902248386102 6351.12782733347 5313.311301017681C 6350.81835364926 5312.802879965049 6350.657722070313 5312.614248386102 6350.105090491365 5312.400564175576C 6349.273932596629 5312.294458912418 6348.824458912418 5312.443301017681 6348.189301017681 5312.990037859786ZM 6335.214985228207 5317.472985228207 C 6333.890143122944 5319.253195754523 6333.565932596628 5321.2750904913655 6333.747195754523 5323.453195754523C 6334.1067747018915 5325.536985228207 6335.1619325966285 5327.334879965049 6336.897932596628 5328.563932596629C 6338.944879965049 5329.847511543997 6341.143616807155 5330.299932596628 6343.519195754523 5329.770879965049C 6345.521932596628 5329.18435364926 6347.210774701892 5327.933195754523 6348.262985228207 5326.123511543997C 6349.303406280838 5324.210669438734 6349.574564175576 5322.038458912418 6348.982143122944 5319.934037859786C 6348.229090491365 5317.807511543997 6346.873301017681 5316.1731957545235 6344.869090491366 5315.146037859786C 6341.436879965049 5313.53235364926 6337.624458912418 5314.625827333471 6335.214985228207 5317.472985228207ZM 6328.441932596628 5321.242669438733 C 6328.241511543996 5321.866037859786 6328.223827333471 5322.375932596628 6328.452248386102 5322.991932596628C 6328.817722070313 5323.394248386102 6329.106564175576 5323.5696168071545 6329.620879965049 5323.747932596628C 6330.403406280839 5323.733195754523 6330.829301017681 5323.55487996505 6331.389301017681 5323.011090491365C 6331.644248386102 5322.501195754523 6331.60887996505 5321.947090491365 6331.536669438734 5321.390037859786C 6331.225722070312 5320.874248386102 6331.07835364926 5320.695932596628 6330.505090491365 5320.505827333471C 6329.561932596628 5320.412985228208 6329.087406280839 5320.471932596628 6328.441932596628 5321.242669438733ZM 6351.6067747018915 5321.186669438734 C 6351.332669438733 5321.736353649259 6351.332669438733 5322.262458912418 6351.431406280839 5322.863722070312C 6351.696669438734 5323.286669438734 6351.872037859786 5323.525406280839 6352.315616807155 5323.747932596628C 6352.980248386102 5323.8275115439965 6353.487195754523 5323.83635364926 6354.0751957545235 5323.498879965049C 6354.554143122944 5322.962458912418 6354.677932596628 5322.627932596628 6354.664669438734 5321.90582733347C 6354.495195754524 5321.270669438733 6354.3213010176805 5321.03782733347 6353.789301017681 5320.653195754523C 6352.86382733347 5320.349616807154 6352.306774701891 5320.56035364926 6351.6067747018915 5321.186669438734ZM 6331.978774701892 5329.347932596628 C 6331.6427747018915 5329.757616807155 6331.685511543997 5329.9727747018915 6331.703195754523 5330.518037859786C 6331.793090491366 5331.097195754523 6331.994985228207 5331.439090491365 6332.42087996505 5331.853195754523C 6333.091406280839 5332.075722070313 6333.65582733347 5332.106669438734 6334.308669438734 5331.81635364926C 6334.730143122944 5331.47887996505 6334.890774701891 5331.178248386102 6334.9806694387335 5330.646248386102C 6334.99982733347 5329.993406280839 6334.99687996505 5329.731090491365 6334.57687996505 5329.200564175576C 6333.663195754523 5328.503511543997 6332.854143122944 5328.615511543997 6331.978774701892 5329.347932596628ZM 6348.189301017681 5329.347932596628 C 6347.9063536492595 5329.804774701892 6347.894564175575 5330.059722070313 6347.913722070312 5330.6005641755755C 6348.053722070313 5331.162037859786 6348.230564175576 5331.440564175576 6348.631406280839 5331.853195754523C 6349.105932596628 5332.088985228207 6349.592248386102 5332.0713010176805 6350.105090491365 5332.000564175576C 6350.8021431229445 5331.640985228208 6350.8021431229445 5331.640985228208 6351.136669438733 5330.968985228207C 6351.204458912418 5329.931511543997 6351.204458912418 5329.931511543997 6350.694564175576 5329.053195754523C 6349.757301017681 5328.521195754523 6348.99687996505 5328.668564175576 6348.189301017681 5329.347932596628ZM 6340.084037859786 5332.7374062808385 C 6339.829090491365 5333.247301017681 6339.865932596628 5333.799932596628 6339.936669438734 5334.3584589124175C 6340.238774701891 5334.863932596629 6340.5408799650495 5335.229406280839 6341.115616807155 5335.390037859786C 6341.821511543997 5335.378248386102 6342.150143122944 5335.34435364926 6342.7278273334705 5334.939090491365C 6343.137511543997 5334.354037859786 6343.178774701892 5334.041616807154 6343.178774701892 5333.32687996505C 6342.95035364926 5332.786037859786 6342.674774701892 5332.411722070313 6342.147195754523 5332.147932596628C 6341.283616807154 5332.015301017681 6340.708879965049 5332.074248386102 6340.084037859786 5332.7374062808385Z"></path><path fill="#ffffff" stroke="none" fill-opacity="1" stroke-width="1" stroke-opacity="1" id="tSvg9e02505ea4" title="Path 6" d="M 6346.126437859786 5316.673806280839 C 6347.623701017681 5317.922016807154 6347.623701017681 5317.922016807154 6347.8948589124175 5318.736964175576C 6346.960543122944 5320.561385228208 6345.273174701892 5321.514858912418 6343.453174701892 5322.254648386102C 6341.8424378597865 5322.7630694387335 6339.979701017681 5322.487490491365 6338.463279965049 5321.831701017681C 6337.154648386102 5321.144964175575 6335.91675364926 5320.216543122944 6335.221174701892 5318.884332596628C 6335.203490491365 5318.182858912418 6335.6470694387335 5317.749595754523 6336.1053852282075 5317.263279965049C 6339.0394904913655 5314.83022733347 6342.915279965049 5314.444122070313 6346.126437859786 5316.673806280839Z"></path><defs></defs></svg> 