<?xml version="1.0" encoding="UTF-8"?> <svg xmlns="http://www.w3.org/2000/svg" xmlns:xlink="http://www.w3.org/1999/xlink" xmlns:svgjs="http://svgjs.com/svgjs" id="SvgjsSvg1001" width="288" height="288" version="1.1"><defs id="SvgjsDefs1002"></defs><g id="SvgjsG1008"><svg xmlns="http://www.w3.org/2000/svg" fill="none" viewBox="0 0 145 38" width="288" height="288"><g fill="#ffffff" clip-path="url(#a)" class="colorFF4200 svgShape"><path d="M13.963 12.046c-3.236 0-4.943 1.013-6.484 2.343H6.282l.652-9.107h16.203V0H2.347L.794 20.203H6.39c1.446-2.191 3.497-3.141 6.235-3.141 4.042 0 6.732 2.99 6.732 7.676 0 4.687-2.643 7.727-6.827 7.727-3.793 0-6.282-2.027-6.733-6.08H0C.403 32.997 4.789 38 12.719 38c7.337 0 12.469-5.333 12.469-13.427 0-7.245-4.587-12.527-11.225-12.527zm90.867 0c-3.236 0-4.943 1.013-6.484 2.343h-1.197l.652-9.107h16.203V0H93.201l-1.54 20.203h5.582c1.447-2.191 3.497-3.141 6.235-3.141 4.042 0 6.733 2.99 6.733 7.676 0 4.687-2.643 7.727-6.828 7.727-3.793 0-6.282-2.027-6.732-6.08h-5.784C91.269 32.997 95.654 38 103.585 38c7.337 0 12.469-5.333 12.469-13.427 0-7.245-4.587-12.527-11.224-12.527zm28.945 0c-3.236 0-4.943 1.013-6.484 2.343h-1.197l.652-9.107h16.203V0h-20.802l-1.541 20.203h5.583c1.446-2.191 3.497-3.141 6.235-3.141 4.042 0 6.732 2.99 6.732 7.676 0 4.687-2.643 7.727-6.827 7.727-3.793 0-6.282-2.027-6.733-6.08h-5.784C120.215 32.997 124.601 38 132.53 38c7.338 0 12.47-5.333 12.47-13.427 0-7.245-4.587-12.527-11.225-12.527zm-103.656 5.51h55.888v4.864H30.119v-4.864z"></path></g><defs><clipPath id="a"><path fill="#ffffff" d="M0 0h145v38H0z" class="colorfff svgShape"></path></clipPath></defs></svg></g></svg> 