<?xml version="1.0" encoding="UTF-8"?> <svg xmlns="http://www.w3.org/2000/svg" width="466" height="244" viewBox="0 0 466 244" fill="none"><path d="M96.2 0C64.9 0 39.5 25.4 39.5 56.7C39.5 88 64.9 113.4 96.2 113.4C111.9 113.4 126 107.1 136.3 96.8L119.8 80.3C125.8 74.3 129.5 66 129.5 56.9C129.5 47.7 125.7 39.4 119.7 33.4L136.4 16.7C126.1 6.3 111.9 0 96.2 0ZM83.7 73.7C87.3 72.7 91.2 72.2 95.4 72.2V87.7C95.2 87.7 95 87.7 94.8 87.7C92 85.9 87 81.8 83.7 73.7ZM91.2 87.3C84.4 86.2 78.4 82.8 73.8 78C76.3 76.4 79 75.2 81.9 74.2C84.6 80.7 88.3 84.8 91.2 87.3ZM83.1 72C81.7 68.1 80.8 63.4 80.8 57.7H95.5V70.3C90.9 70.4 86.8 71 83.1 72ZM80.7 55.9C80.8 50.4 81.7 45.8 83 42C86.8 43 90.9 43.6 95.4 43.7V56H80.7V55.9ZM83.6 40.3C86.9 32.1 92 27.8 94.8 26.1C95 26.1 95.2 26.1 95.4 26.1V41.9C91.1 41.8 87.2 41.3 83.6 40.3ZM81.9 39.8C78.9 38.8 76.2 37.5 73.7 35.9C78.3 31 84.4 27.6 91.3 26.4C88.2 28.9 84.5 33.1 81.9 39.8ZM81.2 41.5C79.8 45.5 79 50.3 78.9 56H65.5C65.7 48.9 68.3 42.4 72.5 37.3C75.1 39 78 40.4 81.2 41.5ZM78.9 57.8C79 63.6 79.9 68.5 81.3 72.6C78.1 73.6 75.2 75 72.6 76.7C68.3 71.6 65.6 65 65.4 57.8H78.9ZM97.2 87.7V72.2C101.4 72.3 105.3 72.8 108.9 73.7C105.6 81.7 100.6 85.9 97.9 87.6C97.6 87.7 97.4 87.7 97.2 87.7ZM101.3 87.3C104.3 84.8 108 80.7 110.6 74.3C113.5 75.2 116.2 76.5 118.7 78.1C114.2 82.8 108.1 86.1 101.3 87.3ZM109.5 72C105.7 71 101.6 70.4 97.2 70.4V57.8H111.9C111.8 63.4 110.9 68.1 109.5 72ZM97.2 55.9V43.6C101.7 43.5 105.8 43 109.6 41.9C110.9 45.7 111.8 50.3 111.8 55.8H97.2V55.9ZM97.2 41.9V26C97.4 26 97.6 26 97.8 26C100.6 27.8 105.7 32 109 40.2C105.4 41.3 101.5 41.8 97.2 41.9ZM101.3 26.4C108.2 27.5 114.3 31 118.9 35.9C116.4 37.5 113.7 38.8 110.7 39.8C108.1 33.1 104.3 28.9 101.3 26.4ZM119.9 76.7C117.3 75 114.4 73.6 111.2 72.6C112.6 68.6 113.5 63.7 113.6 57.8H127C126.9 64.9 124.3 71.5 119.9 76.7ZM120.1 37.3C124.3 42.4 126.9 48.9 127.1 56H113.7C113.6 50.3 112.7 45.5 111.4 41.5C114.5 40.4 117.5 39 120.1 37.3Z" fill="#1D3176"></path><path d="M24.7 4.80005H0V108.5H24.7V4.80005Z" fill="#1D3176"></path><path d="M177.9 4.80005H153.2V108.5H177.9V4.80005Z" fill="#1D3176"></path><path d="M261.7 24.6001V4.80005H192.6V108.5H261.7V88.8H217.3V64.1001H256.8V44.3H217.3V24.6001H261.7Z" fill="#1D3176"></path><path d="M0.599976 141.3H5.69998L13.6 155.9H13.7L21.6 141.3H26.7V167H21.6V151.1H21.5L15.2 162.1H11.9L5.79998 151H5.69998V167H0.599976V141.3Z" fill="#00A3E2"></path><path d="M48.3 159.7H35.8C36.4 161.8 38.1 163.1 40.5 163.1C42.5 163.1 43.9 162.3 44.8 161.1L47.9 164C46.4 165.9 44.1 167.4 40.2 167.4C34.8 167.4 30.9 163.7 30.9 158.2C30.9 152.8 34.6 149.1 39.9 149.1C44.9 149.1 48.4 152.9 48.4 158C48.4 158.5 48.3 159.4 48.3 159.7ZM35.9 156.3H43.7C43.2 154.4 42 153.2 39.9 153.2C37.9 153.1 36.4 154.2 35.9 156.3Z" fill="#00A3E2"></path><path d="M55.6 157.4L49.3 149.3H54.8L60.7 157.2H60.8V149.3H65.3V157.3H65.4L71.2 149.3H76.6L70.4 157.4L76.8 167H71.5L66.9 159.9L65.2 161.8V166.9H60.7V161.7L59 159.7L54.4 166.8H49.1L55.6 157.4Z" fill="#00A3E2"></path><path d="M99 171.6H95.1L94.8 167H82L81.8 171.7H77.9V163H80.7C81.5 161.3 82.1 159.6 82.4 157.7C82.9 155.1 83 152.3 83 149.3H95.9V163H99V171.6ZM91.2 162.9V153.2H87.4C87.3 155.2 87 157.1 86.6 159C86.3 160.3 85.8 161.6 85.3 162.8H91.2V162.9Z" fill="#00A3E2"></path><path d="M106.4 165.9L99.2999 149.3H104.4L108.7 160.2H108.8L112.8 149.3H117.6L108.1 174.2H103.3L106.4 165.9Z" fill="#00A3E2"></path><path d="M120.5 149.3H125.2V156.4H132V149.3H136.8V167H132V160.3H125.2V167H120.5V149.3Z" fill="#00A3E2"></path><path d="M140.5 158.2C140.5 152.8 144.1 149 148.8 149C150.9 149 152.7 149.8 154 151.3H154.1V149.3H158.8V167H154.3V164.9H154.2C153 166.5 151.2 167.4 148.9 167.4C144.1 167.3 140.5 163.6 140.5 158.2ZM154.3 158.2C154.3 155.3 152.3 153.2 149.8 153.2C147.2 153.2 145.3 155.1 145.3 158.2C145.3 161 147.1 163 149.8 163C152.3 163 154.3 161.1 154.3 158.2Z" fill="#00A3E2"></path><path d="M163.4 149.3H168.1V151.3H168.2C169.5 149.8 171.3 149 173.5 149C178.3 149 181.9 152.8 181.9 158.2C181.9 163.7 178.3 167.3 173.4 167.3C171.2 167.3 169.5 166.5 168.2 165H168.1V174.1H163.4V149.3ZM177.1 158.2C177.1 155.2 175.1 153.2 172.5 153.2C169.8 153.2 167.9 155.3 167.9 158.2C167.9 161.1 169.9 163 172.5 163C175.2 163 177.1 161 177.1 158.2Z" fill="#00A3E2"></path><path d="M184.6 158.1C184.6 152.8 188.4 149 194 149C199.5 149 203.4 152.7 203.4 158.1C203.4 163.5 199.5 167.3 194 167.3C188.4 167.3 184.6 163.4 184.6 158.1ZM198.6 158.1C198.6 155.2 196.6 153.2 194 153.2C191.2 153.2 189.4 155.3 189.4 158.1C189.4 160.9 191.3 163 194 163C196.6 163 198.6 161 198.6 158.1Z" fill="#00A3E2"></path><path d="M225.8 171.6H221.9L221.6 166.9H208.9L208.7 171.6H204.8V162.9H207.6C208.4 161.2 209 159.5 209.3 157.6C209.8 155 209.9 152.2 209.9 149.2H222.8V162.9H225.9V171.6H225.8ZM218.1 162.9V153.2H214.3C214.2 155.2 213.9 157.1 213.5 159C213.2 160.3 212.7 161.6 212.2 162.8H218.1V162.9Z" fill="#00A3E2"></path><path d="M228.9 149.3H233.6V156.4H240.4V149.3H245.2V167H240.4V160.3H233.6V167H228.9V149.3Z" fill="#00A3E2"></path><path d="M250 149.3H254.7V154.4H257.3C262.9 154.4 264.8 156.9 264.8 160.6C264.8 164.4 262.8 167 257.1 167H250V149.3ZM256.9 163.1C258.9 163.1 259.9 162.3 259.9 160.6C259.9 158.9 258.9 158.1 257 158.1H254.5V163.1H256.9ZM267.3 149.3H272V167H267.3V149.3Z" fill="#00A3E2"></path><path d="M276.8 149.3H281.5V160.6H281.6L289 149.3H293.5V167H288.8V156.2H288.7L281.4 167H276.8V149.3ZM278.9 142.1L282.8 141.4C283 142.8 283.6 144.3 285.3 144.3C286.9 144.3 287.5 142.9 287.7 141.4L291.6 142.1C290.9 145.7 288.4 147.1 285.2 147.1C282.1 147.2 279.7 145.8 278.9 142.1Z" fill="#00A3E2"></path><path d="M307.8 141.3H312.9V152.6H313L321.8 141.3H328.3L318.8 152.6L328.6 167H322.3L315.4 156.7L312.9 159.7V167.1H307.8V141.3Z" fill="#00A3E2"></path><path d="M329 158.1C329 152.8 332.8 149 338.4 149C343.9 149 347.8 152.7 347.8 158.1C347.8 163.5 343.9 167.3 338.4 167.3C332.7 167.3 329 163.4 329 158.1ZM342.9 158.1C342.9 155.2 340.9 153.2 338.3 153.2C335.5 153.2 333.7 155.3 333.7 158.1C333.7 160.9 335.6 163 338.3 163C340.9 163 342.9 161 342.9 158.1Z" fill="#00A3E2"></path><path d="M351.5 149.3H356.2V156.4H363V149.3H367.8V167H363V160.3H356.2V167H351.5V149.3Z" fill="#00A3E2"></path><path d="M372.5 149.3H385V153.3H377.3V167H372.6V149.3H372.5Z" fill="#00A3E2"></path><path d="M388.1 149.3H392.8V151.3H392.9C394.2 149.8 396 149 398.2 149C403 149 406.6 152.8 406.6 158.2C406.6 163.7 403 167.3 398.1 167.3C395.9 167.3 394.2 166.5 392.9 165H392.8V174.1H388.1V149.3ZM401.8 158.2C401.8 155.2 399.8 153.2 397.2 153.2C394.5 153.2 392.6 155.3 392.6 158.2C392.6 161.1 394.6 163 397.2 163C399.9 163 401.8 161 401.8 158.2Z" fill="#00A3E2"></path><path d="M426.7 159.7H414.3C414.9 161.8 416.6 163.1 419 163.1C421 163.1 422.4 162.3 423.3 161.1L426.4 164C424.9 165.9 422.6 167.4 418.7 167.4C413.3 167.4 409.4 163.7 409.4 158.2C409.4 152.8 413.1 149.1 418.4 149.1C423.4 149.1 426.9 152.9 426.9 158C426.9 158.5 426.8 159.4 426.7 159.7ZM414.4 156.3H422.2C421.7 154.4 420.5 153.2 418.4 153.2C416.4 153.1 414.9 154.2 414.4 156.3Z" fill="#00A3E2"></path><path d="M429.6 158.2C429.6 152.7 433.4 149 438.9 149C441.7 149 444.5 150 446.4 152.2L443.3 155.1C442.4 153.9 440.9 153.2 439.2 153.2C436.3 153.2 434.4 155.2 434.4 158.1C434.4 161 436.4 163 439.2 163C441 163 442.4 162.2 443.4 161.1L446.5 164.1C445 166 442.6 167.3 438.8 167.3C433.4 167.3 429.6 163.6 429.6 158.2Z" fill="#00A3E2"></path><path d="M448.2 158.2C448.2 152.7 452 149 457.5 149C460.3 149 463.1 150 465 152.2L461.9 155.1C461 153.9 459.5 153.2 457.8 153.2C454.9 153.2 453 155.2 453 158.1C453 161 455 163 457.8 163C459.6 163 461 162.2 462 161.1L465.1 164.1C463.6 166 461.2 167.3 457.4 167.3C452 167.3 448.2 163.6 448.2 158.2Z" fill="#00A3E2"></path><path d="M0.199951 184H16V201.7H11.3V188H4.99995V201.7H0.299952V184H0.199951Z" fill="#00A3E2"></path><path d="M20.6 184H25.3V186H25.4C26.7 184.5 28.5 183.7 30.7 183.7C35.5 183.7 39.1 187.5 39.1 192.9C39.1 198.4 35.5 202 30.6 202C28.4 202 26.7 201.2 25.4 199.7H25.3V208.8H20.6V184ZM34.3 192.9C34.3 189.9 32.3 187.9 29.7 187.9C27 187.9 25.1 190 25.1 192.9C25.1 195.8 27.1 197.7 29.7 197.7C32.4 197.8 34.3 195.8 34.3 192.9Z" fill="#00A3E2"></path><path d="M41.9 192.9C41.9 187.6 45.7 183.8 51.3 183.8C56.8 183.8 60.7 187.5 60.7 192.9C60.7 198.3 56.8 202.1 51.3 202.1C45.7 202 41.9 198.2 41.9 192.9ZM55.9 192.9C55.9 190 53.9 188 51.3 188C48.5 188 46.7 190.1 46.7 192.9C46.7 195.7 48.6 197.8 51.3 197.8C53.8 197.8 55.9 195.8 55.9 192.9Z" fill="#00A3E2"></path><path d="M64.4 184H69L74.5 194H74.6L80.1 184H84.7V201.7H80.2V191.6H80.1L76.2 198.7H73L69.1 191.7H69V201.7H64.5V184H64.4Z" fill="#00A3E2"></path><path d="M89.2999 184H93.9999V189.1H96.5999C102.2 189.1 104.1 191.6 104.1 195.3C104.1 199.1 102.1 201.7 96.3999 201.7H89.2999V184ZM96.2999 197.8C98.2999 197.8 99.2999 197 99.2999 195.3C99.2999 193.6 98.2999 192.8 96.3999 192.8H93.8999V197.8H96.2999ZM106.7 184H111.4V201.7H106.7V184Z" fill="#00A3E2"></path><path d="M116 184H120.7V197.7H126.2V184H130.9V197.7H136.4V184H141.1V201.7H116V184Z" fill="#00A3E2"></path><path d="M161.8 184V201.7H157V188H152.9C152.8 190.7 152.6 193.1 152.3 195.1C151.6 199.3 149.9 201.9 146 201.9C145.3 201.9 144.5 201.8 143.9 201.6L144.2 197.5C144.5 197.6 144.7 197.6 145.1 197.6C146.8 197.6 147.7 195.8 148 193.3C148.4 190.7 148.4 186.7 148.4 184H161.8Z" fill="#00A3E2"></path><path d="M182.9 194.4H170.5C171.1 196.5 172.8 197.8 175.2 197.8C177.2 197.8 178.6 197 179.5 195.8L182.6 198.7C181.1 200.6 178.8 202.1 174.9 202.1C169.5 202.1 165.6 198.4 165.6 192.9C165.6 187.5 169.3 183.8 174.6 183.8C179.6 183.8 183.1 187.6 183.1 192.7C183 193.3 182.9 194.1 182.9 194.4ZM170.5 191H178.3C177.8 189.1 176.6 187.9 174.5 187.9C172.5 187.9 171 189 170.5 191Z" fill="#00A3E2"></path><path d="M186.7 184H191.4V191.1H198.2V184H203V201.7H198.2V195H191.4V201.7H186.7V184Z" fill="#00A3E2"></path><path d="M207.7 184H212.4V191.1H219.2V184H224V201.7H219.2V195H212.4V201.7H207.7V184Z" fill="#00A3E2"></path><path d="M228.7 184H233.4V195.3H233.5L240.8 184H245.3V201.7H240.6V191H240.5L233.2 201.8H228.6V184H228.7Z" fill="#00A3E2"></path><path d="M250 184H254.7V191.8H254.8L261.3 184H266.9L260.3 191.6L267.3 201.7H261.8L256.8 194.3L254.6 196.8V201.7H249.9V184H250Z" fill="#00A3E2"></path><path d="M268.1 192.9C268.1 187.6 271.9 183.8 277.5 183.8C283 183.8 286.9 187.5 286.9 192.9C286.9 198.3 283 202.1 277.5 202.1C271.9 202 268.1 198.2 268.1 192.9ZM282.1 192.9C282.1 190 280.1 188 277.5 188C274.7 188 272.9 190.1 272.9 192.9C272.9 195.7 274.8 197.8 277.5 197.8C280 197.8 282.1 195.8 282.1 192.9Z" fill="#00A3E2"></path><path d="M290.6 184H299.2C303.7 184 305.8 185.5 305.8 188.3C305.8 190.2 305 191.6 302.9 192.3V192.4C305.3 192.9 306.7 194.4 306.7 196.6C306.7 199.5 305 201.7 299.7 201.7H290.6V184ZM298.6 191.1C300.3 191.1 301.1 190.6 301.1 189.4C301.1 188.2 300.2 187.7 298.9 187.7H295.2V191.1H298.6ZM299.2 198C301 198 301.8 197.4 301.8 196.1C301.8 194.9 300.9 194.4 299.3 194.4H295.2V198H299.2Z" fill="#00A3E2"></path><path d="M0.199976 218.7H4.89998V230H4.99998L12.3 218.7H16.8V236.4H12.1V225.6H12L4.69998 236.4H0.0999756V218.7H0.199976Z" fill="#00A3E2"></path><path d="M30.7999 218.7H46.5999V236.4H41.8999V222.7H35.5999V236.4H30.7999V218.7Z" fill="#00A3E2"></path><path d="M51.2999 218.7H55.9999V220.7H56.0999C57.3999 219.2 59.1999 218.4 61.3999 218.4C66.1999 218.4 69.7999 222.2 69.7999 227.6C69.7999 233.1 66.1999 236.7 61.2999 236.7C59.0999 236.7 57.3999 235.9 56.0999 234.4H55.9999V243.5H51.2999V218.7ZM64.9999 227.7C64.9999 224.7 62.9999 222.7 60.3999 222.7C57.6999 222.7 55.7999 224.8 55.7999 227.7C55.7999 230.6 57.7999 232.5 60.3999 232.5C63.0999 232.5 64.9999 230.5 64.9999 227.7Z" fill="#00A3E2"></path><path d="M89.9 229.1H77.5C78.1 231.2 79.8 232.5 82.2 232.5C84.2 232.5 85.6 231.7 86.5 230.5L89.6 233.4C88.1 235.3 85.8 236.8 81.9 236.8C76.5 236.8 72.6 233.1 72.6 227.6C72.6 222.2 76.3 218.5 81.6 218.5C86.6 218.5 90.1 222.3 90.1 227.4C90 228 89.9 228.8 89.9 229.1ZM77.5 225.7H85.3C84.8 223.8 83.6 222.6 81.5 222.6C79.6 222.6 78 223.7 77.5 225.7Z" fill="#00A3E2"></path><path d="M112.5 241.1H108.6L108.3 236.4H95.6L95.4 241.1H91.5V232.4H94.3C95.1 230.7 95.7 229 96 227.1C96.5 224.5 96.6 221.7 96.6 218.7H109.5V232.4H112.6V241.1H112.5ZM104.7 232.4V222.7H100.9C100.8 224.7 100.5 226.6 100.1 228.5C99.8 229.8 99.3 231.1 98.8 232.3H104.7V232.4Z" fill="#00A3E2"></path><path d="M115.6 218.7H131.4V236.4H126.7V222.7H120.4V236.4H115.7V218.7H115.6Z" fill="#00A3E2"></path><path d="M136 218.7H140.7V220.7H140.8C142.1 219.2 143.9 218.4 146.1 218.4C150.9 218.4 154.5 222.2 154.5 227.6C154.5 233.1 150.9 236.7 146 236.7C143.8 236.7 142.1 235.9 140.8 234.4H140.7V243.5H136V218.7ZM149.7 227.7C149.7 224.7 147.7 222.7 145.1 222.7C142.4 222.7 140.5 224.8 140.5 227.7C140.5 230.6 142.5 232.5 145.1 232.5C147.8 232.5 149.7 230.5 149.7 227.7Z" fill="#00A3E2"></path><path d="M158.3 218.7H163V230H163.1L170.5 218.7H175V236.4H170.3V225.6H170.2L162.9 236.4H158.3V218.7Z" fill="#00A3E2"></path><path d="M179.6 218.7H184.3V225.8H191.1V218.7H195.9V236.4H191.1V229.7H184.3V236.4H179.6V218.7Z" fill="#00A3E2"></path><path d="M200.6 218.7H205.3V230H205.4L212.8 218.7H217.3V236.4H212.6V225.6H212.5L205.2 236.4H200.6V218.7Z" fill="#00A3E2"></path><path d="M222 218.7H226.6L232.1 228.7H232.2L237.7 218.7H242.3V236.4H237.8V226.3H237.7L233.8 233.4H230.6L226.7 226.4H226.6V236.4H222.1V218.7H222Z" fill="#00A3E2"></path><path d="M245.8 227.6C245.8 222.2 249.4 218.4 254.1 218.4C256.2 218.4 258 219.2 259.3 220.7H259.4V218.7H264.1V236.4H259.6V234.3H259.5C258.3 235.9 256.5 236.8 254.2 236.8C249.4 236.8 245.8 233.1 245.8 227.6ZM259.7 227.7C259.7 224.8 257.7 222.7 255.2 222.7C252.6 222.7 250.7 224.6 250.7 227.7C250.7 230.5 252.5 232.5 255.2 232.5C257.6 232.5 259.7 230.6 259.7 227.7Z" fill="#00A3E2"></path><path d="M272.4 222.8H267.2V218.8H282.3V222.8H277.1V236.5H272.4V222.8Z" fill="#00A3E2"></path><path d="M301.5 229.1H289.1C289.7 231.2 291.4 232.5 293.8 232.5C295.8 232.5 297.2 231.7 298.1 230.5L301.2 233.4C299.7 235.3 297.4 236.8 293.5 236.8C288.1 236.8 284.2 233.1 284.2 227.6C284.2 222.2 287.9 218.5 293.2 218.5C298.2 218.5 301.7 222.3 301.7 227.4C301.6 228 301.5 228.8 301.5 229.1ZM289.1 225.7H296.9C296.4 223.8 295.2 222.6 293.1 222.6C291.1 222.6 289.6 223.7 289.1 225.7Z" fill="#00A3E2"></path><path d="M320.7 218.7V236.4H315.9V222.7H311.8C311.7 225.4 311.5 227.8 311.2 229.8C310.5 234 308.8 236.6 304.9 236.6C304.2 236.6 303.4 236.5 302.8 236.3L303.1 232.2C303.4 232.3 303.6 232.3 304 232.3C305.7 232.3 306.6 230.5 306.9 228C307.3 225.4 307.3 221.4 307.3 218.7H320.7Z" fill="#00A3E2"></path><path d="M341.8 229.1H329.4C330 231.2 331.7 232.5 334.1 232.5C336.1 232.5 337.5 231.7 338.4 230.5L341.5 233.4C340 235.3 337.7 236.8 333.8 236.8C328.4 236.8 324.5 233.1 324.5 227.6C324.5 222.2 328.2 218.5 333.5 218.5C338.5 218.5 342 222.3 342 227.4C341.9 228 341.8 228.8 341.8 229.1ZM329.4 225.7H337.2C336.7 223.8 335.5 222.6 333.4 222.6C331.4 222.6 329.9 223.7 329.4 225.7Z" fill="#00A3E2"></path><path d="M345.6 218.7H350.3V230H350.4L357.7 218.7H362.2V236.4H357.5V225.6H357.4L350.1 236.4H345.5V218.7H345.6ZM347.7 211.6L351.6 210.9C351.8 212.3 352.4 213.8 354.1 213.8C355.7 213.8 356.3 212.4 356.5 210.9L360.4 211.6C359.7 215.2 357.2 216.6 354 216.6C350.9 216.6 348.5 215.2 347.7 211.6Z" fill="#00A3E2"></path></svg> 