<?xml version="1.0" encoding="UTF-8"?> <svg xmlns="http://www.w3.org/2000/svg" viewBox="5808.999851771764 5341.9999912806925 249 30" data-guides="{&quot;vertical&quot;:[],&quot;horizontal&quot;:[]}"><path fill="#ffffff" stroke="none" fill-opacity="1" stroke-width="1" stroke-opacity="1" id="tSvg1419d935776" title="Path 1" d="M 5870.567551771764 5362.386491280692 C 5866.974485105097 5362.386491280692 5863.381418438431 5362.386491280692 5859.788351771764 5362.386491280692C 5859.788351771764 5358.209907947359 5859.788351771764 5354.033324614026 5859.788351771764 5349.856741280692C 5859.788351771764 5349.387461280692 5859.600851771764 5348.918181280693 5859.272851771764 5348.589681280692C 5858.9447517717645 5348.261191280692 5858.476151771764 5348.073481280692 5858.007451771764 5348.073481280692C 5857.538751771764 5348.073481280692 5857.070151771764 5348.261191280692 5856.742051771764 5348.589681280692C 5856.413951771764 5348.918181280693 5856.226551771764 5349.387461280692 5856.226551771764 5349.856741280692C 5856.226551771764 5354.627757947359 5856.226551771764 5359.398774614026 5856.226551771764 5364.169791280692C 5856.226551771764 5364.638991280693 5856.413951771764 5365.108291280692 5856.742051771764 5365.436791280693C 5857.070151771764 5365.7652912806925 5857.538751771764 5365.952991280693 5858.007451771764 5365.952991280693C 5862.194151771764 5365.952991280693 5866.380851771764 5365.952991280693 5870.567551771764 5365.952991280693C 5871.036251771764 5365.952991280693 5871.504951771764 5365.7652912806925 5871.832951771764 5365.436791280693C 5872.161051771764 5365.108291280692 5872.348451771764 5364.638991280693 5872.348451771764 5364.169791280692C 5872.348451771764 5363.700491280692 5872.161051771764 5363.231191280693 5871.832951771764 5362.902691280692C 5871.504951771764 5362.5741912806925 5871.083151771764 5362.386491280692 5870.567551771764 5362.386491280692Z"></path><path fill="#ffffff" stroke="none" fill-opacity="1" stroke-width="1" stroke-opacity="1" id="tSvgd89eb6078e" title="Path 2" d="M 5914.246851771764 5355.206491280693 C 5911.856618438431 5355.206491280693 5909.466385105097 5355.206491280693 5907.076151771764 5355.206491280693C 5906.560651771764 5355.206491280693 5906.185751771764 5355.065691280693 5905.810751771764 5354.690291280693C 5905.435851771764 5354.314891280693 5905.295251771764 5353.939491280693 5905.295251771764 5353.423291280693C 5905.295251771764 5352.907091280693 5905.482751771764 5352.531591280693 5905.810751771764 5352.156191280693C 5906.185751771764 5351.780781280692 5906.560651771764 5351.640001280693 5907.076151771764 5351.640001280693C 5908.607051771764 5351.640001280693 5910.137951771764 5351.640001280693 5911.668851771764 5351.640001280693C 5912.137851771764 5351.640001280693 5912.606851771764 5351.452291280692 5912.934851771764 5351.123791280693C 5913.262851771764 5350.795301280693 5913.449851771764 5350.326021280693 5913.449851771764 5349.856741280692C 5913.449851771764 5349.387461280692 5913.262851771764 5348.918181280693 5912.934851771764 5348.589681280692C 5912.606851771764 5348.261191280692 5912.137851771764 5348.073481280692 5911.668851771764 5348.073481280692C 5910.137951771764 5348.073481280692 5908.607051771764 5348.073481280692 5907.076151771764 5348.073481280692C 5905.623351771764 5348.073481280692 5904.311051771764 5348.589681280692 5903.280051771764 5349.669031280692C 5902.248951771764 5350.701441280692 5901.686551771764 5352.015391280693 5901.686551771764 5353.470191280692C 5901.686551771764 5354.924991280693 5902.202051771764 5356.238891280693 5903.280051771764 5357.271391280692C 5904.311051771764 5358.303791280692 5905.623351771764 5358.8668912806925 5907.076151771764 5358.8668912806925C 5909.466385105097 5358.8668912806925 5911.856618438431 5358.8668912806925 5914.246851771764 5358.8668912806925C 5914.761851771764 5358.8668912806925 5915.136851771764 5359.054591280693 5915.511851771764 5359.3830912806925C 5915.886851771764 5359.758491280692 5916.027851771764 5360.1339912806925 5916.027851771764 5360.6501912806925C 5916.027851771764 5361.166391280693 5915.839851771764 5361.541791280692 5915.511851771764 5361.917191280692C 5915.136851771764 5362.292691280692 5914.761851771764 5362.433391280692 5914.246851771764 5362.433391280692C 5912.715851771764 5362.433391280692 5911.184851771764 5362.433391280692 5909.653851771764 5362.433391280692C 5909.184851771764 5362.433391280692 5908.716451771764 5362.621091280693 5908.388451771764 5362.949591280692C 5908.060351771764 5363.278091280693 5907.872851771764 5363.747391280693 5907.872851771764 5364.216691280692C 5907.872851771764 5364.685991280692 5908.060351771764 5365.155291280693 5908.388451771764 5365.483691280692C 5908.716451771764 5365.812191280693 5909.184851771764 5365.9999912806925 5909.653851771764 5365.9999912806925C 5911.184851771764 5365.9999912806925 5912.715851771764 5365.9999912806925 5914.246851771764 5365.9999912806925C 5915.699851771764 5365.9999912806925 5917.011851771764 5365.483691280692 5918.042851771764 5364.404391280693C 5919.073851771764 5363.371991280693 5919.6358517717645 5362.0579912806925 5919.6358517717645 5360.603191280692C 5919.6358517717645 5359.148491280693 5919.120851771764 5357.834491280692 5918.042851771764 5356.802091280692C 5917.011851771764 5355.722691280693 5915.746851771764 5355.206491280693 5914.246851771764 5355.206491280693Z"></path><path fill="#ffffff" stroke="none" fill-opacity="1" stroke-width="1" stroke-opacity="1" id="tSvg750f2312d9" title="Path 3" d="M 5973.485851771764 5353.423291280693 C 5973.485851771764 5351.968551280693 5972.969851771764 5350.654571280693 5971.891851771764 5349.622151280692C 5970.860851771764 5348.589741280693 5969.548851771764 5348.026601280692 5968.0958517717645 5348.026601280692C 5964.518518438431 5348.026601280692 5960.941185105097 5348.026601280692 5957.363851771764 5348.026601280692C 5956.8948517717645 5348.026601280692 5956.426851771764 5348.2143112806925 5956.098851771764 5348.542811280692C 5955.7698517717645 5348.871301280693 5955.582851771764 5349.340581280692 5955.582851771764 5349.8098612806925C 5955.582851771764 5354.580871280693 5955.582851771764 5359.351881280692 5955.582851771764 5364.122891280693C 5955.582851771764 5364.5921912806925 5955.7698517717645 5365.061491280692 5956.098851771764 5365.389891280693C 5956.426851771764 5365.718391280692 5956.8948517717645 5365.906191280693 5957.363851771764 5365.906191280693C 5957.832851771764 5365.906191280693 5958.300851771764 5365.718391280692 5958.628851771764 5365.389891280693C 5958.956851771764 5365.061491280692 5959.1448517717645 5364.5921912806925 5959.1448517717645 5364.122891280693C 5959.1448517717645 5359.961944614026 5959.1448517717645 5355.800997947359 5959.1448517717645 5351.640051280692C 5962.128518438431 5351.640051280692 5965.1121851050975 5351.640051280692 5968.0958517717645 5351.640051280692C 5968.611851771764 5351.640051280692 5968.986851771764 5351.827761280692 5969.361851771764 5352.156291280692C 5969.736851771764 5352.531691280692 5969.876851771764 5352.907091280693 5969.876851771764 5353.423291280693C 5969.876851771764 5353.939491280693 5969.689851771764 5354.314991280692 5969.361851771764 5354.690391280693C 5968.986851771764 5355.065791280693 5968.611851771764 5355.206591280693 5968.0958517717645 5355.206591280693C 5967.049185105097 5355.206591280693 5966.00251843843 5355.206591280693 5964.955851771764 5355.206591280693C 5964.112851771764 5355.206591280693 5963.409851771764 5355.675891280693 5963.081851771764 5356.4266912806925C 5962.799851771764 5357.130591280693 5962.940851771764 5357.928391280692 5963.409851771764 5358.444591280692C 5965.69051843843 5360.728424614026 5967.971185105097 5363.012257947359 5970.251851771764 5365.296091280692C 5970.298851771764 5365.342991280692 5970.3458517717645 5365.436891280692 5970.392851771764 5365.436891280692C 5970.7208517717645 5365.765391280693 5971.142851771764 5365.953091280692 5971.610851771764 5365.953091280692C 5972.079851771764 5365.953091280692 5972.548851771764 5365.765391280693 5972.876851771764 5365.436891280692C 5973.204851771764 5365.108391280693 5973.391851771764 5364.639091280693 5973.391851771764 5364.169791280692C 5973.391851771764 5363.700491280692 5973.204851771764 5363.278191280692 5972.876851771764 5362.902791280692C 5971.501851771764 5361.5262246140255 5970.126851771764 5360.149657947359 5968.751851771764 5358.773091280693C 5969.923851771764 5358.632291280693 5970.954851771764 5358.116091280693 5971.798851771764 5357.224491280693C 5972.922851771764 5356.192091280693 5973.485851771764 5354.924991280693 5973.485851771764 5353.423291280693Z"></path><path fill="#ffffff" stroke="none" fill-opacity="1" stroke-width="1" stroke-opacity="1" id="tSvg8580c33b3f" title="Path 4" d="M 6052.5958517717645 5358.773091280693 C 6053.767851771764 5358.632291280693 6054.798851771764 5358.116091280693 6055.641851771764 5357.224491280693C 6056.672851771764 5356.192091280693 6057.235851771764 5354.878091280692 6057.235851771764 5353.423291280693C 6057.235851771764 5351.968551280693 6056.719851771764 5350.654571280693 6055.641851771764 5349.622151280692C 6054.610851771764 5348.589741280693 6053.298851771764 5348.026601280692 6051.8458517717645 5348.026601280692C 6048.268518438431 5348.026601280692 6044.691185105097 5348.026601280692 6041.113851771764 5348.026601280692C 6040.6448517717645 5348.026601280692 6040.176851771764 5348.2143112806925 6039.847851771764 5348.542811280692C 6039.5198517717645 5348.871301280693 6039.332851771764 5349.340581280692 6039.332851771764 5349.8098612806925C 6039.332851771764 5354.580871280693 6039.332851771764 5359.351881280692 6039.332851771764 5364.122891280693C 6039.332851771764 5364.5921912806925 6039.5198517717645 5365.061491280692 6039.847851771764 5365.389891280693C 6040.176851771764 5365.718391280692 6040.6448517717645 5365.906191280693 6041.113851771764 5365.906191280693C 6041.582851771764 5365.906191280693 6042.050851771764 5365.718391280692 6042.378851771764 5365.389891280693C 6042.706851771764 5365.061491280692 6042.8948517717645 5364.5921912806925 6042.8948517717645 5364.122891280693C 6042.8948517717645 5359.961944614026 6042.8948517717645 5355.800997947359 6042.8948517717645 5351.640051280692C 6045.878518438431 5351.640051280692 6048.8621851050975 5351.640051280692 6051.8458517717645 5351.640051280692C 6052.361851771764 5351.640051280692 6052.736851771764 5351.827761280692 6053.111851771764 5352.156291280692C 6053.486851771764 5352.484791280693 6053.626851771764 5352.907091280693 6053.626851771764 5353.423291280693C 6053.626851771764 5353.939491280693 6053.439851771764 5354.314991280692 6053.111851771764 5354.690391280693C 6052.736851771764 5355.065791280693 6052.361851771764 5355.206591280693 6051.8458517717645 5355.206591280693C 6050.799185105097 5355.206591280693 6049.75251843843 5355.206591280693 6048.705851771764 5355.206591280693C 6047.862851771764 5355.206591280693 6047.159851771764 5355.675891280693 6046.831851771764 5356.4266912806925C 6046.549851771764 5357.130591280693 6046.690851771764 5357.928391280692 6047.159851771764 5358.444591280692C 6049.456185105098 5360.728424614026 6051.75251843843 5363.012257947359 6054.048851771764 5365.296091280692C 6054.0958517717645 5365.342991280692 6054.142851771764 5365.436891280692 6054.189851771764 5365.436891280692C 6054.517851771764 5365.765391280693 6054.938851771764 5365.953091280692 6055.407851771764 5365.953091280692C 6055.876851771764 5365.953091280692 6056.344851771764 5365.765391280693 6056.672851771764 5365.436891280692C 6057.000851771764 5365.108391280693 6057.188851771764 5364.639091280693 6057.188851771764 5364.169791280692C 6057.188851771764 5363.700491280692 6057.000851771764 5363.278191280692 6056.672851771764 5362.902791280692C 6055.313851771764 5361.5262246140255 6053.954851771764 5360.149657947359 6052.5958517717645 5358.773091280693Z"></path><path fill="#ffffff" stroke="none" fill-opacity="1" stroke-width="1" stroke-opacity="1" id="tSvg17eb8001a19" title="Path 5" d="M 5930.040851771764 5358.819891280693 C 5932.99351843843 5358.819891280693 5935.946185105097 5358.819891280693 5938.898851771764 5358.819891280693C 5939.882851771764 5358.819891280693 5940.679851771764 5358.022191280693 5940.679851771764 5357.036691280692C 5940.679851771764 5356.051191280692 5939.882851771764 5355.253391280692 5938.898851771764 5355.253391280692C 5935.946185105097 5355.253391280692 5932.99351843843 5355.253391280692 5930.040851771764 5355.253391280692C 5929.056851771764 5355.253391280692 5928.259851771764 5356.051191280692 5928.259851771764 5357.036691280692C 5928.259851771764 5358.022191280693 5929.056851771764 5358.819891280693 5930.040851771764 5358.819891280693Z"></path><path fill="#ffffff" stroke="none" fill-opacity="1" stroke-width="1" stroke-opacity="1" id="tSvgd947c35d9" title="Path 6" d="M 5944.287851771764 5348.026601280692 C 5939.538851771764 5348.026601280692 5934.789851771764 5348.026601280692 5930.040851771764 5348.026601280692C 5929.056851771764 5348.026601280692 5928.259851771764 5348.824381280692 5928.259851771764 5349.8098612806925C 5928.259851771764 5350.795351280693 5929.056851771764 5351.593131280692 5930.040851771764 5351.593131280692C 5934.789851771764 5351.593131280692 5939.538851771764 5351.593131280692 5944.287851771764 5351.593131280692C 5945.271851771764 5351.593131280692 5946.0688517717645 5350.795351280693 5946.0688517717645 5349.8098612806925C 5946.0688517717645 5348.824381280692 5945.271851771764 5348.026601280692 5944.287851771764 5348.026601280692Z"></path><path fill="#ffffff" stroke="none" fill-opacity="1" stroke-width="1" stroke-opacity="1" id="tSvgf54de9a916" title="Path 7" d="M 5944.287851771764 5362.386491280692 C 5939.538851771764 5362.386491280692 5934.789851771764 5362.386491280692 5930.040851771764 5362.386491280692C 5929.056851771764 5362.386491280692 5928.259851771764 5363.184191280692 5928.259851771764 5364.169691280693C 5928.259851771764 5365.155191280693 5929.056851771764 5365.952991280693 5930.040851771764 5365.952991280693C 5934.789851771764 5365.952991280693 5939.538851771764 5365.952991280693 5944.287851771764 5365.952991280693C 5945.271851771764 5365.952991280693 5946.0688517717645 5365.155191280693 5946.0688517717645 5364.169691280693C 5946.0688517717645 5363.184191280692 5945.271851771764 5362.386491280692 5944.287851771764 5362.386491280692Z"></path><path fill="#ffffff" stroke="none" fill-opacity="1" stroke-width="1" stroke-opacity="1" id="tSvgae0beb41e" title="Path 8" d="M 5888.704851771764 5349.0589612806925 C 5888.423651771764 5348.448901280693 5887.814351771764 5348.073481280692 5887.111351771764 5348.073481280692C 5887.095751771764 5348.073481280692 5887.080151771764 5348.073481280692 5887.064551771764 5348.073481280692C 5886.4083517717645 5348.073481280692 5885.799151771764 5348.448901280693 5885.471051771764 5349.0589612806925C 5883.065251771764 5353.829971280693 5880.659451771764 5358.600981280692 5878.253651771764 5363.371991280693C 5878.019351771764 5363.794291280692 5878.019351771764 5364.310491280692 5878.159951771764 5364.7328912806925C 5878.300551771764 5365.155291280693 5878.628651771764 5365.577591280692 5879.050451771764 5365.7652912806925C 5879.284751771764 5365.906091280693 5879.565951771764 5365.952991280693 5879.847151771764 5365.952991280693C 5880.034551771764 5365.952991280693 5880.222051771764 5365.906091280693 5880.409551771764 5365.859191280692C 5880.878151771764 5365.718391280692 5881.253151771764 5365.389891280693 5881.440551771764 5364.967491280692C 5883.299585105097 5361.260191280692 5885.1586184384305 5357.552891280692 5887.017651771764 5353.845591280692C 5888.907918438431 5357.552891280692 5890.798185105097 5361.260191280692 5892.688451771764 5364.967491280692C 5892.922751771764 5365.389891280693 5893.250851771764 5365.718391280692 5893.719551771764 5365.859191280692C 5894.188151771764 5365.9999912806925 5894.656851771764 5365.952991280693 5895.078651771764 5365.7652912806925C 5895.500451771764 5365.530691280693 5895.828551771764 5365.202191280692 5895.969151771764 5364.7328912806925C 5896.109651771764 5364.263591280693 5896.062851771764 5363.794291280692 5895.875351771764 5363.371991280693C 5893.485185105097 5358.600981280692 5891.095018438431 5353.829971280693 5888.704851771764 5349.0589612806925Z"></path><path fill="#ffffff" stroke="none" fill-opacity="1" stroke-width="1" stroke-opacity="1" id="tSvgd768544564" title="Path 9" d="M 6025.507851771764 5349.246671280693 C 6025.366851771764 5348.824321280693 6025.038851771764 5348.448901280693 6024.616851771764 5348.261191280692C 6024.382851771764 5348.120401280693 6024.101851771764 5348.073481280692 6023.819851771764 5348.073481280692C 6023.538851771764 5348.073481280692 6023.257851771764 5348.120401280693 6023.023851771764 5348.261191280692C 6022.601851771764 5348.448901280693 6022.320851771764 5348.824321280693 6022.179851771764 5349.199751280693C 6019.805185105098 5353.923831280693 6017.430518438431 5358.647911280693 6015.055851771764 5363.371991280693C 6014.821851771764 5363.794291280692 6014.821851771764 5364.310591280692 6014.962851771764 5364.7328912806925C 6015.102851771764 5365.155291280693 6015.430851771764 5365.577591280692 6015.852851771764 5365.7652912806925C 6016.087851771764 5365.906091280693 6016.368851771764 5365.952991280693 6016.649851771764 5365.952991280693C 6016.8368517717645 5365.952991280693 6017.024851771764 5365.906091280693 6017.2118517717645 5365.859191280692C 6017.680851771764 5365.718391280692 6018.055851771764 5365.389891280693 6018.242851771764 5364.967491280692C 6020.101851771764 5361.260191280692 6021.960851771764 5357.552891280692 6023.819851771764 5353.845591280692C 6025.678851771764 5357.552891280692 6027.537851771764 5361.260191280692 6029.396851771764 5364.967491280692C 6029.865851771764 5365.859191280692 6030.9438517717645 5366.234591280692 6031.834851771764 5365.7652912806925C 6032.255851771764 5365.530691280693 6032.583851771764 5365.202191280692 6032.724851771764 5364.7328912806925C 6032.865851771764 5364.263591280693 6032.8188517717645 5363.794291280692 6032.630851771764 5363.371991280693C 6030.256518438431 5358.663551280692 6027.882185105097 5353.955111280692 6025.507851771764 5349.246671280693Z"></path><path fill="#ffffff" stroke="none" fill-opacity="1" stroke-width="1" stroke-opacity="1" id="tSvg1406e04af65" title="Path 10" d="M 6010.697851771764 5348.261311280692 C 6010.650851771764 5348.355167947359 6010.603851771764 5348.449024614026 6010.556851771764 5348.542881280692C 6010.603851771764 5348.449024614026 6010.650851771764 5348.355167947359 6010.697851771764 5348.261311280692C 6009.806851771764 5347.792031280693 6008.728851771764 5348.167451280692 6008.2608517717645 5349.059091280693C 6006.401518438431 5352.766391280693 6004.542185105098 5356.473691280692 6002.682851771764 5360.180991280692C 6000.855185105097 5356.536261280692 5999.027518438431 5352.891531280692 5997.199851771764 5349.246801280692C 5997.059851771764 5348.824451280692 5996.730851771764 5348.449021280692 5996.309851771764 5348.261311280692C 5996.074851771764 5348.120531280692 5995.793851771764 5348.073601280693 5995.512851771764 5348.073601280693C 5995.231851771764 5348.073601280693 5994.950851771764 5348.120531280692 5994.715851771764 5348.261311280692C 5994.293851771764 5348.449021280692 5994.012851771764 5348.824451280692 5993.872851771764 5349.199871280693C 5992.029185105097 5352.860244614026 5990.18551843843 5356.520617947359 5988.341851771764 5360.180991280692C 5986.482851771764 5356.473691280692 5984.623851771764 5352.766391280693 5982.764851771764 5349.059091280693C 5982.296851771764 5348.167451280692 5981.218851771764 5347.792031280693 5980.3278517717645 5348.261311280692C 5979.905851771764 5348.495951280693 5979.5778517717645 5348.824451280692 5979.437851771764 5349.293731280693C 5979.296851771764 5349.763001280692 5979.343851771764 5350.232281280692 5979.531851771764 5350.654631280692C 5981.921851771764 5355.425651280692 5984.311851771764 5360.1966712806925 5986.701851771764 5364.967691280693C 5986.982851771764 5365.530791280693 5987.545851771764 5365.906191280693 5988.201851771764 5365.953091280692C 5988.24851843843 5365.953091280692 5988.2951851050975 5365.953091280692 5988.341851771764 5365.953091280692C 5988.373185105097 5365.953091280692 5988.40451843843 5365.953091280692 5988.435851771764 5365.953091280692C 5989.091851771764 5365.906191280693 5989.654851771764 5365.530791280693 5989.935851771764 5364.967691280693C 5991.794851771764 5361.260357947359 5993.653851771764 5357.553024614026 5995.512851771764 5353.845691280692C 5997.356185105097 5357.553024614026 5999.1995184384305 5361.260357947359 6001.042851771764 5364.967691280693C 6001.323851771764 5365.577691280692 6001.933851771764 5365.953091280692 6002.636851771764 5365.953091280692C 6002.6521851050975 5365.953091280692 6002.66751843843 5365.953091280692 6002.682851771764 5365.953091280692C 6003.339851771764 5365.953091280692 6003.948851771764 5365.577691280692 6004.276851771764 5364.967691280693C 6006.682518438431 5360.1966712806925 6009.088185105097 5355.425651280692 6011.493851771764 5350.654631280692C 6011.728851771764 5350.232281280692 6011.728851771764 5349.716081280692 6011.587851771764 5349.293731280693C 6011.446851771764 5348.871371280692 6011.118851771764 5348.495951280693 6010.697851771764 5348.261311280692Z"></path><path fill="#ffffff" stroke="none" fill-opacity="1" stroke-width="1" stroke-opacity="1" id="tSvg12f18e87b9c" title="Path 11" d="M 5830.441051771764 5364.038291280693 C 5827.593451771764 5364.038291280693 5824.745851771764 5364.038291280693 5821.898251771764 5364.038291280693C 5821.5099517717645 5364.038291280693 5821.121651771764 5364.167891280693 5820.862751771764 5364.427191280693C 5820.215571771764 5364.902391280692 5819.568391771764 5365.377591280692 5818.921211771764 5365.852791280692C 5818.662341771764 5366.111991280693 5818.791791771764 5366.630491280693 5819.180051771764 5366.630491280693C 5823.839751771764 5366.630491280693 5828.499451771764 5366.630491280693 5833.159151771764 5366.630491280693C 5833.547551771764 5366.630491280693 5833.676951771764 5366.111991280693 5833.418051771764 5365.852791280692C 5832.7708851050975 5365.334357947359 5832.123718438431 5364.815924614026 5831.476551771764 5364.297491280692C 5831.217651771764 5364.167891280693 5830.829351771764 5364.038291280693 5830.441051771764 5364.038291280693Z"></path><path fill="#ffffff" stroke="none" fill-opacity="1" stroke-width="1" stroke-opacity="1" id="tSvg10a874a567c" title="Path 12" d="M 5821.250151771764 5362.094291280692 C 5822.587685105097 5359.718191280693 5823.92521843843 5357.342091280692 5825.262751771764 5354.965991280693C 5825.3921517717645 5354.577091280693 5825.5216517717645 5354.3178912806925 5825.5216517717645 5353.929091280693C 5825.392218438431 5352.9786412806925 5825.2627851050975 5352.028191280692 5825.133351771764 5351.077741280693C 5825.133351771764 5350.688921280693 5824.615551771764 5350.5593212806925 5824.356751771764 5350.948141280693C 5821.940578438431 5355.095557947359 5819.524405105098 5359.242974614026 5817.108231771764 5363.390391280693C 5816.978791771764 5363.779191280692 5817.237661771764 5364.168091280692 5817.625971771764 5363.908791280693C 5818.532031771764 5363.519991280693 5819.438091771764 5363.131191280692 5820.344151771764 5362.742391280693C 5820.732451771764 5362.742391280693 5820.991351771764 5362.483191280692 5821.250151771764 5362.094291280692Z"></path><path fill="#ffffff" stroke="none" fill-opacity="1" stroke-width="1" stroke-opacity="1" id="tSvgc3cf601866" title="Path 13" d="M 5827.333151771764 5355.095391280693 C 5828.71381843843 5357.471524614026 5830.094485105097 5359.847657947359 5831.475151771764 5362.223791280692C 5831.604551771764 5362.612591280693 5831.992851771764 5362.871791280692 5832.251651771764 5363.001391280693C 5833.114585105097 5363.390224614026 5833.977518438431 5363.779057947359 5834.8404517717645 5364.167891280693C 5835.228751771764 5364.297491280692 5835.487651771764 5363.908691280692 5835.358151771764 5363.649391280693C 5832.942018438431 5359.501984614026 5830.525885105098 5355.354577947359 5828.109751771764 5351.207171280693C 5827.980351771764 5350.818351280693 5827.462551771764 5350.947961280693 5827.333151771764 5351.336781280693C 5827.203718438431 5352.287217947359 5827.074285105097 5353.237654614026 5826.944851771764 5354.188091280693C 5827.0742517717645 5354.317691280692 5827.0742517717645 5354.706591280693 5827.333151771764 5355.095391280693Z"></path><path fill="#ffffff" stroke="none" fill-opacity="1" stroke-width="1" stroke-opacity="1" id="tSvg185fb3041de" title="Path 14" d="M 5828.499851771764 5342.3940632806925 C 5828.3704184384305 5343.56052594736 5828.240985105097 5344.726988614026 5828.111551771764 5345.893451280693C 5828.111551771764 5346.411881280693 5828.111551771764 5346.800701280693 5828.370351771764 5347.189521280692C 5831.822018438431 5353.1946446140255 5835.273685105098 5359.199767947359 5838.725351771764 5365.204891280692C 5838.984251771764 5365.593691280693 5839.372551771764 5365.982491280693 5839.7608517717645 5366.112191280692C 5840.839485105097 5366.544191280693 5841.918118438431 5366.976191280693 5842.996751771764 5367.408191280692C 5843.385051771764 5367.5377912806925 5843.7734517717645 5367.148991280693 5843.514551771764 5366.760191280692C 5838.811685105097 5358.551743947359 5834.108818438431 5350.343296614026 5829.405951771764 5342.134849280693C 5829.147051771764 5341.875635280692 5828.499851771764 5342.005242740693 5828.499851771764 5342.3940632806925Z"></path><path fill="#ffffff" stroke="none" fill-opacity="1" stroke-width="1" stroke-opacity="1" id="tSvg8a611c736f" title="Path 15" d="M 5836.134851771764 5368.445091280692 C 5829.5336184384305 5368.445091280692 5822.932385105098 5368.445091280692 5816.331151771764 5368.445091280692C 5815.813411771764 5368.445091280692 5815.425101771764 5368.574691280693 5815.036791771764 5368.833891280692C 5814.08758843843 5369.525124614026 5813.138385105098 5370.216357947359 5812.189181771764 5370.907591280692C 5811.800881771764 5371.166791280692 5812.059761771764 5371.685191280692 5812.448071771764 5371.685191280692C 5821.59489843843 5371.685191280692 5830.741725105097 5371.685191280692 5839.8885517717645 5371.685191280692C 5840.276851771764 5371.685191280692 5840.535751771764 5371.166791280692 5840.147451771764 5370.907591280692C 5839.198251771764 5370.216357947359 5838.249051771764 5369.525124614026 5837.299851771764 5368.833891280692C 5837.170351771764 5368.574691280693 5836.652551771764 5368.445091280692 5836.134851771764 5368.445091280692Z"></path><path fill="#ffffff" stroke="none" fill-opacity="1" stroke-width="1" stroke-opacity="1" id="tSvg8f1c8fff08" title="Path 16" d="M 5813.743371771764 5365.204291280693 C 5817.194998438431 5359.199154614026 5820.646625105097 5353.1940179473595 5824.098251771764 5347.188881280693C 5824.357151771764 5346.800061280693 5824.486551771764 5346.281631280693 5824.357151771764 5345.8928112806925C 5824.227718438431 5344.726347280693 5824.098285105098 5343.559883280693 5823.968851771764 5342.393419280693C 5823.968851771764 5342.004598620692 5823.321651771764 5341.8749912806925 5823.192151771764 5342.263812280692C 5818.4893254717645 5350.472238614026 5813.786499171764 5358.680664947359 5809.083672871764 5366.889091280693C 5808.824800771764 5367.277991280693 5809.213100771764 5367.666791280692 5809.601408771764 5367.537191280692C 5810.680043105097 5367.105157947359 5811.758677438431 5366.673124614026 5812.837311771764 5366.241091280693C 5813.225611771764 5365.852291280692 5813.613941771764 5365.5930912806925 5813.743371771764 5365.204291280693Z"></path><defs></defs></svg> 