<?xml version="1.0" encoding="UTF-8"?> <svg xmlns="http://www.w3.org/2000/svg" width="269" height="46" viewBox="0 0 269 46" fill="none"><g clip-path="url(#clip0_261_1656)"><path opacity="0.4" d="M68.5008 45.4C81.0376 45.4 91.2008 35.2369 91.2008 22.7C91.2008 10.1631 81.0376 0 68.5008 0C55.9639 0 45.8008 10.1631 45.8008 22.7C45.8008 35.2369 55.9639 45.4 68.5008 45.4Z" fill="white"></path><path opacity="0.4" d="M72.5008 41.4C82.8285 41.4 91.2008 33.0277 91.2008 22.7C91.2008 12.3723 82.8285 4 72.5008 4C62.1731 4 53.8008 12.3723 53.8008 22.7C53.8008 33.0277 62.1731 41.4 72.5008 41.4Z" fill="white"></path><path opacity="0.6" d="M77.1992 36.7002C84.9312 36.7002 91.1992 30.4322 91.1992 22.7002C91.1992 14.9682 84.9312 8.7002 77.1992 8.7002C69.4672 8.7002 63.1992 14.9682 63.1992 22.7002C63.1992 30.4322 69.4672 36.7002 77.1992 36.7002Z" fill="white"></path><path d="M81.4 32.5998C86.8676 32.5998 91.3 28.1674 91.3 22.6998C91.3 17.2322 86.8676 12.7998 81.4 12.7998C75.9324 12.7998 71.5 17.2322 71.5 22.6998C71.5 28.1674 75.9324 32.5998 81.4 32.5998Z" fill="white"></path><path d="M6 10.2002H0V35.2002H6V10.2002Z" fill="white"></path><path d="M27.5 10.2002H21.5V35.2002H27.5V10.2002Z" fill="white"></path><path d="M35.5996 10.2002H13.5996V16.2002H35.5996V10.2002Z" fill="white"></path><path d="M135.9 10.2002H129.9V35.2002H135.9V10.2002Z" fill="white"></path><path d="M109.9 10.2002H103.9V35.2002H109.9V10.2002Z" fill="white"></path><path d="M261.1 10.2002H255.1V35.2002H261.1V10.2002Z" fill="white"></path><path d="M269.1 10.2002H247.1V16.2002H269.1V10.2002Z" fill="white"></path><path d="M115.801 16.2002C117.401 16.2002 118.601 17.5002 118.601 19.0002C118.601 20.5002 117.301 21.8002 115.801 21.8002H109.801V16.1002H115.801M115.801 10.2002H103.801V27.9002H115.801C120.701 27.9002 124.601 23.9002 124.601 19.1002C124.601 14.3002 120.701 10.2002 115.801 10.2002Z" fill="white"></path><path d="M149.711 35.2299V29.1299L135.411 29.1299V35.2299H149.711Z" fill="white"></path><path d="M187.396 35.2471H193.496V10.2471H187.396V35.2471Z" fill="white"></path><path d="M219.527 10.3002V15.7002L241.627 15.7002V10.3002L219.527 10.3002Z" fill="white"></path><path d="M219.553 29.8754V35.2754H241.653V29.8754H219.553Z" fill="white"></path><path d="M219.541 20.0883V25.4883H241.641V20.0883H219.541Z" fill="white"></path><path d="M158.357 29.8793V35.2793H177.357V29.8793H158.357Z" fill="white"></path><path d="M206.412 35.2471H212.512V10.2471H206.412V35.2471Z" fill="white"></path><path d="M155 35.2002H161.1L171.1 10.2002H165L155 35.2002Z" fill="white"></path><path d="M181.5 35.2002H175.4L165.4 10.2002H171.5L181.5 35.2002Z" fill="white"></path><path d="M208 35.2002H201.9L191.9 10.2002H198L208 35.2002Z" fill="white"></path><path d="M226.5 10.2002H219.5V35.2002H226.5V10.2002Z" fill="white"></path></g><defs><clipPath id="clip0_261_1656"><rect width="269" height="45.4" fill="white"></rect></clipPath></defs></svg> 