<?xml version="1.0" encoding="UTF-8"?> <svg xmlns="http://www.w3.org/2000/svg" id="_Слой_2" data-name="Слой 2" viewBox="0 0 596.76 141.32"><defs><style> .cls-1 { fill: #fff; } </style></defs><g id="_Слой_1-2" data-name="Слой 1"><g><path class="cls-1" d="m477.65,75.99c0-8.56-1.62-16.21-4.83-22.74-3.2-6.53-7.76-11.71-13.56-15.38-5.8-3.67-12.73-5.54-20.6-5.54s-14.34,1.9-20.17,5.66c-5.82,3.75-10.46,8.98-13.76,15.54-3.3,6.56-4.98,14.17-4.98,22.62s1.61,15.89,4.78,22.43c3.18,6.53,7.78,11.74,13.68,15.46,5.9,3.73,13.08,5.62,21.32,5.62,6.25,0,12.03-1.16,17.2-3.44,5.17-2.28,9.53-5.51,12.97-9.61,3.43-4.08,5.67-8.85,6.67-14.18h-15.99c-1.16,3.94-3.54,7.18-7.05,9.65-3.53,2.47-8.09,3.73-13.56,3.73-7.32,0-13.07-2.35-17.09-6.98-3.86-4.44-6.05-10.31-6.5-17.43l-.05-.93h61.52v-4.47Zm-61.38-8.11l.13-.99c.8-6.19,3.13-11.19,6.91-14.88,3.97-3.87,9.19-5.83,15.51-5.83s11.54,1.96,15.55,5.83c3.8,3.68,6.14,8.68,6.95,14.88l.13.99h-45.17Z"></path><path class="cls-1" d="m545.83,116.57c5.09,2.05,10.89,3.09,17.24,3.09s12.28-1.05,17.32-3.12c5.04-2.07,9.07-5.05,11.98-8.85,2.91-3.8,4.39-8.41,4.39-13.71,0-6.02-1.94-10.97-5.77-14.7-3.83-3.72-9.87-6.52-17.95-8.3l-14.25-3.17c-3.73-.84-6.71-2.15-8.84-3.89-2.17-1.77-3.22-4.03-3.22-6.92,0-3.26,1.38-5.94,4.21-8.19,2.79-2.21,6.61-3.33,11.35-3.33s8.98,1.35,11.98,4.01c3.04,2.69,4.54,5.99,4.61,10.08h15.91c-.22-8.37-3.4-15.07-9.44-19.92-6.06-4.85-13.9-7.32-23.29-7.32s-17.28,2.34-23.13,6.96c-5.85,4.61-8.81,10.68-8.81,18.02,0,12.38,8.06,20.41,23.95,23.87l13.86,3.09c3.58.79,6.51,2.06,8.72,3.77,2.25,1.74,3.34,3.99,3.34,6.88,0,3.37-1.52,6.07-4.65,8.27-3.08,2.16-7.31,3.25-12.57,3.25-11.25,0-17.19-4.61-18.17-14.09h-16.38c.37,5.96,2.14,11.03,5.25,15.05h0c3.12,4.04,7.28,7.13,12.37,9.17Z"></path><path class="cls-1" d="m503.81,0c-2.93,0-5.44,1-7.45,2.96-2.01,1.96-3.03,4.42-3.03,7.29s1.02,5.25,3.03,7.22c2.01,1.96,4.52,2.96,7.45,2.96s5.46-1,7.49-2.96c2.04-1.96,3.07-4.39,3.07-7.21s-1.03-5.33-3.07-7.29c-2.04-1.96-4.56-2.96-7.49-2.96Z"></path><path class="cls-1" d="m264.14,53.14h0c1.54-1.57,3.5-2.74,5.82-3.49,2.32-.75,5.1-1.13,8.25-1.13h20.08v-14.82h-20.08c-12.01,0-20.7,2.94-26.55,8.98-5.77,5.96-8.7,15.19-8.7,27.45v48.14h16.66v-49.03c0-4.61.33-7.73,1.08-10.13.75-2.39,1.91-4.4,3.45-5.97Z"></path><path class="cls-1" d="m330.78,53.14c1.54-1.57,3.5-2.74,5.82-3.49,2.32-.75,5.09-1.13,8.24-1.13h5.47c3.15,0,5.92.38,8.24,1.13,2.32.75,4.28,1.92,5.82,3.49,1.54,1.57,2.7,3.58,3.45,5.97.75,2.4,1.08,5.52,1.08,10.13v49.03h16.66v-48.14c0-12.26-2.93-21.49-8.7-27.45-5.86-6.04-14.54-8.98-26.55-8.98h-5.47c-12.01,0-20.7,2.94-26.55,8.98-5.77,5.95-8.7,15.19-8.7,27.45v48.14h16.66v-49.03c0-4.61.33-7.74,1.08-10.13.75-2.4,1.91-4.4,3.45-5.97Z"></path><path class="cls-1" d="m226.15,118.39v-49.99c0-11.53-3-20.24-9.18-26.61-6.17-6.36-14.53-9.45-25.56-9.45-9.16,0-16.83,2.04-22.79,6.05-6.08,4.09-9.85,9.22-11.86,16.14-.13.43-.25.86-.36,1.33-.38,1.58-.61,3.15-.71,3.94v.09s15.74,0,15.74,0l.02-.05c1.33-4.4,3.62-7.68,6.82-9.75,3.2-2.07,7.57-3.12,13-3.12,3.37,0,13.6,0,17.33,11.14.7,2.07,1.03,4,1.13,6.43l.03.8-22.92,2.84c-5.24.67-10,1.7-14.14,3.06-4.14,1.36-7.69,3.19-10.55,5.43-2.86,2.24-5.07,4.97-6.56,8.11-1.49,3.15-2.25,6.88-2.25,11.1,0,3.71.68,7.14,2.02,10.2,1.34,3.06,3.27,5.72,5.75,7.88,2.47,2.16,5.47,3.85,8.93,5.01,3.45,1.16,7.39,1.75,11.71,1.75,6.53,0,12.21-1.24,16.87-3.69,3.76-1.98,6.98-4.77,9.57-8.29l1.58-2.16v11.82h16.4Zm-16.42-38.66c-.02,1.44-.08,3-.18,4.65-.26,4.79-1.89,9.63-4.36,12.96-1.57,2.12-3.21,3.79-5.02,5.09-1.94,1.41-4.19,2.51-6.67,3.28-2.48.77-5.2,1.16-8.07,1.16-5.33,0-9.37-1.04-12.03-3.08-2.47-1.9-4-3.93-4-8.18,0-2.09.38-3.96,1.12-5.54.74-1.58,1.92-2.97,3.5-4.11,1.58-1.15,3.63-2.12,6.09-2.89,2.46-.77,5.39-1.37,8.73-1.78l20.89-2.57-.02,1.01Z"></path><rect class="cls-1" x="495.02" y="34.23" width="16.6" height="83.52"></rect></g><g><rect class="cls-1" x="36.62" y="16.11" width="43.03" height="43.03" rx="21.52" ry="21.52"></rect><path class="cls-1" d="m58.14,89.38h0c11.87,0,21.52,9.64,21.52,21.52v21.52h-21.52c-11.87,0-21.52-9.64-21.52-21.52h0c0-11.87,9.64-21.52,21.52-21.52Z" transform="translate(95.44 -8.63) rotate(45)"></path><rect class="cls-1" x="73.25" y="52.74" width="43.03" height="43.03" rx="21.52" ry="21.52"></rect><rect class="cls-1" x="0" y="52.74" width="43.03" height="43.03" rx="21.52" ry="21.52"></rect></g></g></svg> 