<?xml version="1.0" encoding="UTF-8"?> <svg xmlns="http://www.w3.org/2000/svg" width="221" height="40" viewBox="0 0 221 40" fill="none"> <g clip-path="url(#clip0_171_53)"> <path d="M220.074 18.7489C219.8 17.9774 219.467 17.2269 219.079 16.5039C218.887 16.1782 218.694 15.8355 218.485 15.527C217.16 13.4438 215.368 11.6852 213.244 10.3856L213.733 9.58013L214.415 8.43188L216.878 4.35305C217.08 3.99815 217.201 3.60389 217.231 3.19816C217.261 2.79244 217.2 2.38516 217.052 2.00515C216.873 1.41751 216.503 0.903477 215.999 0.541446C215.494 0.179416 214.882 -0.0107332 214.257 5.7733e-06H193.417C190.431 0.00801232 187.5 0.786632 184.918 2.25766C182.337 3.72868 180.195 5.84032 178.708 8.38047C178.498 8.7575 178.306 9.13454 178.131 9.52871C177.453 11.028 177.029 12.6256 176.874 14.2588C176.435 18.1216 177.461 22.0077 179.756 25.1757C179.946 25.4594 180.15 25.7339 180.368 25.9983C181.535 27.4054 182.934 28.6104 184.508 29.563L182.604 32.8535L181.922 34.0017C181.573 34.5844 181.223 35.1671 180.892 35.7155C180.681 36.063 180.548 36.4509 180.503 36.853C180.457 37.2551 180.501 37.662 180.63 38.0463C180.811 38.5788 181.148 39.0475 181.598 39.3947C182.048 39.7418 182.592 39.9522 183.163 40H205.121C205.967 39.9528 206.807 39.8439 207.637 39.6744C211.44 38.9309 214.865 36.9209 217.332 33.9846C217.642 33.6164 217.934 33.2332 218.205 32.8363C219.679 30.719 220.592 28.2745 220.861 25.7241C221.131 23.3706 220.862 20.9877 220.074 18.7489ZM217.926 16.4696L208.318 32.8535H199.95L212.685 11.2082C214.847 12.5113 216.648 14.3187 217.926 16.4696ZM214.257 1.04542C214.589 1.03597 214.917 1.11151 215.209 1.26457C215.501 1.41763 215.748 1.64292 215.925 1.91815C216.101 2.19337 216.201 2.50902 216.215 2.83387C216.229 3.15871 216.156 3.48152 216.004 3.77036V3.87318L215.445 4.79864L213.279 8.44902L212.598 9.59726L211.916 10.7626L198.692 32.8535H192.316L206.117 9.56299L206.798 8.41474L211.183 1.01115L214.257 1.04542ZM201.47 1.04542L197.085 8.44902H190.849L195.216 0.97687L201.47 1.04542ZM193.417 1.04542H194.046L189.661 8.44902H185.049L189.102 1.59384C190.505 1.1945 191.956 0.986892 193.417 0.97687V1.04542ZM178.236 19.8972L184.368 9.6144H188.98L180.245 24.3531C179.329 22.9809 178.65 21.4695 178.236 19.88V19.8972ZM180.892 25.1585L190.15 9.54585H196.404L184.997 28.7918C183.419 27.823 182.029 26.587 180.892 25.1414V25.1585ZM183.442 39.0403C183.096 39.0649 182.75 38.9956 182.442 38.8399C182.134 38.6843 181.875 38.4483 181.695 38.1578C181.514 37.8674 181.419 37.5338 181.419 37.1937C181.419 36.8535 181.514 36.52 181.695 36.2297L183.005 33.9846L183.861 32.8535L185.94 29.3231L197.644 9.56299H201.33L187.442 32.8535L186.761 34.0017L183.756 39.1431L183.442 39.0403ZM204.283 39.0403H196.194L199.199 33.8989H207.567L204.562 39.0403H204.283ZM205.767 39.0403L208.72 34.0531L209.401 32.9049L218.485 17.5836C218.863 18.3442 219.172 19.1355 219.411 19.9486L211.812 32.8535L211.13 34.0017L208.318 38.509C207.481 38.724 206.628 38.873 205.767 38.9546V39.0403Z" fill="white"></path> <path d="M3.72108 33.2134C4.47567 33.4882 5.2745 33.6275 6.0794 33.6247H13.6609C13.9168 33.6478 14.1747 33.6152 14.4163 33.5293C14.6578 33.4434 14.8771 33.3063 15.0584 33.1277C15.362 32.7476 15.517 32.2734 15.4952 31.7909V22.5707C15.4952 21.8395 15.3205 21.3596 14.9711 21.1311C14.5639 20.8815 14.0879 20.7618 13.6085 20.7884H9.1714C8.93522 20.7756 8.69886 20.8101 8.47665 20.8896C8.25444 20.9691 8.05101 21.0921 7.8787 21.2511C7.5627 21.6188 7.40042 22.0903 7.42451 22.5707C7.39455 23.0542 7.55037 23.5312 7.86123 23.9075C8.02748 24.0758 8.22953 24.2061 8.45297 24.289C8.67641 24.372 8.91575 24.4055 9.15393 24.3873H11.7743V29.9915H6.60346C6.21821 30.0224 5.83057 29.976 5.46417 29.8552C5.09777 29.7344 4.76027 29.5417 4.47225 29.2888C4.22549 29.0137 4.0367 28.6933 3.91677 28.3462C3.79684 27.9991 3.74815 27.6322 3.77349 27.2665V19.1431C3.72601 18.4028 3.96986 17.6728 4.45478 17.1037C4.74227 16.8438 5.08183 16.6456 5.4518 16.5216C5.82176 16.3977 6.21399 16.3508 6.60346 16.3839H12.7525C12.9957 16.3992 13.2395 16.3644 13.4681 16.2818C13.6967 16.1991 13.9052 16.0705 14.0802 15.9041C14.391 15.5277 14.5469 15.0508 14.5169 14.5673C14.5441 14.0894 14.3884 13.6187 14.0802 13.2477C13.9052 13.0813 13.6967 12.9526 13.4681 12.87C13.2395 12.7873 12.9957 12.7525 12.7525 12.7678H6.0794C5.31041 12.7677 4.54747 12.9012 3.8259 13.162C3.10141 13.433 2.44142 13.8472 1.88684 14.3788C1.29439 14.9461 0.830148 15.6292 0.524261 16.3839C0.170163 17.262 -0.00778319 18.1989 0.000191888 19.1431V27.0951C-0.0452506 28.0623 0.103125 29.0289 0.436916 29.94C0.72208 30.7029 1.16859 31.398 1.74709 31.9795C2.28675 32.5251 2.94303 32.9465 3.66868 33.2134" fill="white"></path> <path d="M31.1469 16.3496C31.3827 16.3701 31.6201 16.3376 31.8411 16.2544C32.0621 16.1713 32.2609 16.0397 32.4222 15.8697C32.7209 15.488 32.8697 15.0135 32.8414 14.533C32.8671 14.0581 32.7183 13.5899 32.4222 13.2134C32.2609 13.0434 32.0621 12.9119 31.8411 12.8287C31.6201 12.7455 31.3827 12.713 31.1469 12.7335H20.6655C19.3903 12.7335 18.744 13.3333 18.744 14.533V31.8081C18.7274 32.0568 18.7663 32.306 18.858 32.5385C18.9497 32.7709 19.092 32.981 19.275 33.1539C19.4579 33.3269 19.6771 33.4586 19.9173 33.5399C20.1575 33.6212 20.4128 33.6501 20.6655 33.6247H31.1469C31.384 33.6418 31.6219 33.6059 31.8427 33.5199C32.0636 33.4338 32.2617 33.2997 32.4222 33.1277C32.7197 32.7519 32.8686 32.2832 32.8414 31.8081C32.8697 31.3275 32.7209 30.8531 32.4222 30.4713C32.2609 30.3014 32.0621 30.1698 31.8411 30.0866C31.6201 30.0035 31.3827 29.9709 31.1469 29.9914H22.5871V24.3873H29.8193C30.0509 24.4073 30.2841 24.3762 30.5017 24.2961C30.7194 24.216 30.916 24.0891 31.0771 23.9246C31.358 23.5356 31.4937 23.0635 31.4614 22.5878C31.4909 22.1124 31.3554 21.6413 31.0771 21.2511C30.9201 21.0804 30.7246 20.9481 30.5062 20.8648C30.2878 20.7815 30.0526 20.7494 29.8193 20.7712H22.5871V16.3496H31.1469Z" fill="white"></path> <path d="M47.3409 33.282C47.6671 33.5341 48.0809 33.651 48.4939 33.6076H49.4546C49.707 33.647 49.9652 33.6282 50.2087 33.5525C50.4523 33.4768 50.6745 33.3465 50.8577 33.1718C51.0409 32.997 51.18 32.7828 51.2639 32.5461C51.3479 32.3093 51.3744 32.0566 51.3413 31.8081V14.2588C51.3413 13.1106 50.7124 12.545 49.4546 12.545C48.1969 12.545 47.6029 13.1106 47.6029 14.2588V26.2554H47.4282L43.9345 20.1714C42.8164 18.1834 41.681 16.1783 40.4407 14.1217C40.2333 13.7506 39.9811 13.4053 39.6895 13.0935C39.522 12.9398 39.3235 12.8223 39.1069 12.7486C38.8902 12.6748 38.6603 12.6463 38.4317 12.665H37.4185C37.1646 12.6249 36.9046 12.6439 36.6595 12.7205C36.4144 12.7971 36.1911 12.929 36.0075 13.1058C35.8239 13.2826 35.6852 13.4992 35.6026 13.7381C35.52 13.9771 35.4958 14.2318 35.5319 14.4816V32.0823C35.5115 32.3224 35.543 32.5641 35.6243 32.7915C35.7055 33.0189 35.8348 33.2269 36.0035 33.4019C36.4287 33.6599 36.9187 33.7965 37.4185 33.7965C37.9184 33.7965 38.4084 33.6599 38.8335 33.4019C39.0023 33.2269 39.1315 33.0189 39.2128 32.7915C39.2941 32.5641 39.3255 32.3224 39.3052 32.0823V19.7087H39.41L46.5897 32.4251C46.7662 32.7416 46.99 33.0304 47.2536 33.282" fill="white"></path> <path d="M67.4653 16.3496C67.7008 16.3676 67.9375 16.3339 68.1581 16.2509C68.3787 16.1679 68.5777 16.0377 68.7405 15.8698C69.0393 15.488 69.1881 15.0135 69.1598 14.533C69.1854 14.0581 69.0367 13.5899 68.7405 13.2134C68.5777 13.0454 68.3787 12.9152 68.1581 12.8322C67.9375 12.7492 67.7008 12.7155 67.4653 12.7335H56.9839C55.7087 12.7335 55.0623 13.3333 55.0623 14.533V31.8081C55.0457 32.0568 55.0847 32.306 55.1764 32.5385C55.2681 32.7709 55.4104 32.981 55.5933 33.1539C55.7763 33.3269 55.9955 33.4586 56.2356 33.5399C56.4758 33.6212 56.7312 33.6501 56.9839 33.6247H67.4653C67.7022 33.6405 67.9397 33.6041 68.1604 33.5181C68.3811 33.4321 68.5793 33.2987 68.7405 33.1277C69.0381 32.7519 69.187 32.2832 69.1598 31.8081C69.1881 31.3275 69.0393 30.8531 68.7405 30.4713C68.5777 30.3034 68.3787 30.1732 68.1581 30.0902C67.9375 30.0071 67.7008 29.9734 67.4653 29.9914H58.888V24.3873H66.1376C66.3667 24.4085 66.5976 24.3778 66.8127 24.2976C67.0277 24.2174 67.2211 24.0897 67.3779 23.9246C67.6651 23.5378 67.807 23.0656 67.7797 22.5878C67.8042 22.1104 67.6625 21.6391 67.3779 21.2511C67.2245 21.0807 67.0321 20.9484 66.8166 20.865C66.601 20.7816 66.3683 20.7494 66.1376 20.7712H58.888V16.3496H67.4653Z" fill="white"></path> <path d="M85.3537 14.4815C84.7512 13.9136 84.0383 13.4706 83.2574 13.179C82.3768 12.8743 81.4486 12.7235 80.5148 12.7334H73.8067C73.5544 12.694 73.2962 12.7129 73.0526 12.7885C72.8091 12.8642 72.5869 12.9946 72.4037 13.1693C72.2205 13.344 72.0814 13.5583 71.9974 13.795C71.9135 14.0317 71.887 14.2844 71.9201 14.5329V31.9622C71.9042 32.2078 71.9424 32.4538 72.0321 32.6836C72.1217 32.9134 72.2608 33.1216 72.4398 33.2939C72.6188 33.4663 72.8336 33.5988 73.0694 33.6825C73.3053 33.7662 73.5568 33.799 73.8067 33.7789C74.0594 33.8159 74.3173 33.7947 74.5601 33.7168C74.8029 33.6389 75.0239 33.5065 75.2053 33.3301C75.3868 33.1537 75.5239 32.9382 75.6055 32.7008C75.6872 32.4633 75.7113 32.2104 75.6759 31.9622V25.8268H79.1697L83.0303 32.682C83.1921 32.9957 83.4482 33.2529 83.764 33.419C84.0665 33.5926 84.4094 33.687 84.7598 33.6932C85.0121 33.6932 85.2614 33.6396 85.4906 33.536C85.7198 33.4325 85.9234 33.2815 86.0874 33.0933C86.4033 32.7492 86.5831 32.3053 86.594 31.8423C86.612 31.6828 86.612 31.5219 86.594 31.3624C86.554 31.1967 86.4829 31.0398 86.3844 30.8997L83.3098 25.4841C83.9948 25.2748 84.6261 24.9242 85.1616 24.4558C85.6499 24.0301 86.0528 23.5186 86.3495 22.9477C86.6448 22.3784 86.8621 21.7733 86.9958 21.1482C87.1235 20.4872 87.1878 19.8158 87.188 19.143C87.1996 18.231 87.0397 17.3247 86.7163 16.4695C86.4106 15.7047 85.9466 15.0103 85.3537 14.4301V14.4815ZM82.8033 21.2853C82.6289 21.5608 82.3839 21.7866 82.0926 21.94C81.8014 22.0934 81.4741 22.169 81.1437 22.1593H75.7108V16.3496H80.9515C81.215 16.3561 81.4752 16.4083 81.7202 16.5038C82.0185 16.5979 82.2885 16.7627 82.5063 16.9837C82.7647 17.2343 82.9722 17.5309 83.1177 17.8577C83.2972 18.2806 83.3807 18.7367 83.3623 19.1945C83.3901 19.9511 83.183 20.6982 82.7683 21.3367" fill="white"></path> <path d="M104.691 33.2648C104.879 33.1125 105.029 32.9212 105.132 32.7049C105.235 32.4885 105.287 32.2524 105.285 32.0138C105.292 31.7906 105.25 31.5687 105.163 31.3625L99.049 14.2246C98.9131 13.8139 98.6931 13.4349 98.4026 13.1106C98.2282 12.9629 98.0257 12.8506 97.8069 12.78C97.588 12.7094 97.3571 12.682 97.1274 12.6993H96.184C95.9527 12.6781 95.7194 12.7054 95.4996 12.7792C95.2797 12.8531 95.0784 12.9719 94.9088 13.1277C94.6318 13.455 94.4133 13.8258 94.2625 14.2246L88.1833 31.3625C88.1733 31.4766 88.1733 31.5912 88.1833 31.7053C88.1763 31.8194 88.1763 31.9339 88.1833 32.048C88.1865 32.276 88.2361 32.501 88.329 32.71C88.422 32.9189 88.5566 33.1075 88.7248 33.2648C88.9302 33.4521 89.1727 33.5959 89.4371 33.6873C89.7016 33.7787 89.9824 33.8157 90.2621 33.7961C90.6583 33.8305 91.0538 33.7227 91.3751 33.4926C91.6964 33.2625 91.9216 32.9258 92.009 32.545L93.0222 28.9632H100.184L101.512 32.5279C101.61 32.8847 101.823 33.2009 102.118 33.4295C102.414 33.658 102.778 33.7866 103.154 33.7961C103.717 33.8203 104.268 33.6299 104.691 33.2648ZM94.3323 25.4842L96.6033 18.8004H96.7256C97.1274 19.9144 97.5117 21.0455 97.8785 22.228C98.2454 23.4105 98.6122 24.4559 98.9965 25.5527L94.3323 25.4842Z" fill="white"></path> <path d="M120.221 15.8698C120.532 15.4935 120.688 15.0165 120.658 14.533C120.685 14.0551 120.529 13.5845 120.221 13.2134C120.055 13.0451 119.853 12.9148 119.63 12.8319C119.406 12.7489 119.167 12.7154 118.929 12.7335H106.298C106.063 12.7155 105.826 12.7493 105.606 12.8323C105.385 12.9153 105.186 13.0455 105.023 13.2134C104.727 13.5899 104.578 14.0581 104.604 14.533C104.576 15.0135 104.724 15.488 105.023 15.8698C105.186 16.0377 105.385 16.1679 105.606 16.2509C105.826 16.3339 106.063 16.3677 106.298 16.3496H110.736V32.0137C110.736 33.1963 111.364 33.7275 112.622 33.7275C113.88 33.7275 114.526 33.1449 114.526 32.0137V16.3496H118.929C119.167 16.3678 119.406 16.3343 119.63 16.2513C119.853 16.1684 120.055 16.0381 120.221 15.8698Z" fill="white"></path> <path d="M125.183 33.779C125.69 33.8163 126.194 33.6699 126.598 33.3677C126.764 33.1912 126.89 32.9825 126.968 32.7552C127.046 32.5278 127.075 32.2869 127.052 32.048V14.2931C127.052 13.1449 126.423 12.5793 125.183 12.5793C123.943 12.5793 123.279 13.162 123.279 14.2931V32.048C123.256 32.2869 123.285 32.5278 123.363 32.7552C123.442 32.9825 123.568 33.1912 123.733 33.3677C124.148 33.6752 124.665 33.8216 125.183 33.779Z" fill="white"></path> <path d="M140.066 12.7334H137.201C136.337 12.7213 135.478 12.8666 134.668 13.1619C133.919 13.4369 133.243 13.8766 132.694 14.4472C132.138 15.0528 131.716 15.7647 131.454 16.538C131.139 17.4662 130.986 18.4393 130.999 19.4172V27.0436C130.976 28.0726 131.129 29.0982 131.454 30.077C131.709 30.85 132.153 31.5501 132.746 32.1164C133.312 32.6349 133.985 33.0267 134.72 33.2647C135.523 33.5127 136.36 33.6341 137.201 33.6246H140.188C141.034 33.6277 141.874 33.4827 142.669 33.1961C143.416 32.9261 144.092 32.4924 144.643 31.9279C145.222 31.3273 145.668 30.6154 145.953 29.8371C146.282 28.9121 146.442 27.9374 146.425 26.9579V19.4172C146.55 17.6237 145.996 15.848 144.87 14.4301C144.257 13.8271 143.517 13.3616 142.703 13.0658C141.889 12.7699 141.019 12.6507 140.153 12.7163L140.066 12.7334ZM142.704 27.3178C142.729 28.0907 142.454 28.8441 141.935 29.4258C141.651 29.728 141.3 29.9623 140.91 30.1109C140.519 30.2594 140.099 30.3182 139.682 30.2827H137.655C137.247 30.3055 136.838 30.2406 136.458 30.0926C136.078 29.9446 135.735 29.717 135.454 29.4258C134.957 28.8478 134.702 28.1072 134.738 27.3521V19.0402C134.715 18.287 134.969 17.5509 135.454 16.9665C135.735 16.6766 136.078 16.4522 136.459 16.3098C136.84 16.1675 137.249 16.1108 137.655 16.1439H139.629C140.049 16.1026 140.473 16.1551 140.87 16.2976C141.266 16.4401 141.624 16.6688 141.918 16.9665C142.398 17.5525 142.646 18.2889 142.616 19.0402L142.704 27.3178Z" fill="white"></path> <path d="M163.632 33.6076C163.884 33.647 164.142 33.6282 164.386 33.5525C164.629 33.4768 164.852 33.3465 165.035 33.1718C165.218 32.997 165.357 32.7828 165.441 32.5461C165.525 32.3093 165.551 32.0566 165.518 31.8081V14.2588C165.518 13.1106 164.889 12.545 163.632 12.545C162.374 12.545 161.728 13.1106 161.728 14.2588V26.2554H161.605L158.111 20.1714C156.993 18.1834 155.858 16.1783 154.618 14.1217C154.41 13.7506 154.158 13.4053 153.867 13.0935C153.699 12.9398 153.501 12.8223 153.284 12.7486C153.067 12.6748 152.837 12.6463 152.609 12.665H151.596C151.342 12.6371 151.084 12.6677 150.844 12.7545C150.605 12.8412 150.389 12.9818 150.214 13.1648C150.039 13.3479 149.91 13.5685 149.838 13.809C149.765 14.0495 149.751 14.3033 149.796 14.5502V32.0823C149.776 32.3224 149.807 32.5641 149.889 32.7915C149.97 33.0189 150.099 33.2269 150.268 33.4019C150.693 33.6599 151.183 33.7965 151.683 33.7965C152.183 33.7965 152.673 33.6599 153.098 33.4019C153.267 33.2269 153.396 33.0189 153.477 32.7915C153.558 32.5641 153.59 32.3224 153.57 32.0823V19.7087H153.674L160.854 32.4251C161.031 32.7416 161.254 33.0304 161.518 33.282C161.85 33.5351 162.27 33.6519 162.688 33.6076H163.632Z" fill="white"></path> </g> <defs> <clipPath id="clip0_171_53"> <rect width="221" height="40" fill="white"></rect> </clipPath> </defs> </svg> 