<?xml version="1.0" encoding="UTF-8"?> <svg xmlns="http://www.w3.org/2000/svg" xmlns:xlink="http://www.w3.org/1999/xlink" version="1.1" x="0px" y="0px" viewBox="0 0 692.4 330.4" style="enable-background:new 0 0 692.4 330.4;" xml:space="preserve"> <style type="text/css"> .st0{fill-rule:evenodd;clip-rule:evenodd;fill:#FFFFFF;} </style> <g id="Слой_2"> </g> <g id="Layer_1"> <g> <path class="st0" d="M535.6,229.6c3,0,18.9,6.2,17,3.9c-2.6-3.2-18.3-9.9-22.6-12.1c-3.4-1.7-7.7-6.4-14-8.8 c-4.7-1.9-10.8-1.9-9.5-3.7c1.3-1.9,14.9-3.6,22.6-7.1c7.5-3.5,20.5-12.1,17.7-11.8c-2.2,0.2-13.5,3.6-11,2.2 c2.1-2.1,14.9-6,18.5-9.9c-0.1,0-0.3,0-0.4,0c-4.7,0-22.5,5.7-30.8,8.1c-8.4,2.4-23.7,6-31,7.3c-7.3,1.3-11.8,3.9-9.3,4.9 c2.4,1.1,2.6,1.7,0.2,2.4c-2.4,0.6-11.4,0.8-9.9,1.9c1.5,1.1,4.7,0.4,5.6,1.3c0.9,1.1,5,2.4,6.7,3c1.7,0.6,4.3,1.5,7.7,3.9 c3.4,2.4,5.8,6.2,8.8,8.6c2.8,2.2,14.2,7.1,22.8,10.1c8.6,3,19.1,2.6,20,1.5C545.5,234.1,532.4,229.4,535.6,229.6z"></path> <path class="st0" d="M613.9,160.7c-2.8-0.9-8-10.1-13.8-17.4c-5.6-7.3-14.6-17.6-18.9-21.9c-2.1-2.6-3.2-2.6-4.1-2.2 c-0.9,0.4-2.1-1.9-1.1-3.9c1.3-2.8,2.1-13.8,1.5-16.3c-0.4-0.9-1.2-0.2-1.9,0.5c-0.6,0.6-1.2,1.2-1.5,0.8c-0.9-0.7-0.7-4.5,2.2-8 c2.1-2.7,2.3-5,1.2-5c-0.4,0-0.9,0.3-1.6,0.9c-2.8,2.2-11.2,12.1-14.2,19.4c-1.7,3.9-6.2,28.2-6.9,38.9c-0.7,10.8-0.7,32.1,0.9,31 c1.1-0.7,1.7-9.5,2.6-9.3c0.7,1.1-0.6,24.7,0.6,24.3c3.6-1.5,10.8-62.6,12.7-63.3c0.8-0.4,4.4,5,7.5,10.5c3.1,5.3,6,10.7,5.7,10.5 c-1.3-0.4-6.4-4.5-3.7-0.4c2.8,4.1,26.7,32.3,31.6,31.6c1.5-0.2-0.6-2.8,1.3-4.3c1.9-1.5,47.3-11,47.5-10.5 c0.6,1.3-12,16.1-15.1,20.4c-3.2,4.3-1.5,4.3-3.4,8.2c-1.7,3.9-6.4,11.6-4.7,10.3c1.5-1.1,5.6-4.5,8.2-7.3c-0.2,3-6,9.7-8,12.3 c-1.9,2.6,6-1.3,6.9-2.1c1.7-1.3,16.1-18.3,17.4-20.4c0.8-1.4,1.5-0.7,2.4,0c0.5,0.4,1.2,0.8,1.9,0.8c1.9,0,5.8-8.4,8.4-12.3 c2.8-3.9,9-16.3,9.9-19.4c0.6-1.9-0.4-1.8-1.5-1.6c-0.7,0.1-1.4,0.2-1.9-0.2c-1.1-1.1,4.5-2.8,3.7-3.7c-0.6-0.9-15.3,2.6-20.7,3.2 C659.7,155.1,616.7,161.6,613.9,160.7z"></path> <path class="st0" d="M692.4,278c-1.3-1.1-17.8-6.5-18.9-8.2c-0.9-1.5-1.1-8.8-3-12.1c-1.9-3.4-14.6-23.2-19.2-28.8 c-4.7-5.6-15.1-13.6-14-11.2c1.3,2.4,7.5,12.5,5.6,10.7c-1.9-1.7-13.1-16.4-15.1-17c0,0,0,0-0.1,0c-1.7,0,12.1,22.7,16.3,29.2 c4.1,7.1,13.6,23.3,11,23.2c-2.6-0.2-35.3-14-40.4-16.2c-5-2.2-14.4-4.7-14-3.7c0.8,2.1,3.6,3.7,1.9,4.5c-1.7,0.7-5.8-3-10.1-5.4 c-4.3-2.4-2.4,1.1,0,3.7c2.2,2.2,5,3.7,4.1,6.2c-0.9,2.2-24.1,38.5-26.9,42.4c-2.8,4.1-2.6,5.8-3.4,9.9c-0.8,4.1-4.1,8.2-4.3,6.4 c-0.2-1.9,1.1-21.3,2.1-31.9c0.9-10.6,1.3-28.2,1.3-32.7c0-2.4-0.9-1.6-1.8-0.8c-0.8,0.7-1.6,1.4-1.7,0c-0.6-3,4.5-10.8,1.3-8.8 c-3.4,2.2-12.9,13.3-13.5,17.2c-0.4,2.6,0.4,18.5,0,26.9c-0.4,8.4,0.9,17.9,3.4,23.3c2.4,5.6,5.8,9.2,5.6,10.8 c-0.2,1.7-3.7,6.9-5.6,9.7c-1.9,2.8-3.7,7.8-0.6,3.9c3.2-3.9,44.8-57.7,48.8-63.3c3.9-5.6,5.8-7.8,6.4-6.7c0.6,1.1,0.6,3.2,3,4.1 c2.4,0.9,34.7,11.6,45,14c10.5,2.2,18.9,2.8,20,2.4c1.1-0.4-6.4-4.3-2.4-3.7C676.9,276.3,693.5,279.1,692.4,278z"></path> <path class="st0" d="M348,94.5c-0.2-1.5-0.7-2.9-1.3-4c-0.6-1.1-1.5-2-2.7-2.6c-1.2-0.6-2.7-0.9-4.6-0.9h-7.7V113h6.4 c2,0,3.6-0.2,4.9-0.6c1.3-0.4,2.3-0.9,3-1.6c0.7-0.7,1.3-1.6,1.6-2.7c0.3-1.1,0.5-2.3,0.6-3.7c0.1-1.4,0.1-3,0.1-4.7 C348.4,97.7,348.3,96,348,94.5z"></path> <path class="st0" d="M161.7,112.2c1.2-1,2-2.6,2.6-4.7c0.5-2.2,0.9-4.9,1-8.4c0.1-3.4,0.2-7.6,0.2-12.5c0-4.8,0-9-0.2-12.5 c-0.1-3.4-0.5-6.3-1-8.4c-0.5-2.2-1.4-3.8-2.6-4.8c-1.2-1-2.8-1.5-4.8-1.5c-2.1,0-3.7,0.5-5,1.5c-1.2,1-2.2,2.6-2.8,4.8 c-0.6,2.2-1,5-1.2,8.5c-0.2,3.4-0.3,7.6-0.3,12.4c0,4.9,0.1,9,0.3,12.5c0.2,3.5,0.6,6.2,1.2,8.4c0.6,2.2,1.5,3.7,2.8,4.7 c1.2,1,2.9,1.5,5,1.5C158.9,113.6,160.5,113.1,161.7,112.2z"></path> <path class="st0" d="M432.3,94.5c-0.2-1.5-0.7-2.9-1.3-4c-0.6-1.1-1.5-2-2.7-2.6c-1.2-0.6-2.7-0.9-4.6-0.9H416V113h6.4 c2,0,3.6-0.2,4.9-0.6c1.3-0.4,2.3-0.9,3-1.6c0.7-0.7,1.3-1.6,1.6-2.7c0.3-1.1,0.5-2.3,0.6-3.7c0.1-1.4,0.1-3,0.1-4.7 C432.6,97.7,432.5,96,432.3,94.5z"></path> <path class="st0" d="M214,151.7c-0.6-1-1.6-1.7-2.9-2.2c-1.3-0.5-3-0.7-5.2-0.7h-4.9v24.8h4.7c2.1,0,3.8-0.3,5.2-0.9 c1.3-0.6,2.3-1.5,3-2.6c0.7-1.2,1.1-2.5,1.4-4.2c0.2-1.7,0.3-3.6,0.3-5.7c0-1.9-0.1-3.5-0.3-4.9 C215.1,153.8,214.7,152.6,214,151.7z"></path> <path class="st0" d="M120.5,110.8c0.7-0.7,1.3-1.6,1.6-2.7c0.3-1.1,0.5-2.3,0.6-3.7c0.1-1.4,0.1-3,0.1-4.7c0-1.9-0.1-3.6-0.3-5 c-0.2-1.4-0.7-2.7-1.3-3.7c-0.6-1-1.5-1.7-2.7-2.2c-1.2-0.5-2.7-0.7-4.6-0.7h-7.7v25h6.4c2,0,3.6-0.2,4.9-0.6 C118.7,112.1,119.7,111.5,120.5,110.8z"></path> <path class="st0" d="M476.8,223.1c-5.2-4.9-29.3-24.1-12.7-30.5c9.2-3.5,71-19.2,72.9-23.9c3.4-8.4,3.2-64.6,23.9-89.1 c9.2-10.8,21.9-11,23.2,1.7c1.7,17.2,27.1,59.2,37.5,65.2c4.3,2.4,29-7.7,29-7.7V0H50.4L0,50.4v209.2h524c0-0.4-0.2-0.7-0.4-1.1 C513.9,241.2,484.8,230.5,476.8,223.1z M475.7,28.6c0,0,0.7-3.4,1-5.8c0.2-1.7,1.5-3.8,1.9-4c0.5-0.3,2.8,3.6,4.7,5.6 c0.8,0.9,1.7,1.7,2.7,2.1c3.9,1.5,9.5,0.1,9.6,0.7c-0.4,2.4-5.4,7-4.7,9.8c0.7,2.8,1.9,6.6,1.4,7.7c-0.4,1-7.5-4.2-8.4-3.3 c-1.1,0.9-6.5,5.4-7.7,5.8c-1.2,0.4-0.4-7.4-2.6-8.8c-2.3-1.4-6.8-3.8-6.8-4.3C466.9,32.4,475.1,30.8,475.7,28.6z M464.7,53.6h7.5 v45.6l16-45.6h9.1v65.9h-7.5V73.9l-16.1,45.5h-9V53.6z M97.9,53.6h13.9c3.2,0,5.9,0.3,8.1,0.7c2.1,0.5,3.8,1.2,5.1,2.1 c1.3,0.9,2.2,2.1,2.8,3.4c0.6,1.3,1,2.8,1.2,4.5c0.2,1.7,0.3,3.5,0.3,5.5c0,2.4-0.3,4.5-0.8,6.5c-0.6,1.9-1.5,3.6-2.7,4.9 c-1.3,1.3-2.9,2.3-5,2.8c2.6,0.6,4.7,1.5,6.2,2.9c1.6,1.4,2.7,3.1,3.4,5.2c0.7,2.1,1,4.5,1,7.2c0,2.3,0,4.4-0.2,6.4 c-0.1,2-0.4,3.9-1,5.5c-0.5,1.7-1.4,3.1-2.5,4.3c-1.2,1.2-2.8,2.2-4.8,2.8c-2.1,0.7-4.7,1-7.9,1h-17V53.6z M140.7,207.5h-7.3v-48 l-10.2,48h-8.5l-10.6-48v48h-6.7v-65.9h10.4l11.4,52.3l11.6-52.3h9.8V207.5z M143,115.1c-1.3-1.8-2.3-4.1-2.9-6.8 c-0.6-2.7-1-5.9-1.2-9.5c-0.2-3.6-0.3-7.7-0.3-12.2c0-4.5,0.1-8.5,0.3-12.1c0.2-3.6,0.6-6.8,1.2-9.5c0.6-2.7,1.6-5,2.9-6.9 c1.3-1.8,3.1-3.2,5.4-4.2c2.3-0.9,5.1-1.4,8.6-1.4c3.4,0,6.3,0.4,8.5,1.4c2.2,0.9,4,2.2,5.3,4.1c1.3,1.8,2.2,4.1,2.8,6.8 c0.6,2.7,1,5.9,1.1,9.6c0.1,3.7,0.2,7.8,0.2,12.4c0,4.6,0,8.7-0.2,12.4c-0.2,3.7-0.5,6.8-1.1,9.5c-0.6,2.7-1.5,5-2.8,6.8 c-1.3,1.8-3,3.1-5.3,4c-2.2,0.9-5.1,1.3-8.5,1.3c-3.5,0-6.3-0.5-8.6-1.4C146.1,118.3,144.3,116.9,143,115.1z M182.7,207.5h-7.5 V162l-16.1,45.5h-9v-65.9h7.5v45.6l16-45.6h9.1V207.5z M180.7,120.6l0.3-7c1.9,0,3.5-0.5,4.6-1.5c1.1-1,2-2.6,2.5-4.7 c0.5-2.2,0.9-4.9,1-8.4c0.2-3.4,0.2-7.6,0.2-12.5v-33h27.5v65.9H208V60.6h-9.8v26c0,4.5,0,8.6-0.2,12.2c-0.1,3.6-0.5,6.8-1.1,9.5 c-0.6,2.7-1.5,5-2.7,6.8c-1.3,1.8-3,3.2-5.2,4.1C186.8,120.2,184.1,120.6,180.7,120.6z M223.4,168.3c-0.6,2.6-1.6,4.8-3,6.6 c-1.4,1.8-3.4,3.2-6,4.2c-2.5,1-5.8,1.4-9.7,1.4h-3.6v27.1h-8.7v-65.9h11.4c4.2,0,7.6,0.4,10.2,1.2c2.7,0.8,4.8,1.9,6.2,3.4 c1.5,1.5,2.5,3.4,3.1,5.6c0.6,2.2,0.9,4.8,0.8,7.7C224.3,162.8,224,165.7,223.4,168.3z M279.5,119.5h-52.9V53.6h8.8v58.9h13.3 V53.6h8.8v58.9h13.3V53.6h8.8V119.5z M315.1,119.5h-25.7V53.6h25.3v6.9h-16.5v20.8H312l-0.6,7h-13.3v24.5h17V119.5z M356.7,105.7 c-0.1,2-0.4,3.9-1,5.5c-0.5,1.7-1.4,3.1-2.5,4.3c-1.2,1.2-2.8,2.2-4.8,2.8c-2.1,0.7-4.7,1-7.9,1h-17V53.6h28.9v6.9h-20.6v20.2h6.6 c3.2,0,6,0.3,8.2,1c2.2,0.6,4,1.6,5.4,2.7c1.4,1.2,2.4,2.5,3.1,4.1c0.7,1.6,1.2,3.3,1.5,5.1c0.3,1.8,0.4,3.8,0.4,5.7 C356.9,101.6,356.8,103.7,356.7,105.7z M397.8,119.5H389V88.9h-15.2v30.6H365V53.6h8.8V82H389V53.6h8.8V119.5z M440.9,105.7 c-0.1,2-0.4,3.9-1,5.5c-0.5,1.7-1.4,3.1-2.5,4.3c-1.2,1.2-2.8,2.2-4.8,2.8c-2.1,0.7-4.7,1-7.9,1h-17V53.6h8.3v27.1h6.6 c3.2,0,6,0.3,8.2,1c2.2,0.6,4,1.6,5.4,2.7c1.4,1.2,2.4,2.5,3.1,4.1c0.7,1.6,1.2,3.3,1.5,5.1c0.3,1.8,0.4,3.8,0.4,5.7 C441.1,101.6,441,103.7,440.9,105.7z M455,119.5h-8.8V53.6h8.8V119.5z"></path> <path class="st0" d="M117,80.9c1.1-0.5,1.8-1.3,2.4-2.3c0.5-1,0.9-2.2,1-3.5c0.2-1.4,0.3-2.9,0.2-4.5c0-1.9-0.1-3.5-0.3-4.8 c-0.2-1.3-0.6-2.4-1.3-3.2c-0.6-0.8-1.5-1.4-2.6-1.7c-1.2-0.4-2.6-0.5-4.4-0.5h-5.8v21.4h6.6C114.6,81.7,116,81.4,117,80.9z"></path> </g> </g> </svg> 