<?xml version="1.0" encoding="UTF-8"?> <svg xmlns="http://www.w3.org/2000/svg" width="1121" height="300" viewBox="0 0 1121 300" fill="none"><path d="M300 150C300 169.698 296.12 189.204 288.582 207.402C281.044 225.601 269.995 242.137 256.066 256.066C242.137 269.995 225.601 281.044 207.402 288.582C189.204 296.12 169.698 300 150 300C130.302 300 110.796 296.12 92.5975 288.582C74.3986 281.044 57.8628 269.995 43.934 256.066C30.0052 242.137 18.9563 225.601 11.4181 207.402C3.87986 189.204 -1.72208e-06 169.698 0 150L88.2 150C88.2 158.116 89.7985 166.152 92.9042 173.65C96.01 181.148 100.562 187.961 106.301 193.699C112.039 199.438 118.852 203.99 126.35 207.096C133.848 210.201 141.884 211.8 150 211.8C158.116 211.8 166.152 210.201 173.65 207.096C181.148 203.99 187.961 199.438 193.699 193.699C199.438 187.961 203.99 181.148 207.096 173.65C210.201 166.152 211.8 158.116 211.8 150H300Z" fill="url(#paint0_radial_448_229)"></path><path d="M0 150C1.72208e-06 130.302 3.87987 110.796 11.4181 92.5975C18.9563 74.3986 30.0052 57.8628 43.934 43.934C57.8628 30.0052 74.3987 18.9563 92.5975 11.4181C110.796 3.87986 130.302 -2.58312e-06 150 0C169.698 2.58312e-06 189.204 3.87987 207.403 11.4181C225.601 18.9563 242.137 30.0052 256.066 43.934C269.995 57.8628 281.044 74.3987 288.582 92.5975C296.12 110.796 300 130.302 300 150L211.8 150C211.8 141.884 210.201 133.848 207.096 126.35C203.99 118.852 199.438 112.039 193.699 106.301C187.961 100.562 181.148 96.01 173.65 92.9042C166.152 89.7985 158.116 88.2 150 88.2C141.884 88.2 133.848 89.7985 126.35 92.9042C118.852 96.01 112.039 100.562 106.301 106.301C100.562 112.039 96.01 118.852 92.9042 126.35C89.7985 133.848 88.2 141.884 88.2 150L0 150Z" fill="url(#paint1_radial_448_229)"></path><path d="M0 150C1.72208e-06 130.302 3.87987 110.796 11.4181 92.5975C18.9563 74.3986 30.0052 57.8628 43.934 43.934C57.8628 30.0052 74.3987 18.9563 92.5975 11.4181C110.796 3.87986 130.302 -2.58312e-06 150 0C169.698 2.58312e-06 189.204 3.87987 207.403 11.4181C225.601 18.9563 242.137 30.0052 256.066 43.934C269.995 57.8628 281.044 74.3987 288.582 92.5975C296.12 110.796 300 130.302 300 150L211.8 150C211.8 141.884 210.201 133.848 207.096 126.35C203.99 118.852 199.438 112.039 193.699 106.301C187.961 100.562 181.148 96.01 173.65 92.9042C166.152 89.7985 158.116 88.2 150 88.2C141.884 88.2 133.848 89.7985 126.35 92.9042C118.852 96.01 112.039 100.562 106.301 106.301C100.562 112.039 96.01 118.852 92.9042 126.35C89.7985 133.848 88.2 141.884 88.2 150L0 150Z" fill="url(#paint2_linear_448_229)"></path><path d="M0 150C1.72208e-06 130.302 3.87987 110.796 11.4181 92.5975C18.9563 74.3986 30.0052 57.8628 43.934 43.934C57.8628 30.0052 74.3987 18.9563 92.5975 11.4181C110.796 3.87986 130.302 -2.58312e-06 150 0C169.698 2.58312e-06 189.204 3.87987 207.403 11.4181C225.601 18.9563 242.137 30.0052 256.066 43.934C269.995 57.8628 281.044 74.3987 288.582 92.5975C296.12 110.796 300 130.302 300 150L211.8 150C211.8 141.884 210.201 133.848 207.096 126.35C203.99 118.852 199.438 112.039 193.699 106.301C187.961 100.562 181.148 96.01 173.65 92.9042C166.152 89.7985 158.116 88.2 150 88.2C141.884 88.2 133.848 89.7985 126.35 92.9042C118.852 96.01 112.039 100.562 106.301 106.301C100.562 112.039 96.01 118.852 92.9042 126.35C89.7985 133.848 88.2 141.884 88.2 150L0 150Z" fill="url(#paint3_linear_448_229)"></path><path d="M0 150C1.72208e-06 130.302 3.87987 110.796 11.4181 92.5975C18.9563 74.3986 30.0052 57.8628 43.934 43.934C57.8628 30.0052 74.3987 18.9563 92.5975 11.4181C110.796 3.87986 130.302 -2.58312e-06 150 0C169.698 2.58312e-06 189.204 3.87987 207.403 11.4181C225.601 18.9563 242.137 30.0052 256.066 43.934C269.995 57.8628 281.044 74.3987 288.582 92.5975C296.12 110.796 300 130.302 300 150L211.8 150C211.8 141.884 210.201 133.848 207.096 126.35C203.99 118.852 199.438 112.039 193.699 106.301C187.961 100.562 181.148 96.01 173.65 92.9042C166.152 89.7985 158.116 88.2 150 88.2C141.884 88.2 133.848 89.7985 126.35 92.9042C118.852 96.01 112.039 100.562 106.301 106.301C100.562 112.039 96.01 118.852 92.9042 126.35C89.7985 133.848 88.2 141.884 88.2 150L0 150Z" fill="url(#paint4_linear_448_229)"></path><rect x="211.74" y="148.236" width="88.2254" height="151.764" fill="white"></rect><path d="M397.936 91.3061L388.004 115.317H411.726L402.083 91.3061H397.936ZM390.415 80.6025H409.99L432.65 133.927H419.922L416.451 125.827H383.569L380.097 133.927H367.176L390.415 80.6025Z" fill="white"></path><path d="M446.175 80.6025H458.132V100.274H473.657L487.061 80.6025H500.946L483.879 105.288L502.2 133.927H487.929L473.947 111.267H458.132V133.927H446.175V80.6025Z" fill="white"></path><path d="M543.886 91.3061L533.953 115.317H557.675L548.032 91.3061H543.886ZM536.364 80.6025H555.939L578.6 133.927H565.871L562.4 125.827H529.518L526.046 133.927H513.125L536.364 80.6025Z" fill="white"></path><path d="M605.817 80.6025H648.342V123.127H654.61V144.149H644.196L643.231 133.927H602.057L601.092 144.149H590.678V123.127H597.428L605.817 80.6025ZM615.653 91.1132L609.964 123.127H636.289V91.1132H615.653Z" fill="white"></path><path d="M668.63 80.6025H717.037V91.4989H680.684V101.335H713.373V112.231H680.684V122.838H718.387V133.927H668.63V80.6025Z" fill="white"></path><path d="M733.177 80.6025H749.281L767.988 119.27H768.47L787.948 80.6025H803.377V133.927H791.516V96.6096H790.937L772.905 133.927H762.78L745.423 96.6096H744.845V133.927H733.177V80.6025Z" fill="white"></path><path d="M818.817 80.6025H830.774V117.631L862.499 80.6025H874.167V133.927H862.21V97.0918L830.582 133.927H818.817V80.6025Z" fill="white"></path><path d="M941.168 80.6025V133.927H929.114V122.067H909.25L902.982 133.927H889.868L898.065 119.27C891.797 115.895 887.747 109.724 887.747 101.527C887.747 88.9918 897.197 80.6025 909.732 80.6025H941.168ZM929.114 91.5953H910.215C904.043 91.5953 899.8 95.356 899.8 101.527C899.8 107.699 904.043 111.074 910.215 111.074H929.114V91.5953Z" fill="white"></path><path d="M369.104 187.745H381.061V224.773L412.786 187.745H424.454V241.07H412.497V204.234L380.869 241.07H369.104V187.745Z" fill="white"></path><path d="M439.866 187.745H451.92V208.091H482.005V187.745H494.059V241.07H482.005V218.891H451.92V241.07H439.866V187.745Z" fill="white"></path><path d="M509.498 187.745H521.551V208.091H551.637V187.745H563.69V241.07H551.637V218.891H521.551V241.07H509.498V187.745Z" fill="white"></path><path d="M590.411 214.456C590.411 225.448 598.222 232.102 608.251 232.102C618.279 232.102 626.09 225.448 626.09 214.456C626.09 203.463 618.279 196.809 608.251 196.809C598.222 196.809 590.411 203.463 590.411 214.456ZM638.143 214.456C638.143 231.234 624.451 242.42 608.251 242.42C592.051 242.42 578.358 231.234 578.358 214.456C578.358 197.677 592.051 186.491 608.251 186.491C624.451 186.491 638.143 197.677 638.143 214.456Z" fill="white"></path><path d="M652.81 187.745H687.139C696.781 187.745 703.628 193.338 703.628 202.016C703.628 205.873 702.278 209.152 699.481 211.081C704.399 213.588 707.292 217.927 707.292 224.484C707.292 233.645 699.867 241.07 689.742 241.07H652.81V187.745ZM664.864 198.545V208.284H687.524C690.128 208.284 691.864 205.873 691.864 203.463C691.864 201.148 690.61 198.545 686.56 198.545H664.864ZM664.864 218.795V230.173H689.356C693.214 230.173 695.528 227.763 695.528 224.484C695.528 221.013 693.117 218.795 689.646 218.795H664.864Z" fill="white"></path><path d="M747.036 198.448L737.104 222.459H760.826L751.183 198.448H747.036ZM739.515 187.745H759.09L781.75 241.07H769.022L765.551 232.97H732.669L729.197 241.07H716.276L739.515 187.745Z" fill="white"></path><path d="M784.683 187.745H840.129V198.545H818.433V241.07H806.38V198.545H784.683V187.745Z" fill="white"></path><path d="M863.005 214.456C863.005 225.448 870.816 232.102 880.845 232.102C890.873 232.102 898.684 225.448 898.684 214.456C898.684 203.463 890.873 196.809 880.845 196.809C870.816 196.809 863.005 203.463 863.005 214.456ZM910.737 214.456C910.737 231.234 897.045 242.42 880.845 242.42C864.645 242.42 850.952 231.234 850.952 214.456C850.952 197.677 864.645 186.491 880.845 186.491C897.045 186.491 910.737 197.677 910.737 214.456Z" fill="white"></path><path d="M925.404 187.745H956.84C969.375 187.745 978.825 196.134 978.825 208.67C978.825 221.205 969.375 229.209 956.84 229.209H937.458V241.07H925.404V187.745ZM937.458 198.738V218.216H956.358C962.529 218.216 966.772 214.841 966.772 208.67C966.772 202.498 962.529 198.738 956.358 198.738H937.458Z" fill="white"></path><path d="M1003.68 214.456C1003.68 225.448 1011.49 232.102 1021.52 232.102C1031.55 232.102 1039.36 225.448 1039.36 214.456C1039.36 203.463 1031.55 196.809 1021.52 196.809C1011.49 196.809 1003.68 203.463 1003.68 214.456ZM1051.41 214.456C1051.41 231.234 1037.72 242.42 1021.52 242.42C1005.32 242.42 991.628 231.234 991.628 214.456C991.628 197.677 1005.32 186.491 1021.52 186.491C1037.72 186.491 1051.41 197.677 1051.41 214.456Z" fill="white"></path><path d="M1066.08 187.745H1100.41C1110.05 187.745 1116.9 193.338 1116.9 202.016C1116.9 205.873 1115.55 209.152 1112.75 211.081C1117.67 213.588 1120.56 217.927 1120.56 224.484C1120.56 233.645 1113.14 241.07 1103.01 241.07H1066.08V187.745ZM1078.13 198.545V208.284H1100.79C1103.4 208.284 1105.13 205.873 1105.13 203.463C1105.13 201.148 1103.88 198.545 1099.83 198.545H1078.13ZM1078.13 218.795V230.173H1102.63C1106.48 230.173 1108.8 227.763 1108.8 224.484C1108.8 221.013 1106.39 218.795 1102.92 218.795H1078.13Z" fill="white"></path><defs><radialGradient id="paint0_radial_448_229" cx="0" cy="0" r="1" gradientUnits="userSpaceOnUse" gradientTransform="translate(300 211.391) rotate(-150.184) scale(333.919 694.155)"><stop stop-color="white" stop-opacity="0.1"></stop><stop offset="1" stop-color="white"></stop></radialGradient><radialGradient id="paint1_radial_448_229" cx="0" cy="0" r="1" gradientUnits="userSpaceOnUse" gradientTransform="translate(300 211.391) rotate(-150.184) scale(333.919 694.155)"><stop stop-color="white" stop-opacity="0.1"></stop><stop offset="1" stop-color="white"></stop></radialGradient><linearGradient id="paint2_linear_448_229" x1="47.1774" y1="147.278" x2="130.645" y2="39.0121" gradientUnits="userSpaceOnUse"><stop offset="0.152804" stop-color="white" stop-opacity="0"></stop><stop offset="1" stop-color="white"></stop></linearGradient><linearGradient id="paint3_linear_448_229" x1="30.2419" y1="105.847" x2="172.681" y2="33.5685" gradientUnits="userSpaceOnUse"><stop offset="0.152804" stop-color="white" stop-opacity="0"></stop><stop offset="1" stop-color="white"></stop></linearGradient><linearGradient id="paint4_linear_448_229" x1="86.7943" y1="145.161" x2="211.694" y2="147.278" gradientUnits="userSpaceOnUse"><stop offset="0.107298" stop-color="white" stop-opacity="0"></stop><stop offset="1" stop-color="white"></stop></linearGradient></defs></svg> 