<?xml version="1.0" encoding="UTF-8"?> <svg xmlns="http://www.w3.org/2000/svg" xmlns:xlink="http://www.w3.org/1999/xlink" version="1.1" id="Слой_1" x="0px" y="0px" viewBox="0 0 515.9 417.7" style="enable-background:new 0 0 515.9 417.7;" xml:space="preserve"> <style type="text/css"> .st0{fill:#FFFFFF;} </style> <g> <g> <g> <g> <path class="st0" d="M0,300.8h12.8V321h5.3l10.8-20.2h13.7l-14.1,25v0.1l14.9,27.1H29.1l-11-21.2h-5.3v21.2H0V300.8z"></path> <path class="st0" d="M90.7,300.8h13.5l17.8,52.3h-13.2l-3.2-11H89.2l-3.1,11H72.9L90.7,300.8z M102.6,331.9l-2.9-10.2 c-1-3.3-2.1-9-2.1-9h-0.1c0,0-1.2,5.7-2.1,9l-3,10.2H102.6z"></path> <path class="st0" d="M156.5,300.8h44.2v52.3h-12.8v-41.4h-18.6v41.4h-12.8V300.8z"></path> <path class="st0" d="M240.9,300.8h12.8v24.4c0,3.3-0.6,8.9-0.6,8.9h0.1c0,0,2.3-5.5,4.4-8.9l14.5-24.4h12.9v52.3h-12.8v-24.4 c0-3.3,0.6-8.9,0.6-8.9h-0.1c0,0-2.3,5.5-4.4,8.9l-14.6,24.4h-12.9V300.8z"></path> <path class="st0" d="M336.7,311.7h-15.9v-11h44.5v11h-15.9v41.3h-12.8V311.7z"></path> <path class="st0" d="M408.9,300.8h13.5l17.8,52.3H427l-3.2-11h-16.3l-3.1,11h-13.2L408.9,300.8z M420.8,331.9l-2.9-10.2 c-1-3.3-2.1-9-2.1-9h-0.1c0,0-1.2,5.7-2.1,9l-3,10.2H420.8z"></path> <path class="st0" d="M480.8,318v-17.2h35.1v52.3h-12.8v-41.3H493v6.4c0,25.7-7.9,35.5-22.6,35.5V342 C476.6,341.2,480.8,336.7,480.8,318z"></path> </g> </g> <g> <g> <polygon class="st0" points="254.4,101.6 229.7,126.3 292.7,189.3 342.2,189.3 "></polygon> <polygon class="st0" points="342.2,0 311,0 292.7,0 208.7,84 208.7,70.4 279.1,0 229.6,0 208.7,20.9 208.7,0 173.7,0 173.7,189.3 208.7,189.3 208.7,147.3 208.7,133.5 222.8,119.4 247.5,94.7 "></polygon> </g> </g> </g> <g> <g> <path class="st0" d="M0,393.7h2.8v13c0,1.1-0.2,2.9-0.2,2.9h0.1c0,0,1-1.9,1.7-3l8.9-13H16v20h-2.8v-13c0-1.1,0.2-2.9,0.2-2.9 h-0.1c0,0-1,1.8-1.7,2.9l-8.9,13H0V393.7z"></path> <path class="st0" d="M29.8,393.7h2.8v8.8H43v-8.8h2.8v20H43v-8.8H32.6v8.8h-2.8V393.7z"></path> <path class="st0" d="M59.6,393.7h7c3.4,0,5.8,1.9,5.8,5.1c0,2-1,3.5-2.5,4.3v0.1c2.1,0.6,3.3,2.6,3.3,4.8c0,3.8-3,5.7-6.5,5.7 h-7.2V393.7z M66.6,402.1c1.8,0,3-1.3,3-3c0-1.8-1.1-3-3-3h-4.2v6H66.6z M66.9,411.3c2.2,0,3.4-1.4,3.4-3.4c0-2-1.3-3.4-3.4-3.4 h-4.5v6.8H66.9z"></path> <path class="st0" d="M85.8,393.7h11.7v2.4h-8.8v6.3h7.2v2.4h-7.2v6.4h9.3v2.4H85.8V393.7z"></path> <path class="st0" d="M118.9,393.3c2.6,0,5.4,0.8,7.3,2.6l-1.4,2.1c-1.5-1.3-3.7-2.2-5.8-2.2c-4.7,0-7.4,3.4-7.4,7.7 c0,4.3,2.8,7.9,7.5,7.9c2.2,0,4.5-1,6.2-2.6l1.5,2c-1.7,1.7-4.2,3.2-7.7,3.2c-6.2,0-10.3-4.6-10.3-10.5 C108.7,397.8,112.9,393.3,118.9,393.3z"></path> <path class="st0" d="M143.4,396.1h-6.9v-2.4h16.6v2.4h-6.9v17.6h-2.8V396.1z"></path> <path class="st0" d="M164.7,393.7h2.8v13c0,1.1-0.2,2.9-0.2,2.9h0.1c0,0,1-1.9,1.7-3l8.9-13h2.8v20h-2.8v-13 c0-1.1,0.2-2.9,0.2-2.9H178c0,0-1,1.8-1.7,2.9l-8.9,13h-2.8V393.7z"></path> <path class="st0" d="M194.5,393.7h2.8v17.6h9.8v-17.6h2.8v17.6h2.3v6.4h-2.5v-4h-15.2V393.7z"></path> <path class="st0" d="M224.5,393.7h2.8v13c0,1.1-0.2,2.9-0.2,2.9h0.1c0,0,1-1.9,1.7-3l8.9-13h2.8v20h-2.8v-13 c0-1.1,0.2-2.9,0.2-2.9h-0.1c0,0-1,1.8-1.7,2.9l-8.9,13h-2.8V393.7z"></path> <path class="st0" d="M263.3,393.3c5.8,0,10.3,4.5,10.3,10.2c0,5.9-4.5,10.5-10.3,10.5c-5.8,0-10.3-4.6-10.3-10.5 C253,397.8,257.5,393.3,263.3,393.3z M263.3,411.5c4.1,0,7.4-3.4,7.4-7.9c0-4.3-3.3-7.7-7.4-7.7c-4.1,0-7.4,3.3-7.4,7.7 C255.9,408,259.2,411.5,263.3,411.5z"></path> <path class="st0" d="M286.1,393.7h2.8v8.8h10.4v-8.8h2.8v20h-2.8v-8.8h-10.4v8.8h-2.8V393.7z"></path> <path class="st0" d="M315.9,393.7h2.8v8.8h10.4v-8.8h2.8v20h-2.8v-8.8h-10.4v8.8h-2.8V393.7z"></path> <path class="st0" d="M345.7,393.7h2.8v7.5h4.1c3.5,0,6.1,2.3,6.1,6.3c0,3.7-2.5,6.2-6,6.2h-7.1V393.7z M352.3,411.3 c2.2,0,3.6-1.4,3.6-3.7c0-2.4-1.4-3.9-3.6-3.9h-3.7v7.6H352.3z M361.5,393.7h2.8v20h-2.8V393.7z"></path> <path class="st0" d="M378.1,393.7h2.8v13c0,1.1-0.2,2.9-0.2,2.9h0.1c0,0,1-1.9,1.7-3l8.9-13h2.8v20h-2.8v-13 c0-1.1,0.2-2.9,0.2-2.9h-0.1c0,0-1,1.8-1.7,2.9l-8.9,13h-2.7V393.7z M382,389.1v-0.4h2.2v0.4c0,1.2,1,1.9,2,1.9c1,0,2-0.6,2-1.9 v-0.4h2.2v0.4c0,2.3-2,3.6-4.2,3.6C384,392.7,382,391.4,382,389.1z"></path> <path class="st0" d="M423.5,393.7h2.8v8.4h3l5.1-8.4h3.1l-5.8,9.5v0.1l6.2,10.5h-3.2l-5.3-9.2h-3v9.2h-2.8V393.7z"></path> <path class="st0" d="M451.7,398.4v-4.7h11.7v20h-2.8v-17.6h-6.2v2.3c0,9.6-1.7,15.2-7.2,15.5v-2.6 C450.5,410.9,451.7,406.6,451.7,398.4z"></path> <path class="st0" d="M477.9,410.6c0.5,0.4,1.3,1,2.3,1c1.2,0,1.7-0.9,2.3-2.2l-7.9-15.7h3.1l4.9,10.1c0.6,1.2,1.1,2.6,1.1,2.6 h0.1c0,0,0.4-1.4,0.9-2.6l3.7-10.1h3l-6.4,16.3c-0.8,2-2.1,4-4.6,4c-1.4,0-2.6-0.5-3.7-1.3L477.9,410.6z"></path> <path class="st0" d="M502.6,393.7h11.8v2.4h-9v5.6h4.4c3.5,0,6.1,2.2,6.1,6c0,3.6-2.5,6-6,6h-7.3V393.7z M509.5,411.3 c2.2,0,3.6-1.3,3.6-3.5c0-2.2-1.4-3.6-3.6-3.6h-4v7.1H509.5z"></path> </g> </g> </g> </svg> 