<?xml version="1.0" encoding="UTF-8"?> <svg xmlns="http://www.w3.org/2000/svg" id="_лого" data-name="лого" viewBox="0 0 1080.08 1058.59"><defs><style> .cls-1 { fill: #fff; } </style></defs><path class="cls-1" d="M282.12,345.63c-.49-31.54,24.71-58.21,60.98-57.72,18.21,0,30.08,5.85,35.77,9.75v18.7c-.98-1.63-16.42-11.87-35.77-11.87-26.83,0-42.6,18.05-42.6,41.14s15.77,40.98,42.6,40.98c14.47,0,29.43-4.23,38.86-12.2v19.02c-2.6,1.46-13.98,9.92-38.86,9.92-36.26,.49-61.46-26.18-60.98-57.73Z"></path><path class="cls-1" d="M403.9,290.51h17.56v93.82h66.99v16.58h-84.56v-110.41Z"></path><path class="cls-1" d="M504.27,358.8v-68.29h17.72v67.97c0,19.67,12.52,27.8,27.48,27.8,17.72,0,27.48-8.13,27.48-27.8v-67.97h17.72v68.29c0,31.54-19.02,44.56-45.2,44.56s-45.2-13.01-45.2-44.56Z"></path><path class="cls-1" d="M708.36,367.42c0,22.77-15.61,33.5-39.02,33.5h-48.13v-110.41h45.21c23.9,0,35.94,8.78,35.94,28.46,0,12.52-7.64,20.17-18.37,21.95,14.96,1.3,24.39,12.03,24.39,26.5Zm-69.43-60.33v27.48h24.23c14.31,0,21.79-3.09,21.79-14.31-.65-12.36-8.94-13.17-20.81-13.17h-25.2Zm50.73,60c0-11.22-7.16-16.75-21.63-16.75h-29.11v33.98h29.11c14.47,0,21.63-5.69,21.63-17.24Z"></path><path class="cls-1" d="M307.16,491.22v26.67h50.08v16.59h-50.08v50.57h-17.72v-110.41h80.65v16.58h-62.93Z"></path><path class="cls-1" d="M395.04,474.64h17.72v110.41h-17.72v-110.41Z"></path><path class="cls-1" d="M531.87,585.04h-22.11l-31.55-42.76h-22.6v42.76h-17.72v-110.41h48.62c22.12,0,39.03,12.03,39.03,33.82,0,17.24-10.73,28.46-26.5,32.36l32.85,44.23Zm-46.67-59.03c12.03,0,22.11-5.37,22.11-17.23s-10.08-17.56-22.11-17.56h-29.59v34.8h29.59Z"></path><path class="cls-1" d="M541.57,576.26v-18.21c9.92,7.8,23.74,12.84,36.91,12.84,16.91,0,23.25-6.18,23.25-15.12,0-8.46-7.97-12.52-22.93-18.7-21.79-9.11-32.52-16.75-32.52-36.1,0-17.4,16.59-29.6,39.84-29.6,10.24-.16,19.51,3.09,27.48,8.46v19.02c-6.5-6.01-17.24-10.57-29.11-10.57-12.03,.16-20,4.55-20,12.68,0,9.75,7.32,12.84,22.28,19.02,22.11,9.11,33.17,16.58,33.17,35.93,0,18.21-16.42,31.71-41.46,31.71-18.21,0-30.57-5.85-36.91-11.38Z"></path><path class="cls-1" d="M670.48,491.22h-38.7v-16.58h94.96v16.58h-38.7v93.82h-17.56v-93.82Z"></path><path class="cls-1" d="M307.16,675.33v26.67h50.08v16.59h-50.08v50.57h-17.72v-110.41h80.65v16.58h-62.93Z"></path><path class="cls-1" d="M388.46,727.04v-68.29h17.72v67.97c0,19.67,12.52,27.8,27.48,27.8,17.72,0,27.48-8.13,27.48-27.8v-67.97h17.72v68.29c0,31.54-19.02,44.56-45.2,44.56s-45.2-13.01-45.2-44.56Z"></path><path class="cls-1" d="M536.25,675.33h-38.7v-16.58h94.96v16.58h-38.7v93.82h-17.56v-93.82Z"></path><path class="cls-1" d="M611.2,727.04v-68.29h17.72v67.97c0,19.67,12.52,27.8,27.48,27.8,17.72,0,27.48-8.13,27.48-27.8v-67.97h17.72v68.29c0,31.54-19.02,44.56-45.2,44.56s-45.2-13.01-45.2-44.56Z"></path><path class="cls-1" d="M820.72,769.15h-22.11l-31.55-42.76h-22.6v42.76h-17.72v-110.41h48.62c22.12,0,39.03,12.03,39.03,33.82,0,17.24-10.73,28.46-26.5,32.36l32.85,44.23Zm-46.67-59.03c12.03,0,22.11-5.37,22.11-17.23s-10.08-17.56-22.11-17.56h-29.59v34.8h29.59Z"></path><path class="cls-1" d="M918.77,752.57v16.58h-81.63v-110.41h81.63v16.58h-63.9v26.67h50.08v16.59h-50.08v33.98h63.9Z"></path><polygon class="cls-1" points="854.87 897.29 161.3 897.29 161.3 161.3 854.87 200.25 854.87 585.04 837.15 585.04 837.15 216.97 179.03 180.1 179.03 879.56 854.87 879.56 854.87 897.29"></polygon></svg> 