<?xml version="1.0" encoding="UTF-8"?> <svg xmlns="http://www.w3.org/2000/svg" viewBox="0 0 349.99 82"> <defs> <style>.cls-1{fill:#fff;}</style> </defs> <g id="Слой_2" data-name="Слой 2"> <g id="Capa_1" data-name="Capa 1"> <polygon class="cls-1" points="0 27.33 0 82 15.78 54.67 0 27.33"></polygon> <polygon class="cls-1" points="0 27.33 31.56 27.33 47.34 54.67 0 27.33"></polygon> <polygon class="cls-1" points="0 27.33 47.34 0 31.56 27.33 0 27.33"></polygon> <polygon class="cls-1" points="47.34 0 0 27.33 15.78 0 47.34 0"></polygon> <polygon class="cls-1" points="47.34 54.67 47.34 0 63.12 27.33 47.34 54.67"></polygon> <polygon class="cls-1" points="15.78 54.67 47.34 54.67 0 27.33 15.78 54.67"></polygon> <polygon class="cls-1" points="47.34 54.67 31.56 27.33 47.34 0 47.34 54.67"></polygon> <path class="cls-1" d="M102.87,48.07a12.67,12.67,0,0,1,12.62,12.65,12.67,12.67,0,0,1-12.62,12.65H73.32V81.8H64.89V48.07Zm0,16.86a4,4,0,0,0,3-1.25,4.11,4.11,0,0,0,1.23-3,4.2,4.2,0,0,0-4.19-4.19H73.32v8.43Z"></path> <path class="cls-1" d="M136.65,73.51h20.7V82h-20.7A12.67,12.67,0,0,1,124,69.27V48.21h8.43V69.27a4.18,4.18,0,0,0,4.25,4.24Z"></path> <path class="cls-1" d="M174.21,82h-8.43V48.21h8.43Z"></path> <path class="cls-1" d="M220.63,48.07a12.67,12.67,0,0,1,12.62,12.62V81.8h-8.43V60.69a4.2,4.2,0,0,0-4.19-4.19H191.08V81.8h-8.43V48.07Z"></path> <path class="cls-1" d="M253.08,48.21H291V82h-8.43V73.51H248.84V82h-8.43V60.84a12.67,12.67,0,0,1,12.67-12.63Zm29.5,16.87V56.65h-29.5a4.18,4.18,0,0,0-4.24,4.19v4.24Z"></path> <path class="cls-1" d="M350,60.69a12.28,12.28,0,0,1-3.23,8.44A12.27,12.27,0,0,1,350,77.56V81.8h-8.44V77.56a4.2,4.2,0,0,0-4.19-4.19H307.81V81.8h-8.43V48.07h38A12.68,12.68,0,0,1,350,60.69Zm-12.63,4.24a4,4,0,0,0,3-1.25,4.11,4.11,0,0,0,1.23-3,4.2,4.2,0,0,0-4.19-4.19H307.81v8.43Z"></path> </g> </g> </svg> 