<?xml version="1.0" encoding="UTF-8"?> <svg xmlns="http://www.w3.org/2000/svg" xmlns:xlink="http://www.w3.org/1999/xlink" version="1.1" id="Layer_1" x="0px" y="0px" width="490.394px" height="51.023px" viewBox="0 0 490.394 51.023" xml:space="preserve"> <rect x="632.25" y="313.25" width="631.25" height="331.25"></rect> <g> <rect x="1139.839" y="441.761" fill="#FFFFFF" width="50.145" height="50.146"></rect> <rect x="1147.558" y="455.164" fill="#696969" width="11.533" height="11.535"></rect> <linearGradient id="SVGID_1_" gradientUnits="userSpaceOnUse" x1="-140.4209" y1="1209.9824" x2="-136.8511" y2="1209.9824" gradientTransform="matrix(0 3.2532 3.2532 0 -2771.457 900.4473)"> <stop offset="0" style="stop-color:#FFFFFF"></stop> <stop offset="0.0952" style="stop-color:#F9F9F9"></stop> <stop offset="0.2197" style="stop-color:#EAEAEA"></stop> <stop offset="0.3604" style="stop-color:#CFCFCF"></stop> <stop offset="0.5131" style="stop-color:#AAAAAA"></stop> <stop offset="0.6756" style="stop-color:#7A7A7A"></stop> <stop offset="0.8434" style="stop-color:#404040"></stop> <stop offset="1" style="stop-color:#000000"></stop> </linearGradient> <rect x="1159.091" y="443.631" fill="url(#SVGID_1_)" width="11.537" height="11.613"></rect> <rect x="1170.628" y="466.699" fill="#9C9C9C" width="11.529" height="11.529"></rect> <linearGradient id="SVGID_2_" gradientUnits="userSpaceOnUse" x1="-98.4209" y1="818.2891" x2="-94.8506" y2="818.2891" gradientTransform="matrix(0 -3.2349 -3.2349 0 3823.4746 171.375)"> <stop offset="0" style="stop-color:#9C9C9C"></stop> <stop offset="0.1273" style="stop-color:#919191"></stop> <stop offset="0.3491" style="stop-color:#757575"></stop> <stop offset="0.6389" style="stop-color:#464646"></stop> <stop offset="0.9822" style="stop-color:#000000"></stop> <stop offset="1" style="stop-color:#000000"></stop> </linearGradient> <rect x="1170.628" y="478.208" fill="url(#SVGID_2_)" width="11.529" height="11.55"></rect> <rect x="1159.091" y="455.164" width="11.537" height="11.535"></rect> <rect x="1159.091" y="466.699" fill="#C80015" width="11.537" height="11.529"></rect> </g> <g> <polygon fill="#9C9C9C" points="710.777,470 710.777,477.99 704.217,477.99 704.217,470 698.188,470 698.188,491.928 704.217,491.928 704.217,483.29 710.777,483.29 710.777,491.928 716.821,491.928 716.821,470 "></polygon> <path fill="#9C9C9C" d="M730.631,492.384c-6.889,0-10.268-4.159-10.268-11.111c0-7.083,5.002-11.726,11.146-11.726 c5.718,0,10.266,3.081,10.266,11.041C741.774,487.74,736.867,492.384,730.631,492.384 M731.053,475.067 c-2.114,0-4.257,1.624-4.257,5.749c0,3.738,1.202,6.012,4.126,6.012c1.887,0,4.419-1.299,4.419-5.942 C735.341,477.05,733.941,475.067,731.053,475.067"></path> <path fill="#9C9C9C" d="M754.217,492.384c-7.053,0-8.9-3.738-8.9-8.382V470h6.043v13.712c0,2.336,0.715,3.601,3.217,3.601 c2.436,0,3.217-1.037,3.217-3.767V470h5.977v13.221C763.77,489.593,760.097,492.384,754.217,492.384"></path> <path fill="#9C9C9C" d="M772.736,492.35c-1.493,0-3.051-0.131-4.513-0.456l0.321-5.521c1.202,0.422,3.02,0.781,4.682,0.781 c1.461,0,2.401-0.615,2.401-1.624c0-3.186-8.188-1.299-8.188-8.804c0-4.354,3.348-7.147,9.132-7.147 c1.105,0,2.629,0.128,3.994,0.356l-0.325,5.229c-1.265-0.359-2.563-0.581-3.897-0.581c-1.689,0-2.405,0.678-2.405,1.527 c0,2.757,8.189,1.687,8.189,8.541C782.127,489.039,778.586,492.35,772.736,492.35"></path> <polygon fill="#9C9C9C" points="785.8,491.928 785.8,470.004 798.633,470.004 798.633,475.129 791.84,475.129 791.84,478.218 798.273,478.218 798.273,483.159 791.84,483.159 791.84,486.697 798.633,486.697 798.633,491.928 "></polygon> <path fill="#9C9C9C" d="M820.465,492.384c-6.889,0-10.269-4.159-10.269-11.111c0-7.083,5.003-11.726,11.146-11.726 c5.718,0,10.266,3.081,10.266,11.041C831.608,487.74,826.701,492.384,820.465,492.384 M820.887,475.067 c-2.111,0-4.257,1.624-4.257,5.749c0,3.738,1.202,6.012,4.126,6.012c1.887,0,4.419-1.299,4.419-5.942 C825.175,477.05,823.779,475.067,820.887,475.067"></path> <polygon fill="#9C9C9C" points="841.193,475.198 841.193,478.736 847.301,478.736 847.301,483.712 841.193,483.712 841.193,491.928 835.149,491.928 835.149,470 847.654,470 847.654,475.198 "></polygon> <path fill="#9C9C9C" d="M869.49,492.226c-8.609,0-10.4-5.95-10.4-10.366c0-7.311,4.133-12.021,11.312-12.021 c1.424,0,2.958,0.193,4.223,0.518l-0.685,5.458c-1.036-0.29-2.308-0.483-3.538-0.483c-2.861,0-4.65,1.976-4.65,5.521 c0,3.801,1.465,5.847,4.871,5.847c0.947,0,2.405-0.222,3.317-0.615l0.712,5.39C873.125,491.963,871.246,492.226,869.49,492.226"></path> <path fill="#9C9C9C" d="M887.133,492.384c-6.891,0-10.27-4.159-10.27-11.111c0-7.083,5.004-11.726,11.14-11.726 c5.722,0,10.269,3.081,10.269,11.041C898.271,487.74,893.365,492.384,887.133,492.384 M887.554,475.067 c-2.114,0-4.257,1.624-4.257,5.749c0,3.738,1.203,6.012,4.126,6.012c1.886,0,4.415-1.299,4.415-5.942 C891.838,477.05,890.442,475.067,887.554,475.067"></path> <path fill="#9C9C9C" d="M921.407,491.928l-1.202-7.311c-0.229-1.458-0.456-3.082-0.649-4.969h-0.069 c-0.353,1.921-0.773,3.738-1.326,5.749l-1.756,6.53h-5.652l-1.728-5.818c-0.581-2.011-1.134-4.25-1.424-6.461h-0.069 c-0.193,2.177-0.421,3.835-0.649,5.494l-0.905,6.785h-6.081l3.642-21.924h6.82l2.309,7.6c0.456,1.526,0.815,3.054,1.168,4.968 h0.068c0.325-1.852,0.713-3.345,1.266-5.065l2.342-7.502h6.627l3.607,21.924H921.407z"></path> <path fill="#9C9C9C" d="M951.295,491.928l-1.203-7.311c-0.221-1.458-0.448-3.082-0.643-4.969h-0.069 c-0.358,1.921-0.78,3.738-1.333,5.749l-1.755,6.53h-5.653l-1.721-5.818c-0.587-2.011-1.133-4.25-1.43-6.461h-0.062 c-0.193,2.177-0.429,3.835-0.65,5.494l-0.912,6.785h-6.074l3.636-21.924h6.827l2.309,7.6c0.449,1.526,0.808,3.054,1.167,4.968 h0.062c0.331-1.852,0.719-3.345,1.271-5.065l2.336-7.502h6.634l3.601,21.924H951.295z"></path> <path fill="#9C9C9C" d="M969.42,492.384c-7.048,0-8.9-3.738-8.9-8.382V470h6.047v13.712c0,2.336,0.712,3.601,3.213,3.601 c2.439,0,3.221-1.037,3.221-3.767V470h5.978v13.221C978.978,489.593,975.301,492.384,969.42,492.384"></path> <path fill="#9C9C9C" d="M995.285,491.928l-3.676-7.504c-0.843-1.721-1.624-3.477-2.17-4.941c0.124,1.299,0.159,2.053,0.159,3.483 v8.962h-5.818v-21.924h7.732l3.186,6.521c0.946,1.955,1.914,3.932,2.667,5.687c-0.165-1.492-0.228-3.186-0.228-4.547v-7.661h5.812 v21.924H995.285z"></path> <rect x="1007.952" y="470" fill="#9C9C9C" width="6.04" height="21.928"></rect> <path fill="#9C9C9C" d="M1027.799,492.226c-8.604,0-10.394-5.95-10.394-10.366c0-7.311,4.126-12.021,11.306-12.021 c1.431,0,2.957,0.193,4.222,0.518l-0.684,5.458c-1.037-0.29-2.302-0.483-3.538-0.483c-2.861,0-4.644,1.976-4.644,5.521 c0,3.801,1.458,5.847,4.871,5.847c0.94,0,2.405-0.222,3.311-0.615l0.719,5.39C1031.44,491.963,1029.554,492.226,1027.799,492.226"></path> <path fill="#9C9C9C" d="M1050.022,491.928l-1.134-3.572h-6.758l-1.106,3.572h-5.977l7.145-21.928h6.925l7.504,21.928H1050.022z M1046.484,480.851c-0.395-1.265-0.781-2.439-1.009-3.801h-0.069c-0.193,1.265-0.615,2.729-1.071,4.16l-0.746,2.405h3.772 L1046.484,480.851z"></path> <polygon fill="#9C9C9C" points="1066.427,475.198 1066.427,491.928 1060.388,491.928 1060.388,475.198 1055.64,475.198 1055.64,470 1071.168,470 1071.168,475.198 "></polygon> <rect x="1074.098" y="470" fill="#9C9C9C" width="6.046" height="21.928"></rect> <path fill="#9C9C9C" d="M1093.944,492.384c-6.883,0-10.262-4.159-10.262-11.111c0-7.083,5.003-11.726,11.139-11.726 c5.722,0,10.27,3.081,10.27,11.041C1105.091,487.74,1100.184,492.384,1093.944,492.384 M1094.372,475.067 c-2.114,0-4.256,1.624-4.256,5.749c0,3.738,1.202,6.012,4.125,6.012c1.887,0,4.416-1.299,4.416-5.942 C1098.657,477.05,1097.261,475.067,1094.372,475.067"></path> <path fill="#9C9C9C" d="M1120.134,491.928l-3.669-7.504c-0.851-1.721-1.624-3.477-2.177-4.941c0.131,1.299,0.159,2.053,0.159,3.483 v8.962h-5.812v-21.924h7.732l3.186,6.521c0.939,1.955,1.914,3.932,2.66,5.687c-0.159-1.492-0.228-3.186-0.228-4.547v-7.661h5.818 v21.924H1120.134z"></path> </g> <g> <g> <path fill="#FFFFFF" d="M874.373,463.721l-1.207-7.557c-0.228-1.469-0.455-3.551-0.652-5.442h-0.069 c-0.353,1.925-0.843,4.295-1.396,6.321l-1.855,6.678h-5.473l-1.824-6.092c-0.595-2.021-1.21-4.693-1.5-6.907h-0.069 c-0.193,2.181-0.39,4.295-0.622,5.96l-0.904,7.039h-6.064l3.648-21.992h6.873l2.314,7.755c0.395,1.27,0.881,3.384,1.175,4.982 h0.065c0.363-1.853,0.881-3.94,1.24-5.079l2.309-7.658h6.682l3.618,21.992H874.373z"></path> <path fill="#FFFFFF" d="M882.42,463.721v-21.992h12.873v5.145h-6.812v3.096h6.453v4.955h-6.453v3.55h6.812v5.247H882.42z"></path> <path fill="#FFFFFF" d="M905.227,463.883c-2.377,0-4.758-0.064-6.969-0.195v-21.896c1.728-0.099,4.727-0.195,7.916-0.195 c6.42,0,10.915,2.64,10.915,10.587C917.089,459.714,912.365,463.883,905.227,463.883z M905.846,446.713 c-0.719,0-1.071,0-1.531,0.062v11.763c0.264,0.071,0.685,0.098,1.406,0.098c2.702,0,4.82-1.855,4.82-5.961 C910.541,449.254,909.889,446.713,905.846,446.713z"></path> <path fill="#FFFFFF" d="M919.466,463.721v-21.992h6.063v21.992H919.466z"></path> <path fill="#FFFFFF" d="M941.758,463.721l-1.112-3.584h-6.841l-1.074,3.584h-5.992l7.004-21.992h7.267l7.363,21.992H941.758z M937.982,451.337c-0.328-1.073-0.595-2.112-0.788-3.094h-0.062c-0.196,0.981-0.421,2.021-0.757,3.128l-1.164,4.008h3.974 L937.982,451.337z"></path> <path fill="#FFFFFF" d="M956.419,457.238c-0.449,0-0.809-0.034-0.809-0.034v6.517h-6.064v-21.992c0,0,3.259-0.164,7.073-0.164 c5.863,0,9.091,2.381,9.091,7.297C965.71,453.391,962.714,457.238,956.419,457.238z M956.45,446.519 c-0.353,0-0.84,0.033-0.84,0.033v5.571c0,0,0.452,0.095,1.07,0.095c1.763,0,2.768-1.013,2.768-2.869 C959.448,447.625,958.637,446.519,956.45,446.519z"></path> <path fill="#FFFFFF" d="M967.6,463.721v-21.992h6.061v16.584h6.06v5.408H967.6z"></path> <path fill="#FFFFFF" d="M990.275,464.176c-7.069,0-8.928-3.748-8.928-8.408v-14.039h6.061v13.751c0,2.343,0.718,3.61,3.224,3.61 c2.446,0,3.23-1.037,3.23-3.777v-13.584h5.994v13.261C999.856,461.371,996.174,464.176,990.275,464.176z"></path> <path fill="#FFFFFF" d="M1008.204,464.144c-2.19,0-3.853-0.161-5.448-0.555l0.521-5.767c1.472,0.619,3.127,1.043,5.055,1.043 c1.168,0,2.111-0.52,2.111-1.566c0-3.189-8.21-1.301-8.21-8.826c0-4.371,3.355-7.168,9.153-7.168c1.116,0,2.739,0.128,4.042,0.424 l-0.521,5.244c-1.202-0.421-2.404-0.652-3.742-0.652c-1.696,0-2.418,0.621-2.418,1.467c0,2.771,8.476,1.73,8.476,8.732 C1017.223,460.853,1013.47,464.144,1008.204,464.144z"></path> </g> <g> <path fill="#FFFFFF" d="M1037.701,464.109c-7.678,0-11.319-4.198-11.319-10.479c0-7.551,4.619-12.238,12.757-12.238 c2.47,0,4.851,0.424,6.443,0.912l-1.171,5.532c-1.5-0.584-3.324-0.979-5.501-0.979c-4.167,0-5.956,2.508-5.956,6.055 c0,3.416,1.627,5.667,5.369,5.667c0.459,0,0.908-0.071,1.24-0.166v-6.672h6.05v10.835 C1043.499,463.527,1040.7,464.109,1037.701,464.109z"></path> <path fill="#FFFFFF" d="M1059.119,463.717l-4.066-8.002h-0.29v8.002h-6.054v-21.968c2.046-0.128,4.747-0.161,7.515-0.161 c5.595,0,8.721,1.983,8.721,6.865c0,2.607-1.465,5.111-3.935,6.021c0.587,0.879,1.105,1.696,1.589,2.539l3.877,6.703H1059.119z M1055.899,446.568c-0.391,0-0.943,0.028-1.137,0.064v4.718c0.221,0.033,0.684,0.065,1.005,0.065c1.666,0,2.799-0.879,2.799-2.506 C1058.566,447.609,1057.883,446.568,1055.899,446.568z"></path> <path fill="#FFFFFF" d="M1076.858,464.173c-6.903,0-10.286-4.167-10.286-10.999c0-7.227,5.01-11.877,11.163-11.877 c6.9,0,10.283,4.164,10.283,10.999C1088.019,459.522,1083.005,464.173,1076.858,464.173z M1077.349,446.83 c-2.64,0-4.332,2.051-4.332,5.758c0,3.837,1.337,6.023,4.232,6.023c2.636,0,4.325-2.02,4.325-5.731 C1081.574,449.045,1080.241,446.83,1077.349,446.83z"></path> <path fill="#FFFFFF" d="M1099.182,464.173c-7.062,0-8.917-3.74-8.917-8.397v-14.026h6.053v13.732c0,2.347,0.716,3.616,3.221,3.616 c2.446,0,3.224-1.044,3.224-3.777v-13.571h5.984v13.247C1108.746,461.373,1105.069,464.173,1099.182,464.173z"></path> <path fill="#FFFFFF" d="M1119.132,457.244c-0.459,0-0.815-0.033-0.815-0.033v6.506h-6.046v-21.968c0,0,3.251-0.161,7.055-0.161 c5.86,0,9.084,2.374,9.084,7.293C1128.409,453.401,1125.41,457.244,1119.132,457.244z M1119.167,446.536 c-0.359,0-0.851,0.032-0.851,0.032v5.563c0,0,0.46,0.097,1.078,0.097c1.755,0,2.761-1.006,2.761-2.863 C1122.155,447.642,1121.344,446.536,1119.167,446.536z"></path> </g> </g> <path fill="#FFFFFF" d="M440.393,0.463v50.084h50.001V0.463H440.393z M482.59,48.401h-11.497V36.886h-11.504V25.371h-11.5V13.85 h11.5V2.331h11.504v23.04h11.497V48.401z"></path> <g> <polygon fill="#FFFFFF" points="12.554,28.668 12.554,36.648 6.012,36.648 6.012,28.668 0,28.668 0,50.568 6.012,50.568 6.012,41.942 12.554,41.942 12.554,50.568 18.581,50.568 18.581,28.668 "></polygon> <path fill="#FFFFFF" d="M32.351,51.023c-6.868,0-10.238-4.153-10.238-11.097c0-7.074,4.988-11.711,11.114-11.711 c5.701,0,10.236,3.077,10.236,11.028C43.463,46.386,38.569,51.023,32.351,51.023 M32.771,33.729c-2.108,0-4.244,1.622-4.244,5.742 c0,3.733,1.198,6.004,4.114,6.004c1.881,0,4.405-1.297,4.405-5.935C37.047,35.709,35.652,33.729,32.771,33.729"></path> <path fill="#FFFFFF" d="M55.87,51.023c-7.033,0-8.876-3.733-8.876-8.371V28.668h6.025v13.695c0,2.333,0.714,3.596,3.209,3.596 c2.429,0,3.207-1.035,3.207-3.761V28.668h5.959v13.205C65.395,48.236,61.731,51.023,55.87,51.023"></path> <path fill="#FFFFFF" d="M74.336,50.99c-1.489,0-3.041-0.13-4.5-0.456l0.32-5.515c1.198,0.422,3.011,0.781,4.669,0.781 c1.455,0,2.394-0.615,2.394-1.622c0-3.182-8.164-1.298-8.164-8.793c0-4.348,3.338-7.139,9.104-7.139 c1.102,0,2.621,0.128,3.983,0.356l-0.325,5.223c-1.261-0.359-2.557-0.581-3.886-0.581c-1.686,0-2.398,0.677-2.398,1.526 c0,2.753,8.166,1.685,8.166,8.531C83.699,47.684,80.168,50.99,74.336,50.99"></path> <polygon fill="#FFFFFF" points="87.361,50.568 87.361,28.672 100.158,28.672 100.158,33.791 93.385,33.791 93.385,36.875 99.8,36.875 99.8,41.811 93.385,41.811 93.385,45.344 100.158,45.344 100.158,50.568 "></polygon> <path fill="#FFFFFF" d="M121.928,51.023c-6.869,0-10.238-4.153-10.238-11.097c0-7.074,4.987-11.711,11.114-11.711 c5.702,0,10.236,3.077,10.236,11.028C133.04,46.386,128.146,51.023,121.928,51.023 M122.349,33.729 c-2.106,0-4.245,1.622-4.245,5.742c0,3.733,1.199,6.004,4.114,6.004c1.882,0,4.407-1.297,4.407-5.935 C126.625,35.709,125.233,33.729,122.349,33.729"></path> <polygon fill="#FFFFFF" points="142.598,33.859 142.598,37.394 148.688,37.394 148.688,42.363 142.598,42.363 142.598,50.568 136.57,50.568 136.57,28.668 149.04,28.668 149.04,33.859 "></polygon> <path fill="#FFFFFF" d="M170.813,50.866c-8.584,0-10.369-5.943-10.369-10.354c0-7.302,4.12-12.007,11.279-12.007 c1.42,0,2.949,0.193,4.211,0.517l-0.684,5.452c-1.032-0.29-2.301-0.483-3.527-0.483c-2.853,0-4.637,1.973-4.637,5.514 c0,3.796,1.46,5.839,4.857,5.839c0.943,0,2.398-0.221,3.307-0.615l0.71,5.383C174.438,50.604,172.564,50.866,170.813,50.866"></path> <path fill="#FFFFFF" d="M188.405,51.023c-6.87,0-10.239-4.153-10.239-11.097c0-7.074,4.989-11.711,11.107-11.711 c5.706,0,10.24,3.077,10.24,11.028C199.514,46.386,194.621,51.023,188.405,51.023 M188.826,33.729 c-2.108,0-4.245,1.622-4.245,5.742c0,3.733,1.2,6.004,4.114,6.004c1.881,0,4.401-1.297,4.401-5.935 C193.097,35.709,191.706,33.729,188.826,33.729"></path> <path fill="#FFFFFF" d="M222.582,50.568l-1.197-7.302c-0.229-1.456-0.456-3.078-0.647-4.962h-0.069 c-0.353,1.918-0.771,3.733-1.323,5.742l-1.75,6.522h-5.637l-1.723-5.812c-0.579-2.007-1.13-4.245-1.42-6.452h-0.069 c-0.192,2.173-0.419,3.83-0.646,5.487l-0.903,6.777h-6.063l3.631-21.896h6.801l2.303,7.59c0.454,1.524,0.812,3.05,1.164,4.962 h0.068c0.323-1.85,0.711-3.341,1.262-5.059l2.335-7.493h6.608l3.598,21.896H222.582z"></path> <path fill="#FFFFFF" d="M252.386,50.568l-1.2-7.302c-0.22-1.456-0.446-3.078-0.641-4.962h-0.069 c-0.356,1.918-0.778,3.733-1.329,5.742l-1.75,6.522h-5.637l-1.715-5.812c-0.586-2.007-1.131-4.245-1.427-6.452h-0.062 c-0.193,2.173-0.428,3.83-0.649,5.487l-0.908,6.777h-6.058l3.626-21.896h6.807l2.302,7.59c0.448,1.524,0.806,3.05,1.165,4.962 h0.061c0.331-1.85,0.717-3.341,1.269-5.059l2.33-7.493h6.613l3.592,21.896H252.386z"></path> <path fill="#FFFFFF" d="M270.459,51.023c-7.027,0-8.875-3.733-8.875-8.371V28.668h6.03v13.695c0,2.333,0.71,3.596,3.203,3.596 c2.433,0,3.212-1.035,3.212-3.761V28.668h5.96v13.205C279.989,48.236,276.323,51.023,270.459,51.023"></path> <path fill="#FFFFFF" d="M296.25,50.568l-3.665-7.494c-0.84-1.719-1.619-3.473-2.163-4.936c0.123,1.298,0.158,2.05,0.158,3.479 v8.951h-5.802V28.672h7.71l3.177,6.513c0.944,1.953,1.908,3.927,2.66,5.679c-0.165-1.49-0.228-3.181-0.228-4.541v-7.651h5.796 v21.896H296.25z"></path> <rect x="308.882" y="28.668" fill="#FFFFFF" width="6.022" height="21.9"></rect> <path fill="#FFFFFF" d="M328.672,50.866c-8.579,0-10.363-5.943-10.363-10.354c0-7.302,4.113-12.007,11.272-12.007 c1.427,0,2.948,0.193,4.211,0.517l-0.683,5.452c-1.033-0.29-2.295-0.483-3.528-0.483c-2.853,0-4.63,1.973-4.63,5.514 c0,3.796,1.453,5.839,4.857,5.839c0.938,0,2.398-0.221,3.301-0.615l0.718,5.383C332.305,50.604,330.422,50.866,328.672,50.866"></path> <path fill="#FFFFFF" d="M350.833,50.568l-1.132-3.567h-6.737l-1.104,3.567H335.9l7.125-21.9h6.904l7.482,21.9H350.833z M347.305,39.505c-0.394-1.263-0.779-2.437-1.006-3.796h-0.07c-0.191,1.263-0.613,2.726-1.067,4.155l-0.744,2.402h3.762 L347.305,39.505z"></path> <polygon fill="#FFFFFF" points="367.189,33.859 367.189,50.568 361.168,50.568 361.168,33.859 356.433,33.859 356.433,28.668 371.918,28.668 371.918,33.859 "></polygon> <rect x="374.839" y="28.668" fill="#FFFFFF" width="6.028" height="21.9"></rect> <path fill="#FFFFFF" d="M394.628,51.023c-6.863,0-10.232-4.153-10.232-11.097c0-7.074,4.99-11.711,11.106-11.711 c5.706,0,10.242,3.077,10.242,11.028C405.744,46.386,400.851,51.023,394.628,51.023 M395.054,33.729 c-2.106,0-4.243,1.622-4.243,5.742c0,3.733,1.199,6.004,4.113,6.004c1.881,0,4.403-1.297,4.403-5.935 C399.327,35.709,397.936,33.729,395.054,33.729"></path> <path fill="#FFFFFF" d="M420.744,50.568l-3.659-7.494c-0.848-1.719-1.618-3.473-2.17-4.936c0.13,1.298,0.157,2.05,0.157,3.479 v8.951h-5.793V28.672h7.71l3.177,6.513c0.937,1.953,1.908,3.927,2.651,5.679c-0.159-1.49-0.228-3.181-0.228-4.541v-7.651h5.802 v21.896H420.744z"></path> </g> <g> <g> <path fill="#FFFFFF" d="M175.683,22.396l-1.204-7.547c-0.226-1.467-0.453-3.546-0.65-5.436h-0.068 c-0.352,1.923-0.841,4.29-1.392,6.313l-1.851,6.67h-5.456l-1.819-6.085c-0.593-2.019-1.207-4.687-1.496-6.898h-0.068 c-0.193,2.178-0.39,4.29-0.62,5.953l-0.902,7.031h-6.048l3.639-21.965h6.854l2.308,7.745c0.394,1.268,0.878,3.38,1.172,4.977 h0.065c0.361-1.85,0.877-3.936,1.236-5.073l2.302-7.649h6.662l3.608,21.965H175.683z"></path> <path fill="#FFFFFF" d="M183.706,22.396V0.431h12.838v5.138h-6.794v3.092h6.435v4.949h-6.435v3.546h6.794v5.24H183.706z"></path> <path fill="#FFFFFF" d="M206.448,22.558c-2.37,0-4.744-0.064-6.948-0.195V0.495c1.723-0.099,4.713-0.195,7.894-0.195 c6.401,0,10.884,2.636,10.884,10.574C218.277,18.394,213.566,22.558,206.448,22.558z M207.065,5.409c-0.717,0-1.067,0-1.526,0.061 v11.748c0.263,0.072,0.683,0.098,1.401,0.098c2.695,0,4.808-1.854,4.808-5.954C211.748,7.947,211.098,5.409,207.065,5.409z"></path> <path fill="#FFFFFF" d="M220.647,22.396V0.431h6.046v21.965H220.647z"></path> <path fill="#FFFFFF" d="M242.876,22.396l-1.109-3.58h-6.821l-1.07,3.58h-5.976l6.983-21.965h7.246l7.343,21.965H242.876z M239.111,10.027c-0.327-1.071-0.593-2.11-0.786-3.089h-0.062c-0.196,0.979-0.42,2.018-0.755,3.124l-1.161,4.003h3.962 L239.111,10.027z"></path> <path fill="#FFFFFF" d="M257.495,15.921c-0.448,0-0.807-0.034-0.807-0.034v6.509h-6.047V0.431c0,0,3.25-0.164,7.053-0.164 c5.847,0,9.065,2.378,9.065,7.288C266.76,12.079,263.772,15.921,257.495,15.921z M257.525,5.214c-0.351,0-0.837,0.034-0.837,0.034 v5.564c0,0,0.451,0.094,1.067,0.094c1.758,0,2.76-1.011,2.76-2.865C260.516,6.32,259.706,5.214,257.525,5.214z"></path> <path fill="#FFFFFF" d="M268.645,22.396V0.431h6.043v16.564h6.042v5.401H268.645z"></path> <path fill="#FFFFFF" d="M291.256,22.851c-7.05,0-8.903-3.743-8.903-8.398V0.431h6.043v13.734c0,2.34,0.716,3.606,3.215,3.606 c2.439,0,3.222-1.036,3.222-3.773V0.431h5.978v13.245C300.81,20.049,297.137,22.851,291.256,22.851z"></path> <path fill="#FFFFFF" d="M309.133,22.818c-2.184,0-3.842-0.161-5.433-0.554l0.521-5.76c1.468,0.619,3.118,1.042,5.04,1.042 c1.165,0,2.104-0.519,2.104-1.565c0-3.186-8.186-1.299-8.186-8.815c0-4.366,3.346-7.159,9.127-7.159 c1.113,0,2.731,0.127,4.03,0.423l-0.52,5.238c-1.199-0.42-2.397-0.651-3.731-0.651c-1.691,0-2.411,0.62-2.411,1.465 c0,2.767,8.451,1.728,8.451,8.722C318.126,19.531,314.384,22.818,309.133,22.818z"></path> </g> <g> <path fill="#FFFFFF" d="M338.546,22.784c-7.656,0-11.287-4.193-11.287-10.466c0-7.542,4.606-12.223,12.721-12.223 c2.462,0,4.837,0.423,6.425,0.911l-1.167,5.526c-1.495-0.583-3.315-0.979-5.485-0.979c-4.155,0-5.938,2.505-5.938,6.047 c0,3.412,1.622,5.66,5.353,5.66c0.458,0,0.906-0.071,1.237-0.166v-6.664h6.032v10.822 C344.328,22.203,341.537,22.784,338.546,22.784z"></path> <path fill="#FFFFFF" d="M359.902,22.392l-4.055-7.992h-0.288v7.992h-6.037V0.452c2.04-0.128,4.733-0.161,7.493-0.161 c5.578,0,8.695,1.981,8.695,6.856c0,2.604-1.461,5.105-3.924,6.014c0.586,0.878,1.104,1.694,1.585,2.536l3.866,6.695H359.902z M356.692,5.265c-0.39,0-0.94,0.028-1.133,0.064v4.712c0.22,0.033,0.681,0.065,1.001,0.065c1.662,0,2.791-0.878,2.791-2.503 C359.352,6.305,358.67,5.265,356.692,5.265z"></path> <path fill="#FFFFFF" d="M377.591,22.848c-6.882,0-10.256-4.162-10.256-10.986C367.335,4.645,372.331,0,378.466,0 c6.88,0,10.253,4.159,10.253,10.985C388.719,18.203,383.72,22.848,377.591,22.848z M378.08,5.526c-2.631,0-4.32,2.048-4.32,5.751 c0,3.832,1.334,6.016,4.221,6.016c2.629,0,4.314-2.018,4.314-5.725C382.295,7.738,380.964,5.526,378.08,5.526z"></path> <path fill="#FFFFFF" d="M399.851,22.848c-7.042,0-8.892-3.735-8.892-8.387V0.452h6.035v13.715c0,2.344,0.715,3.612,3.212,3.612 c2.439,0,3.216-1.042,3.216-3.773V0.452h5.967v13.23C409.389,20.051,405.723,22.848,399.851,22.848z"></path> <path fill="#FFFFFF" d="M419.744,15.927c-0.457,0-0.812-0.033-0.812-0.033v6.498h-6.028V0.452c0,0,3.24-0.161,7.034-0.161 c5.843,0,9.058,2.371,9.058,7.283C428.995,12.089,426.004,15.927,419.744,15.927z M419.779,5.232 c-0.357,0-0.848,0.033-0.848,0.033v5.557c0,0,0.459,0.096,1.074,0.096c1.751,0,2.753-1.004,2.753-2.859 C422.759,6.336,421.95,5.232,419.779,5.232z"></path> </g> </g> </svg> 