<?xml version="1.0" encoding="UTF-8"?> <svg xmlns="http://www.w3.org/2000/svg" width="63" height="17" viewBox="0 0 63 17" fill="none"> <path d="M8.913 16.9533C11.5967 16.9533 14.2066 16.1126 15.807 14.8984V7.75275H8.51906V10.5783H12.4339V13.0069C11.3259 13.6607 10.1687 13.9643 8.913 13.9643C5.63833 13.9643 3.61937 11.5824 3.61937 8.52335C3.61937 5.13736 5.88455 3.10577 8.76527 3.10577C10.6858 3.10577 12.1877 3.80632 13.271 4.83379L15.7085 2.82555C13.9112 0.934066 11.252 0 8.76527 0C3.29929 0 0 3.66621 0 8.52335C0 13.8475 3.86558 16.9533 8.913 16.9533Z" fill="#FB5170"></path> <path d="M24.4492 17C27.2807 17 30.6538 15.5055 30.6538 11.8626C30.6538 8.66346 28.2409 7.91621 25.2125 6.79533C23.1935 6.04808 22.2579 5.62775 22.2579 4.60028C22.2825 3.54945 23.1689 2.94231 24.3753 2.94231C25.4587 2.94231 26.739 3.45604 28.1917 4.57692L30.2106 2.10165C28.4625 0.747252 26.4682 0 24.3015 0C21.1745 0.0233513 18.6878 2.0783 18.6878 4.74038C18.6878 7.89286 21.3223 9.03709 23.9814 9.9011C26.0988 10.6016 27.0098 11.0453 27.0098 12.2596C27.0098 13.2871 26.1973 14.011 24.5231 14.011C23.1443 14.011 21.47 13.3338 20.165 11.9327L18.0722 14.3613C19.9188 16.1593 22.2086 17 24.4492 17Z" fill="#FB5170"></path> <path d="M33.5107 16.7898H45.2059V13.8709H36.9331V9.9945H43.1377V7.12225H36.9331V3.12912H44.6889V0.210165H33.5107V16.7898Z" fill="#FB5170"></path> <path d="M46.6759 16.7898H50.2953L51.4771 13.4739H58.1742L59.3806 16.7898H63L56.4999 0.210165H53.1514L46.6759 16.7898ZM52.462 10.6717L54.801 4.17994H54.8503L57.1893 10.6717H52.462Z" fill="#FB5170"></path> </svg> 