<?xml version="1.0" encoding="UTF-8"?> <svg xmlns="http://www.w3.org/2000/svg" viewBox="5390 5024 403 77" data-guides="{&quot;vertical&quot;:[],&quot;horizontal&quot;:[]}"><path fill="#f9f9f9" stroke="none" fill-opacity="1" stroke-width="1" stroke-opacity="1" fill-rule="evenodd" id="tSvg159da9bb16c" title="Path 10" d="M 5423.917054253472 5026.084755859375 C 5423.8250542534715 5026.125755859375 5422.025054253471 5026.238755859375 5419.917054253472 5026.336755859375C 5413.070054253471 5026.655755859375 5410.400054253471 5027.082755859375 5409.500054253472 5028.000755859375C 5409.454054253471 5028.047755859375 5409.154054253472 5028.263755859375 5408.833054253471 5028.481755859375C 5408.150054253471 5028.945755859375 5406.737054253472 5030.562755859375 5405.978054253472 5031.749755859375C 5405.354054253472 5032.725755859375 5403.833054253471 5035.330755859375 5403.833054253471 5035.422755859375C 5403.833054253471 5035.458755859375 5403.391054253471 5036.408755859375 5402.850054253472 5037.534755859375C 5401.449054253471 5040.455755859375 5401.197054253472 5041.036755859375 5399.756054253472 5044.666755859375C 5399.047054253471 5046.453755859375 5398.4050542534715 5048.066755859375 5398.329054253471 5048.249755859375C 5398.254054253472 5048.432755859375 5398.0660542534715 5048.957755859375 5397.912054253472 5049.416755859375C 5397.7580542534715 5049.874755859375 5397.568054253472 5050.399755859375 5397.492054253472 5050.582755859375C 5397.154054253472 5051.387755859375 5395.141054253471 5057.638755859375 5394.647054253472 5059.416755859375C 5394.545054253472 5059.782755859375 5394.401054253472 5060.232755859375 5394.327054253472 5060.416755859375C 5394.253054253471 5060.599755859375 5394.145054253472 5060.974755859375 5394.0880542534715 5061.249755859375C 5393.973054253472 5061.808755859375 5393.824054253471 5062.409755859375 5393.409054253471 5063.999755859375C 5393.053054253472 5065.360755859375 5392.794054253472 5066.611755859375 5392.323054253472 5069.249755859375C 5391.257054253471 5075.207755859375 5392.712054253472 5078.177755859375 5399.837054253472 5084.588755859375C 5402.8160542534715 5087.268755859375 5406.271054253471 5090.173755859375 5408.734054253472 5092.069755859375C 5409.201054253472 5092.429755859375 5410.171054253472 5093.179755859375 5410.890054253472 5093.736755859375C 5411.609054253472 5094.293755859375 5412.434054253472 5094.918755859375 5412.723054253472 5095.124755859375C 5413.013054253472 5095.331755859375 5414.188054253472 5096.178755859375 5415.333054253471 5097.007755859375C 5418.442054253472 5099.257755859375 5422.674054253472 5102.028755859375 5425.3160542534715 5103.544755859375C 5426.263054253472 5104.086755859375 5428.059054253472 5104.945755859375 5429.417054253472 5105.503755859375C 5430.111054253472 5105.789755859375 5430.810054253472 5105.883755859375 5432.750054253472 5105.952755859375C 5434.6550542534715 5106.019755859375 5435.068054253472 5105.966755859375 5436.583054253471 5105.460755859375C 5440.1730542534715 5104.262755859375 5447.489054253471 5099.558755859375 5456.500054253472 5092.654755859375C 5457.408054253472 5091.958755859375 5460.550054253472 5089.453755859375 5460.667054253472 5089.331755859375C 5460.712054253472 5089.283755859375 5461.162054253472 5088.909755859375 5461.667054253472 5088.499755859375C 5462.171054253472 5088.089755859375 5462.621054253472 5087.715755859375 5462.667054253472 5087.668755859375C 5462.712054253472 5087.621755859375 5463.350054253472 5087.058755859375 5464.083054253471 5086.418755859375C 5470.235054253471 5081.044755859375 5472.813054253472 5078.054755859375 5473.651054253472 5075.321755859375C 5473.8740542534715 5074.593755859375 5473.893054253472 5070.273755859375 5473.677054253471 5069.293755859375C 5473.591054253472 5068.902755859375 5473.358054253472 5067.757755859375 5473.160054253472 5066.749755859375C 5472.8070542534715 5064.956755859375 5472.6640542534715 5064.308755859375 5472.341054253472 5063.041755859375C 5472.253054253471 5062.697755859375 5472.135054253472 5062.191755859375 5472.078054253472 5061.916755859375C 5472.021054253471 5061.641755859375 5471.9140542534715 5061.266755859375 5471.839054253472 5061.082755859375C 5471.764054253472 5060.899755859375 5471.6150542534715 5060.411755859375 5471.506054253472 5059.999755859375C 5471.130054253472 5058.567755859375 5470.024054253472 5055.001755859375 5469.672054253471 5054.082755859375C 5469.601054253471 5053.899755859375 5469.378054253471 5053.224755859375 5469.176054253472 5052.582755859375C 5468.800054253472 5051.390755859375 5467.774054253472 5048.516755859375 5467.511054253472 5047.916755859375C 5467.430054253472 5047.732755859375 5467.046054253472 5046.757755859375 5466.656054253472 5045.749755859375C 5463.457054253472 5037.472755859375 5460.542054253472 5031.910755859375 5458.055054253472 5029.339755859375C 5455.927054253471 5027.139755859375 5454.512054253471 5026.764755859375 5446.667054253472 5026.315755859375C 5443.720054253472 5026.146755859375 5424.225054253472 5025.949755859375 5423.917054253472 5026.084755859375ZM 5508.242054253472 5034.543755859375 C 5508.196054253472 5034.662755859375 5508.179054253472 5036.108755859375 5508.204054253471 5037.755755859375C 5508.219387586805 5038.753755859375 5508.234720920138 5039.751755859375 5508.250054253472 5040.749755859375C 5509.500054253472 5040.749755859375 5510.750054253472 5040.749755859375 5512.000054253472 5040.749755859375C 5513.250054253472 5040.749755859375 5514.500054253472 5040.749755859375 5515.750054253472 5040.749755859375C 5515.750054253472 5039.694089192708 5515.750054253472 5038.638422526042 5515.750054253472 5037.582755859375C 5515.750054253472 5036.527422526042 5515.750054253472 5035.472089192708 5515.750054253472 5034.416755859375C 5514.512720920138 5034.401755859375 5513.275387586805 5034.386755859375 5512.038054253471 5034.371755859375C 5509.109054253472 5034.335755859375 5508.308054253472 5034.372755859375 5508.242054253472 5034.543755859375ZM 5708.576054253472 5034.542755859375 C 5708.5300542534715 5034.660755859375 5708.513054253472 5036.368755859375 5708.538054253471 5038.336755859375C 5708.553054253472 5039.530089192708 5708.568054253472 5040.723422526042 5708.583054253471 5041.916755859375C 5709.833054253471 5041.916755859375 5711.083054253471 5041.916755859375 5712.333054253471 5041.916755859375C 5713.583054253471 5041.916755859375 5714.833054253471 5041.916755859375 5716.083054253471 5041.916755859375C 5716.083054253471 5040.666755859375 5716.083054253471 5039.416755859375 5716.083054253471 5038.166755859375C 5716.083054253471 5036.916755859375 5716.083054253471 5035.666755859375 5716.083054253471 5034.416755859375C 5714.845720920139 5034.401755859375 5713.608387586805 5034.386755859375 5712.371054253472 5034.371755859375C 5709.455054253472 5034.336755859375 5708.641054253471 5034.372755859375 5708.576054253472 5034.542755859375ZM 5435.064054253472 5034.851755859375 C 5435.742054253472 5035.033755859375 5436.019054253472 5035.128755859375 5436.833054253471 5035.455755859375C 5439.344054253472 5036.462755859375 5444.422054253471 5039.037755859375 5447.063054253472 5040.641755859375C 5447.689054253472 5041.021755859375 5448.2400542534715 5041.332755859375 5448.2890542534715 5041.332755859375C 5448.337054253472 5041.332755859375 5448.742054253472 5041.595755859375 5449.189054253472 5041.916755859375C 5449.635054253472 5042.236755859375 5450.035054253472 5042.499755859375 5450.077054253472 5042.499755859375C 5450.210054253472 5042.499755859375 5452.854054253472 5044.329755859375 5454.417054253472 5045.502755859375C 5457.680054253472 5047.953755859375 5458.6420542534715 5049.449755859375 5459.181054253471 5052.916755859375C 5460.134054253472 5059.047755859375 5459.830054253472 5073.104755859375 5458.676054253472 5076.249755859375C 5457.8650542534715 5078.458755859375 5456.7490542534715 5079.790755859375 5454.083054253471 5081.731755859375C 5453.2580542534715 5082.332755859375 5452.276054253472 5083.051755859375 5451.900054253471 5083.328755859375C 5451.525054253471 5083.605755859375 5451.171054253472 5083.832755859375 5451.114054253471 5083.832755859375C 5451.058054253472 5083.832755859375 5450.361054253472 5084.252755859375 5449.567054253472 5084.764755859375C 5448.1820542534715 5085.658755859375 5447.854054253472 5085.854755859375 5446.167054253472 5086.800755859375C 5445.754054253472 5087.031755859375 5445.117054253472 5087.394755859375 5444.750054253472 5087.607755859375C 5443.937054253472 5088.078755859375 5439.4410542534715 5090.314755859375 5438.140054253472 5090.893755859375C 5434.4230542534715 5092.551755859375 5432.125054253472 5092.711755859375 5429.250054253472 5091.516755859375C 5429.067054253472 5091.439755859375 5428.729054253472 5091.300755859375 5428.500054253472 5091.205755859375C 5427.216054253472 5090.675755859375 5426.540054253472 5090.359755859375 5424.500054253472 5089.337755859375C 5423.262054253471 5088.718755859375 5421.988054253472 5088.059755859375 5421.667054253472 5087.875755859375C 5421.346054253471 5087.691755859375 5420.596054253471 5087.268755859375 5420.000054253472 5086.936755859375C 5419.404054253472 5086.603755859375 5418.804054253472 5086.260755859375 5418.667054253472 5086.172755859375C 5418.529054253472 5086.085755859375 5418.079054253471 5085.809755859375 5417.667054253472 5085.560755859375C 5413.985054253471 5083.334755859375 5409.638054253472 5080.077755859375 5408.653054253472 5078.805755859375C 5408.0390542534715 5078.013755859375 5407.333054253471 5076.705755859375 5407.333054253471 5076.360755859375C 5407.333054253471 5076.198755859375 5407.266054253471 5075.994755859375 5407.184054253472 5075.907755859375C 5407.101054253471 5075.820755859375 5406.988054253472 5075.412755859375 5406.931054253471 5074.999755859375C 5406.8740542534715 5074.586755859375 5406.755054253472 5073.724755859375 5406.667054253472 5073.082755859375C 5406.187054253472 5069.596755859375 5406.033054253472 5062.591755859375 5406.334054253472 5057.999755859375C 5406.474054253472 5055.873755859375 5406.578054253472 5054.864755859375 5406.946054253472 5052.082755859375C 5406.994054253471 5051.716755859375 5407.101054253471 5051.344755859375 5407.184054253472 5051.257755859375C 5407.266054253471 5051.170755859375 5407.333054253471 5050.929755859375 5407.333054253471 5050.722755859375C 5407.333054253471 5050.323755859375 5407.896054253471 5049.219755859375 5408.699054253471 5048.041755859375C 5410.296054253472 5045.700755859375 5420.040054253472 5039.550755859375 5427.333054253471 5036.278755859375C 5428.112054253472 5035.929755859375 5428.880054253472 5035.573755859375 5429.0390542534715 5035.488755859375C 5429.199054253471 5035.402755859375 5429.467054253471 5035.332755859375 5429.637054253471 5035.332755859375C 5429.806054253471 5035.332755859375 5430.000054253472 5035.277755859375 5430.068054253472 5035.209755859375C 5430.535054253472 5034.741755859375 5433.794054253472 5034.508755859375 5435.064054253472 5034.851755859375ZM 5526.934054253472 5042.263755859375 C 5526.879054253472 5042.408755859375 5526.833054253471 5044.170755859375 5526.833054253471 5046.179755859375C 5526.833054253471 5047.397422526042 5526.833054253471 5048.615089192708 5526.833054253471 5049.832755859375C 5526.010387586805 5049.832755859375 5525.187720920138 5049.832755859375 5524.3650542534715 5049.832755859375C 5521.079054253471 5049.832755859375 5521.314054253472 5049.577755859375 5521.371054253472 5053.083755859375C 5521.386387586805 5054.028089192709 5521.401720920138 5054.972422526042 5521.417054253472 5055.916755859375C 5522.305720920139 5055.944422526041 5523.194387586805 5055.972089192708 5524.083054253471 5055.999755859375C 5524.9720542534715 5056.027422526042 5525.861054253472 5056.055089192709 5526.750054253472 5056.082755859375C 5526.782054253472 5059.138422526042 5526.814054253472 5062.194089192708 5526.846054253472 5065.249755859375C 5526.909054253471 5071.197755859375 5527.006054253472 5074.591755859375 5527.1240542534715 5074.916755859375C 5527.224054253472 5075.191755859375 5527.396054253471 5075.716755859375 5527.507054253471 5076.082755859375C 5528.800054253472 5080.361755859375 5532.570054253471 5082.693755859375 5538.187054253472 5082.691755859375C 5541.842054253471 5082.690755859375 5545.946054253472 5081.183755859375 5545.364054253471 5080.057755859375C 5545.276054253472 5079.887755859375 5545.036054253472 5079.336755859375 5544.831054253472 5078.832755859375C 5544.192054253472 5077.268755859375 5544.095054253472 5077.021755859375 5543.663054253471 5075.874755859375C 5543.427054253471 5075.246755859375 5543.137054253471 5075.199755859375 5542.371054253472 5075.666755859375C 5542.071054253472 5075.849755859375 5541.6820542534715 5075.999755859375 5541.506054253472 5075.999755859375C 5541.330054253472 5075.999755859375 5541.140054253472 5076.074755859375 5541.083054253471 5076.166755859375C 5540.871054253472 5076.509755859375 5537.571054253472 5076.366755859375 5536.880054253472 5075.983755859375C 5535.680054253472 5075.318755859375 5535.111054253472 5074.569755859375 5534.680054253472 5073.082755859375C 5534.541054253472 5072.606755859375 5534.500054253472 5070.089755859375 5534.535054253472 5064.249755859375C 5534.551054253472 5061.527422526042 5534.567054253472 5058.805089192709 5534.583054253471 5056.082755859375C 5536.027720920139 5056.055089192709 5537.472387586805 5056.027422526042 5538.917054253472 5055.999755859375C 5540.361387586805 5055.972089192708 5541.805720920139 5055.944422526041 5543.250054253472 5055.916755859375C 5543.266054253471 5055.027755859375 5543.282054253472 5054.138755859375 5543.2980542534715 5053.249755859375C 5543.324054253471 5051.782755859375 5543.304054253472 5050.414755859375 5543.253054253471 5050.207755859375C 5543.2220542534715 5050.082755859375 5543.1910542534715 5049.957755859375 5543.160054253472 5049.832755859375C 5541.716720920138 5049.832755859375 5540.273387586805 5049.832755859375 5538.830054253472 5049.832755859375C 5537.386720920138 5049.832755859375 5535.943387586805 5049.832755859375 5534.500054253472 5049.832755859375C 5534.500054253472 5048.527422526042 5534.500054253472 5047.222089192708 5534.500054253472 5045.916755859375C 5534.500054253472 5044.611089192708 5534.500054253472 5043.305422526042 5534.500054253472 5041.999755859375C 5533.256054253472 5041.999755859375 5532.012054253471 5041.999755859375 5530.768054253472 5041.999755859375C 5527.518054253472 5041.999755859375 5527.023054253472 5042.033755859375 5526.934054253472 5042.263755859375ZM 5432.250054253472 5048.445755859375 C 5429.3250542534715 5048.831755859375 5420.328054253472 5057.361755859375 5418.396054253471 5061.581755859375C 5417.2220542534715 5064.146755859375 5418.969054253472 5067.280755859375 5424.652054253472 5072.802755859375C 5432.399054253472 5080.331755859375 5434.199054253471 5080.155755859375 5443.081054253472 5070.999755859375C 5449.733054253472 5064.141755859375 5449.559054253472 5061.991755859375 5441.724054253472 5054.315755859375C 5436.837054253472 5049.527755859375 5434.592054253471 5048.136755859375 5432.250054253472 5048.445755859375ZM 5584.667054253472 5049.578755859375 C 5577.555054253472 5050.623755859375 5573.468054253472 5055.134755859375 5574.332054253472 5060.983755859375C 5574.812054253472 5064.228755859375 5577.348054253472 5067.034755859375 5580.522054253472 5067.833755859375C 5583.705054253472 5068.635755859375 5585.1420542534715 5068.939755859375 5587.583054253471 5069.329755859375C 5592.461054253472 5070.109755859375 5593.775054253471 5070.696755859375 5594.305054253472 5072.332755859375C 5595.761054253472 5076.828755859375 5585.286054253472 5077.954755859375 5577.750054253472 5074.111755859375C 5577.0170542534715 5073.737755859375 5576.3740542534715 5073.370755859375 5576.322054253472 5073.295755859375C 5576.176054253472 5073.087755859375 5573.273054253472 5078.933755859375 5573.412054253472 5079.157755859375C 5573.478054253472 5079.265755859375 5573.694054253472 5079.424755859375 5573.891054253471 5079.511755859375C 5574.089054253472 5079.599755859375 5574.475054253472 5079.805755859375 5574.750054253472 5079.970755859375C 5575.283054253472 5080.291755859375 5577.149054253472 5081.059755859375 5578.250054253472 5081.411755859375C 5578.873054253471 5081.610755859375 5579.459054253472 5081.759755859375 5581.208054253471 5082.162755859375C 5592.147054253472 5084.682755859375 5601.728054253472 5080.251755859375 5601.743054253472 5072.666755859375C 5601.755054253472 5066.943755859375 5598.906054253472 5064.716755859375 5589.583054253471 5063.162755859375C 5586.235054253471 5062.604755859375 5584.343054253472 5062.148755859375 5583.925054253472 5061.798755859375C 5583.8380542534715 5061.725755859375 5583.657054253472 5061.666755859375 5583.524054253472 5061.666755859375C 5582.7580542534715 5061.666755859375 5581.667054253472 5060.197755859375 5581.667054253472 5059.166755859375C 5581.667054253472 5057.873755859375 5583.425054253472 5055.999755859375 5584.638054253472 5055.999755859375C 5584.801054253472 5055.999755859375 5585.005054253472 5055.928755859375 5585.092054253471 5055.842755859375C 5585.340054253472 5055.596755859375 5589.264054253472 5055.463755859375 5590.833054253471 5055.647755859375C 5593.396054253471 5055.948755859375 5594.493054253472 5056.256755859375 5596.640054253472 5057.277755859375C 5597.312054253472 5057.597755859375 5597.886054253472 5057.834755859375 5597.915054253472 5057.804755859375C 5597.944054253472 5057.774755859375 5598.545054253472 5056.624755859375 5599.252054253472 5055.249755859375C 5599.958054253471 5053.874755859375 5600.612054253472 5052.655755859375 5600.705054253472 5052.541755859375C 5601.234054253472 5051.890755859375 5598.381054253472 5050.666755859375 5594.417054253472 5049.843755859375C 5591.839054253472 5049.307755859375 5587.341054253472 5049.185755859375 5584.667054253472 5049.578755859375ZM 5619.141054253471 5049.593755859375 C 5616.617054253472 5050.050755859375 5614.444054253472 5050.963755859375 5612.387054253471 5052.431755859375C 5604.428054253472 5058.110755859375 5603.480054253471 5070.588755859375 5610.466054253472 5077.724755859375C 5616.803054253472 5084.198755859375 5630.161054253472 5084.457755859375 5636.201054253472 5078.225755859375C 5636.462054253472 5077.9560891927085 5636.723054253472 5077.6864225260415 5636.984054253472 5077.416755859375C 5636.455054253472 5076.805422526042 5635.926054253472 5076.194089192708 5635.397054253472 5075.582755859375C 5634.524054253472 5074.574755859375 5633.646054253471 5073.543755859375 5633.446054253472 5073.292755859375C 5632.976054253471 5072.700755859375 5632.9720542534715 5072.701755859375 5631.882054253471 5073.589755859375C 5630.880054253472 5074.405755859375 5628.447054253472 5075.666755859375 5627.873054253471 5075.666755859375C 5627.679054253472 5075.666755859375 5627.480054253471 5075.730755859375 5627.431054253471 5075.809755859375C 5627.117054253472 5076.317755859375 5621.863054253472 5076.343755859375 5620.583054253471 5075.842755859375C 5620.400054253471 5075.771755859375 5619.9500542534715 5075.619755859375 5619.583054253471 5075.505755859375C 5616.786054253472 5074.639755859375 5612.957054253472 5070.321755859375 5613.570054253471 5068.723755859375C 5613.640054253472 5068.541755859375 5615.954054253471 5068.493755859375 5626.369054253471 5068.458755859375C 5630.607054253472 5068.444755859375 5634.845054253472 5068.430755859375 5639.083054253471 5068.416755859375C 5639.099387586805 5067.694422526041 5639.115720920138 5066.972089192708 5639.132054253471 5066.249755859375C 5639.314054253472 5058.218755859375 5634.827054253472 5051.938755859375 5627.417054253472 5049.852755859375C 5625.445054253471 5049.297755859375 5621.466054253472 5049.172755859375 5619.141054253471 5049.593755859375ZM 5661.750054253472 5049.579755859375 C 5658.839054253472 5050.047755859375 5657.206054253472 5050.857755859375 5655.111054253472 5052.874755859375C 5654.468054253472 5053.493755859375 5653.920054253472 5053.999755859375 5653.893054253472 5053.999755859375C 5653.866054253472 5053.999755859375 5653.822054253472 5053.043755859375 5653.797054253471 5051.874755859375C 5653.781387586805 5051.166422526042 5653.765720920139 5050.458089192708 5653.750054253472 5049.749755859375C 5652.555720920138 5049.749755859375 5651.361387586805 5049.749755859375 5650.167054253472 5049.749755859375C 5648.972387586805 5049.749755859375 5647.777720920139 5049.749755859375 5646.583054253471 5049.749755859375C 5646.583054253471 5055.166422526042 5646.583054253471 5060.583089192708 5646.583054253471 5065.999755859375C 5646.583054253471 5071.416422526042 5646.583054253471 5076.833089192708 5646.583054253471 5082.249755859375C 5647.833054253471 5082.249755859375 5649.083054253471 5082.249755859375 5650.333054253471 5082.249755859375C 5651.583054253471 5082.249755859375 5652.833054253471 5082.249755859375 5654.083054253471 5082.249755859375C 5654.114387586805 5079.194089192708 5654.145720920138 5076.138422526042 5654.177054253471 5073.082755859375C 5654.246054253472 5066.425755859375 5654.329054253471 5063.733755859375 5654.4810542534715 5063.249755859375C 5654.596054253472 5062.882755859375 5654.734054253472 5062.395755859375 5654.7890542534715 5062.166755859375C 5654.907054253472 5061.666755859375 5655.565054253471 5060.440755859375 5656.086054253472 5059.749755859375C 5657.774054253472 5057.508755859375 5660.1820542534715 5056.440755859375 5663.583054253471 5056.426755859375C 5664.500054253472 5056.422755859375 5665.306054253471 5056.343755859375 5665.375054253472 5056.250755859375C 5665.512054253471 5056.067755859375 5665.518054253472 5049.907755859375 5665.382054253471 5049.551755859375C 5665.274054253472 5049.271755859375 5663.5880542534715 5049.284755859375 5661.750054253472 5049.579755859375ZM 5737.583054253471 5049.569755859375 C 5731.904054253471 5050.508755859375 5727.370054253472 5053.800755859375 5724.988054253472 5058.717755859375C 5724.720054253472 5059.271755859375 5724.500054253472 5059.846755859375 5724.500054253472 5059.995755859375C 5724.500054253472 5060.144755859375 5724.438054253472 5060.337755859375 5724.361054253472 5060.424755859375C 5723.283054253472 5061.656755859375 5723.269054253472 5069.577755859375 5724.342054253471 5071.538755859375C 5724.429054253472 5071.698755859375 5724.500054253472 5071.902755859375 5724.500054253472 5071.993755859375C 5724.500054253472 5072.373755859375 5725.5880542534715 5074.488755859375 5726.353054253472 5075.595755859375C 5731.935054253472 5083.670755859375 5745.3070542534715 5085.248755859375 5752.3920542534715 5078.666755859375C 5753.295054253472 5077.828755859375 5754.829054253471 5075.862755859375 5754.832054253472 5075.541755859375C 5754.833054253471 5075.426755859375 5754.920054253472 5075.332755859375 5755.026054253472 5075.332755859375C 5755.135054253472 5075.332755859375 5755.0880542534715 5075.188755859375 5754.917054253472 5074.999755859375C 5754.751054253472 5074.816755859375 5754.5480542534715 5074.666755859375 5754.466054253472 5074.666755859375C 5754.384054253472 5074.666755859375 5753.907054253472 5074.403755859375 5753.4050542534715 5074.082755859375C 5752.904054253471 5073.761755859375 5752.467054253471 5073.499755859375 5752.435054253472 5073.499755859375C 5752.402054253472 5073.499755859375 5751.6730542534715 5073.077755859375 5750.815054253471 5072.562755859375C 5750.294720920138 5072.250755859375 5749.7743875868055 5071.938755859375 5749.254054253472 5071.626755859375C 5749.1420542534715 5071.783089192709 5749.0300542534715 5071.939422526042 5748.918054253471 5072.095755859375C 5744.2800542534715 5078.594755859375 5733.5750542534715 5076.920755859375 5731.6420542534715 5069.394755859375C 5730.161054253472 5063.631755859375 5732.451054253472 5058.296755859375 5737.167054253472 5056.518755859375C 5737.488054253472 5056.398755859375 5737.900054253471 5056.238755859375 5738.083054253471 5056.165755859375C 5738.9140542534715 5055.831755859375 5741.2980542534715 5055.617755859375 5742.056054253471 5055.808755859375C 5742.473054253472 5055.913755859375 5743.029054253471 5055.999755859375 5743.290054253472 5055.999755859375C 5743.552054253471 5055.999755859375 5743.8380542534715 5056.059755859375 5743.925054253472 5056.132755859375C 5744.012054253471 5056.205755859375 5744.379054253472 5056.365755859375 5744.7400542534715 5056.487755859375C 5745.837054253472 5056.860755859375 5747.081054253472 5057.762755859375 5748.193054253472 5058.993755859375C 5749.440054253471 5060.373755859375 5749.236054253472 5060.330755859375 5750.603054253472 5059.499755859375C 5751.207054253472 5059.132755859375 5751.762054253471 5058.832755859375 5751.836054253472 5058.832755859375C 5751.911054253472 5058.832755859375 5751.997054253472 5058.776755859375 5752.028054253472 5058.707755859375C 5752.058054253472 5058.639755859375 5752.491054253472 5058.368755859375 5752.988054253472 5058.107755859375C 5753.486054253472 5057.846755859375 5754.181054253471 5057.450755859375 5754.532054253472 5057.229755859375C 5754.745054253472 5057.095422526042 5754.958054253471 5056.961089192709 5755.171054253472 5056.826755859375C 5754.8413875868055 5056.336089192709 5754.511720920138 5055.845422526042 5754.1820542534715 5055.354755859375C 5753.637054253471 5054.545755859375 5752.8380542534715 5053.571755859375 5752.404054253471 5053.190755859375C 5751.662054253472 5052.536755859375 5749.451054253472 5050.999755859375 5749.254054253472 5050.999755859375C 5749.204054253471 5050.999755859375 5748.845054253472 5050.858755859375 5748.457054253472 5050.685755859375C 5747.386054253472 5050.210755859375 5746.852054253472 5050.029755859375 5745.667054253472 5049.740755859375C 5744.1820542534715 5049.378755859375 5739.357054253472 5049.276755859375 5737.583054253471 5049.569755859375ZM 5772.167054253472 5049.515755859375 C 5765.064054253472 5050.626755859375 5759.708054253471 5056.155755859375 5758.670054253472 5063.448755859375C 5757.287054253472 5073.175755859375 5763.486054253472 5081.232755859375 5773.333054253471 5082.504755859375C 5777.770054253471 5083.078755859375 5781.665054253472 5082.548755859375 5785.333054253471 5080.873755859375C 5786.2800542534715 5080.441755859375 5788.362054253472 5078.925755859375 5789.117054253472 5078.118755859375C 5789.3503875868055 5077.869089192708 5789.583720920138 5077.6194225260415 5789.817054253472 5077.369755859375C 5789.700720920138 5077.266422526041 5789.584387586805 5077.163089192708 5789.468054253472 5077.059755859375C 5789.276054253472 5076.889755859375 5788.743054253472 5076.299755859375 5788.284054253471 5075.749755859375C 5787.8250542534715 5075.199755859375 5787.037054253472 5074.284755859375 5786.533054253472 5073.716755859375C 5786.227720920138 5073.372422526042 5785.922387586805 5073.028089192709 5785.617054253472 5072.683755859375C 5785.323054253472 5072.944755859375 5785.029054253471 5073.205755859375 5784.735054253471 5073.466755859375C 5779.364054253471 5078.235755859375 5769.563054253472 5076.655755859375 5766.851054253471 5070.582755859375C 5766.728054253472 5070.307755859375 5766.562054253472 5069.952755859375 5766.4810542534715 5069.793755859375C 5766.400054253471 5069.634755859375 5766.333054253471 5069.278755859375 5766.333054253471 5069.001755859375C 5766.333054253471 5068.834422526042 5766.333054253471 5068.667089192709 5766.333054253471 5068.499755859375C 5770.548720920138 5068.499755859375 5774.764387586805 5068.499755859375 5778.980054253472 5068.499755859375C 5783.195387586805 5068.499755859375 5787.410720920138 5068.499755859375 5791.626054253472 5068.499755859375C 5791.695387586805 5068.332089192709 5791.764720920139 5068.164422526042 5791.834054253472 5067.996755859375C 5792.266054253471 5066.954755859375 5791.719054253472 5062.020755859375 5790.922054253471 5059.757755859375C 5790.582054253472 5058.795755859375 5789.815054253471 5057.120755859375 5789.658054253472 5056.999755859375C 5789.599054253472 5056.953755859375 5789.453054253472 5056.731755859375 5789.334054253472 5056.506755859375C 5787.855054253472 5053.701755859375 5783.836054253472 5050.786755859375 5780.167054253472 5049.857755859375C 5778.123054253471 5049.339755859375 5774.328054253472 5049.177755859375 5772.167054253472 5049.515755859375ZM 5508.245054253472 5049.871755859375 C 5508.2000542534715 5049.987755859375 5508.183054253472 5057.320755859375 5508.207054253472 5066.166755859375C 5508.221387586805 5071.527755859375 5508.235720920138 5076.888755859375 5508.250054253472 5082.249755859375C 5509.500054253472 5082.249755859375 5510.750054253472 5082.249755859375 5512.000054253472 5082.249755859375C 5513.250054253472 5082.249755859375 5514.500054253472 5082.249755859375 5515.750054253472 5082.249755859375C 5515.750054253472 5076.833089192708 5515.750054253472 5071.416422526042 5515.750054253472 5065.999755859375C 5515.750054253472 5060.583089192708 5515.750054253472 5055.166422526042 5515.750054253472 5049.749755859375C 5514.512720920138 5049.734755859375 5513.275387586805 5049.719755859375 5512.038054253471 5049.704755859375C 5509.158054253472 5049.669755859375 5508.3070542534715 5049.707755859375 5508.245054253472 5049.871755859375ZM 5667.962054253472 5049.759755859375 C 5667.857054253472 5049.864755859375 5668.176054253472 5050.670755859375 5669.399054253472 5053.379755859375C 5669.638054253472 5053.909755859375 5669.833054253471 5054.378755859375 5669.833054253471 5054.422755859375C 5669.833054253471 5054.467755859375 5669.978054253472 5054.821755859375 5670.154054253471 5055.209755859375C 5670.330054253472 5055.598755859375 5670.714054253472 5056.478755859375 5671.007054253471 5057.166755859375C 5671.300054253472 5057.853755859375 5671.6730542534715 5058.716755859375 5671.836054253472 5059.082755859375C 5672.000054253472 5059.449755859375 5672.484054253472 5060.574755859375 5672.913054253471 5061.582755859375C 5673.342054253471 5062.591755859375 5673.8070542534715 5063.678755859375 5673.947054253472 5063.999755859375C 5674.400054253471 5065.042755859375 5674.476054253471 5065.219755859375 5675.513054253472 5067.666755859375C 5676.076054253472 5068.995755859375 5676.671054253472 5070.382755859375 5676.836054253472 5070.749755859375C 5677.000054253472 5071.116755859375 5677.596054253472 5072.503755859375 5678.160054253472 5073.832755859375C 5678.724054253472 5075.162755859375 5679.320054253471 5076.549755859375 5679.485054253471 5076.916755859375C 5679.853054253472 5077.735755859375 5680.1550542534715 5078.439755859375 5681.0570542534715 5080.582755859375C 5681.291054253472 5081.138422526042 5681.525054253471 5081.694089192708 5681.759054253472 5082.249755859375C 5683.074387586805 5082.264755859375 5684.389720920139 5082.279755859375 5685.705054253472 5082.294755859375C 5687.020054253471 5082.309422526042 5688.335054253472 5082.324089192708 5689.650054253471 5082.338755859375C 5689.825720920138 5081.962755859375 5690.001387586805 5081.586755859375 5690.177054253471 5081.210755859375C 5690.466054253472 5080.590755859375 5690.799054253472 5079.815755859375 5690.916054253472 5079.489755859375C 5691.034054253471 5079.162755859375 5691.297054253471 5078.525755859375 5691.501054253472 5078.072755859375C 5691.704054253471 5077.619755859375 5692.013054253472 5076.930755859375 5692.186054253471 5076.541755859375C 5692.359054253472 5076.151755859375 5692.6420542534715 5075.514755859375 5692.8160542534715 5075.124755859375C 5692.9900542534715 5074.734755859375 5693.335054253472 5073.928755859375 5693.582054253472 5073.332755859375C 5693.829054253471 5072.736755859375 5694.137054253471 5072.005755859375 5694.266054253471 5071.707755859375C 5694.395054253471 5071.409755859375 5694.612054253472 5070.903755859375 5694.750054253472 5070.582755859375C 5694.887054253471 5070.261755859375 5695.108054253472 5069.755755859375 5695.2400542534715 5069.457755859375C 5695.372054253472 5069.159755859375 5696.2800542534715 5067.041755859375 5697.2580542534715 5064.749755859375C 5698.236054253472 5062.457755859375 5699.186054253471 5060.245755859375 5699.369054253471 5059.832755859375C 5699.552054253471 5059.420755859375 5699.806054253471 5058.839755859375 5699.934054253472 5058.541755859375C 5700.062054253472 5058.243755859375 5700.273054253472 5057.755755859375 5700.402054253472 5057.457755859375C 5700.532054253472 5057.159755859375 5700.915054253472 5056.241755859375 5701.254054253472 5055.416755859375C 5701.592054253471 5054.591755859375 5702.011054253472 5053.597755859375 5702.185054253472 5053.207755859375C 5702.358054253472 5052.818755859375 5702.6420542534715 5052.180755859375 5702.8160542534715 5051.791755859375C 5703.462054253472 5050.343755859375 5703.636054253472 5049.857755859375 5703.541054253472 5049.763755859375C 5703.399054253472 5049.620755859375 5696.614054253471 5049.649755859375 5696.410054253472 5049.793755859375C 5696.259054253472 5049.900755859375 5695.841054253472 5050.779755859375 5695.083054253471 5052.582755859375C 5694.844054253472 5053.150755859375 5694.445054253471 5054.077755859375 5694.096054253472 5054.874755859375C 5693.966054253472 5055.172755859375 5693.619054253471 5055.978755859375 5693.326054253472 5056.666755859375C 5692.829054253471 5057.833755859375 5692.579054253471 5058.405755859375 5691.832054253472 5060.082755859375C 5691.668054253471 5060.449755859375 5691.332054253472 5061.236755859375 5691.085054253472 5061.832755859375C 5690.498054253471 5063.247755859375 5690.010054253472 5064.385755859375 5689.371054253472 5065.832755859375C 5689.189054253472 5066.245755859375 5688.762054253471 5067.220755859375 5688.4230542534715 5067.999755859375C 5688.084054253472 5068.778755859375 5687.7000542534715 5069.659755859375 5687.570054253471 5069.957755859375C 5687.440054253471 5070.255755859375 5687.230054253472 5070.743755859375 5687.103054253472 5071.041755859375C 5685.849054253472 5073.995755859375 5685.898054253472 5073.961755859375 5685.265054253472 5072.332755859375C 5685.104054253472 5071.920755859375 5684.859054253472 5071.320755859375 5684.719054253472 5070.999755859375C 5684.580054253472 5070.678755859375 5684.406054253472 5070.266755859375 5684.333054253471 5070.082755859375C 5684.260054253472 5069.899755859375 5684.087054253472 5069.486755859375 5683.948054253472 5069.166755859375C 5683.809054253472 5068.845755859375 5683.418054253471 5067.907755859375 5683.080054253472 5067.082755859375C 5682.741054253472 5066.257755859375 5682.329054253471 5065.282755859375 5682.163054253471 5064.916755859375C 5681.998054253471 5064.549755859375 5681.634054253472 5063.673755859375 5681.355054253472 5062.969755859375C 5681.0750542534715 5062.265755859375 5680.686054253471 5061.328755859375 5680.4900542534715 5060.886755859375C 5680.294054253472 5060.444755859375 5680.074054253471 5059.932755859375 5680.000054253472 5059.749755859375C 5679.833054253471 5059.331755859375 5679.513054253472 5058.579755859375 5678.852054253472 5057.054755859375C 5678.567054253472 5056.397755859375 5678.333054253471 5055.818755859375 5678.333054253471 5055.767755859375C 5678.333054253471 5055.716755859375 5678.108054253472 5055.183755859375 5677.833054253471 5054.582755859375C 5677.558054253472 5053.982755859375 5677.333054253471 5053.454755859375 5677.333054253471 5053.410755859375C 5677.333054253471 5053.365755859375 5677.175054253472 5052.973755859375 5676.9810542534715 5052.539755859375C 5676.787054253472 5052.104755859375 5676.522054253472 5051.487755859375 5676.3920542534715 5051.166755859375C 5676.263054253472 5050.845755859375 5676.062054253472 5050.395755859375 5675.947054253472 5050.166755859375C 5675.877054253472 5050.027755859375 5675.8070542534715 5049.888755859375 5675.737054253472 5049.749755859375C 5674.457720920138 5049.734755859375 5673.178387586805 5049.719755859375 5671.899054253472 5049.704755859375C 5669.7890542534715 5049.680755859375 5668.0170542534715 5049.704755859375 5667.962054253472 5049.759755859375ZM 5708.578054253472 5049.871755859375 C 5708.534054253471 5049.987755859375 5708.5170542534715 5057.320755859375 5708.540054253472 5066.166755859375C 5708.554387586805 5071.527755859375 5708.568720920139 5076.888755859375 5708.583054253471 5082.249755859375C 5709.833054253471 5082.249755859375 5711.083054253471 5082.249755859375 5712.333054253471 5082.249755859375C 5713.583054253471 5082.249755859375 5714.833054253471 5082.249755859375 5716.083054253471 5082.249755859375C 5716.083054253471 5076.833089192708 5716.083054253471 5071.416422526042 5716.083054253471 5065.999755859375C 5716.083054253471 5060.583089192708 5716.083054253471 5055.166422526042 5716.083054253471 5049.749755859375C 5714.845720920139 5049.734755859375 5713.608387586805 5049.719755859375 5712.371054253472 5049.704755859375C 5709.492054253472 5049.669755859375 5708.641054253471 5049.707755859375 5708.578054253472 5049.871755859375ZM 5624.750054253472 5055.593755859375 C 5625.504054253472 5055.699755859375 5625.687054253472 5055.765755859375 5627.083054253471 5056.435755859375C 5629.3070542534715 5057.503755859375 5631.518054253472 5060.486755859375 5631.701054253472 5062.666755859375C 5631.717387586805 5062.861089192708 5631.733720920139 5063.055422526042 5631.750054253472 5063.249755859375C 5628.722387586805 5063.249755859375 5625.694720920138 5063.249755859375 5622.667054253472 5063.249755859375C 5619.639054253472 5063.249755859375 5616.611054253472 5063.249755859375 5613.583054253471 5063.249755859375C 5613.587720920138 5063.015089192709 5613.592387586805 5062.780422526042 5613.5970542534715 5062.545755859375C 5613.621054253472 5061.372755859375 5614.687054253472 5059.447755859375 5616.069054253472 5058.082755859375C 5618.389054253472 5055.791755859375 5620.940054253471 5055.059755859375 5624.750054253472 5055.593755859375ZM 5777.073054253472 5055.517755859375 C 5777.629054253472 5055.618755859375 5778.214054253472 5055.768755859375 5778.373054253471 5055.850755859375C 5778.532054253472 5055.932755859375 5778.773054253472 5055.999755859375 5778.909054253471 5055.999755859375C 5779.537054253472 5055.999755859375 5781.576054253472 5057.422755859375 5782.468054253472 5058.481755859375C 5783.543054253471 5059.759755859375 5784.623054253471 5062.154755859375 5784.474054253472 5062.930755859375C 5784.413054253471 5063.245755859375 5767.751054253472 5063.544755859375 5766.546054253472 5063.251755859375C 5766.062054253472 5063.134755859375 5766.187054253472 5062.265755859375 5766.934054253472 5060.562755859375C 5767.715054253472 5058.780755859375 5770.757054253471 5055.999755859375 5771.924054253472 5055.999755859375C 5772.060054253472 5055.999755859375 5772.301054253472 5055.931755859375 5772.461054253472 5055.847755859375C 5773.314054253472 5055.398755859375 5775.5480542534715 5055.238755859375 5777.073054253472 5055.517755859375ZM 5555.611054253472 5062.110755859375 C 5555.4720542534715 5062.249755859375 5555.4630542534715 5069.042755859375 5555.601054253471 5069.402755859375C 5555.689054253472 5069.632755859375 5556.185054253472 5069.666755859375 5559.434054253472 5069.666755859375C 5560.678387586805 5069.666755859375 5561.922720920138 5069.666755859375 5563.167054253472 5069.666755859375C 5563.167054253472 5068.388755859375 5563.167054253472 5067.110755859375 5563.167054253472 5065.832755859375C 5563.167054253472 5064.555089192709 5563.167054253472 5063.277422526042 5563.167054253472 5061.999755859375C 5561.926054253472 5061.999755859375 5560.685054253472 5061.999755859375 5559.444054253472 5061.999755859375C 5557.397054253472 5061.999755859375 5555.672054253471 5062.049755859375 5555.611054253472 5062.110755859375ZM 5367.000054253472 5025.999755859375 C 5373.666720920139 5025.999755859375 5380.333387586805 5025.999755859375 5387.000054253472 5025.999755859375C 5387.000054253472 5032.666422526042 5387.000054253472 5039.333089192708 5387.000054253472 5045.999755859375C 5380.333387586805 5045.999755859375 5373.666720920139 5045.999755859375 5367.000054253472 5045.999755859375C 5367.000054253472 5039.333089192708 5367.000054253472 5032.666422526042 5367.000054253472 5025.999755859375ZM 5797.000054253472 5025.999755859375 C 5803.666720920139 5025.999755859375 5810.333387586805 5025.999755859375 5817.000054253472 5025.999755859375C 5817.000054253472 5032.666422526042 5817.000054253472 5039.333089192708 5817.000054253472 5045.999755859375C 5810.333387586805 5045.999755859375 5803.666720920139 5045.999755859375 5797.000054253472 5045.999755859375C 5797.000054253472 5039.333089192708 5797.000054253472 5032.666422526042 5797.000054253472 5025.999755859375Z"></path><path fill="#040404" stroke="none" fill-opacity="1" stroke-width="1" stroke-opacity="1" fill-rule="evenodd" id="tSvg120dae244d0" title="Path 11" d="M 5852.000054253472 5048.277755859375 C 5852.000054253472 5060.530755859375 5852.044054253472 5070.511755859375 5852.098054253472 5070.457755859375C 5852.152054253472 5070.403755859375 5852.265054253472 5069.884755859375 5852.349054253472 5069.304755859375C 5852.614054253471 5067.486755859375 5852.993054253472 5065.592755859375 5853.409054253471 5063.999755859375C 5853.824054253471 5062.409755859375 5853.973054253472 5061.808755859375 5854.0880542534715 5061.249755859375C 5854.145054253472 5060.974755859375 5854.253054253471 5060.599755859375 5854.327054253472 5060.416755859375C 5854.401054253472 5060.232755859375 5854.545054253472 5059.782755859375 5854.647054253472 5059.416755859375C 5855.141054253471 5057.638755859375 5857.154054253472 5051.387755859375 5857.492054253472 5050.582755859375C 5857.568054253472 5050.399755859375 5857.7580542534715 5049.874755859375 5857.912054253472 5049.416755859375C 5858.0660542534715 5048.957755859375 5858.254054253472 5048.432755859375 5858.329054253471 5048.249755859375C 5858.4050542534715 5048.066755859375 5859.047054253471 5046.453755859375 5859.756054253472 5044.666755859375C 5861.197054253472 5041.036755859375 5861.449054253471 5040.455755859375 5862.850054253472 5037.534755859375C 5863.391054253471 5036.408755859375 5863.833054253471 5035.458755859375 5863.833054253471 5035.422755859375C 5863.833054253471 5035.330755859375 5865.354054253472 5032.725755859375 5865.978054253472 5031.749755859375C 5866.737054253472 5030.562755859375 5868.150054253471 5028.945755859375 5868.833054253471 5028.481755859375C 5869.154054253472 5028.263755859375 5869.454054253471 5028.047755859375 5869.500054253472 5028.000755859375C 5870.400054253471 5027.082755859375 5873.070054253471 5026.655755859375 5879.917054253472 5026.336755859375C 5882.025054253471 5026.238755859375 5883.8250542534715 5026.128755859375 5883.917054253472 5026.092755859375C 5884.0080542534715 5026.055755859375 5876.8650542534715 5026.019755859375 5868.042054253472 5026.012755859375C 5862.694720920138 5026.008422526042 5857.347387586805 5026.004089192708 5852.000054253472 5025.999755859375C 5852.000054253472 5033.425755859375 5852.000054253472 5040.851755859375 5852.000054253472 5048.277755859375ZM 5902.020054253472 5026.074755859375 C 5902.061054253471 5026.116755859375 5903.855054253471 5026.232755859375 5906.006054253472 5026.333755859375C 5912.6150542534715 5026.644755859375 5913.996054253472 5026.830755859375 5915.762054253471 5027.644755859375C 5919.0170542534715 5029.145755859375 5922.434054253472 5034.825755859375 5926.656054253472 5045.749755859375C 5927.046054253472 5046.757755859375 5927.430054253472 5047.732755859375 5927.511054253472 5047.916755859375C 5927.774054253472 5048.516755859375 5928.800054253472 5051.390755859375 5929.176054253472 5052.582755859375C 5929.378054253471 5053.224755859375 5929.601054253471 5053.899755859375 5929.672054253471 5054.082755859375C 5930.024054253472 5055.001755859375 5931.130054253472 5058.567755859375 5931.506054253472 5059.999755859375C 5931.6150542534715 5060.411755859375 5931.764054253472 5060.899755859375 5931.839054253472 5061.082755859375C 5931.9140542534715 5061.266755859375 5932.021054253471 5061.641755859375 5932.078054253472 5061.916755859375C 5932.135054253472 5062.191755859375 5932.250054253472 5062.678755859375 5932.333054253471 5062.999755859375C 5932.618054253472 5064.094755859375 5932.799054253472 5064.915755859375 5933.160054253472 5066.749755859375C 5933.358054253472 5067.757755859375 5933.591054253472 5068.902755859375 5933.677054253471 5069.293755859375C 5933.893054253472 5070.273755859375 5933.8740542534715 5074.593755859375 5933.651054253472 5075.321755859375C 5932.813054253472 5078.054755859375 5930.235054253471 5081.044755859375 5924.083054253471 5086.418755859375C 5923.350054253472 5087.058755859375 5922.712054253472 5087.621755859375 5922.667054253472 5087.668755859375C 5922.621054253472 5087.715755859375 5922.171054253472 5088.089755859375 5921.667054253472 5088.499755859375C 5921.162054253472 5088.909755859375 5920.712054253472 5089.283755859375 5920.667054253472 5089.331755859375C 5920.550054253472 5089.453755859375 5917.408054253472 5091.958755859375 5916.500054253472 5092.654755859375C 5907.315054253471 5099.691755859375 5899.859054253472 5104.463755859375 5896.417054253472 5105.507755859375C 5896.050054253472 5105.618755859375 5895.600054253472 5105.769755859375 5895.417054253472 5105.843755859375C 5895.233054253472 5105.916755859375 5975.390054253472 5105.982755859375 6073.542054253472 5105.988755859375C 6133.028054253472 5105.992422526042 6192.514054253472 5105.9960891927085 6252.000054253472 5105.999755859375C 6251.996387586805 5099.624755859375 6251.992720920139 5093.249755859375 6251.989054253471 5086.874755859375C 6251.9810542534715 5072.997755859375 6251.928054253472 5067.852755859375 6251.797054253471 5068.124755859375C 6251.736720920138 5068.249755859375 6251.6763875868055 5068.374755859375 6251.616054253472 5068.499755859375C 6247.402387586805 5068.499755859375 6243.188720920139 5068.499755859375 6238.975054253472 5068.499755859375C 6234.761054253472 5068.499755859375 6230.547054253471 5068.499755859375 6226.333054253471 5068.499755859375C 6226.333054253471 5068.667089192709 6226.333054253471 5068.834422526042 6226.333054253471 5069.001755859375C 6226.333054253471 5069.278755859375 6226.400054253471 5069.634755859375 6226.4810542534715 5069.793755859375C 6226.562054253472 5069.952755859375 6226.728054253472 5070.307755859375 6226.851054253471 5070.582755859375C 6229.563054253472 5076.655755859375 6239.364054253471 5078.235755859375 6244.735054253471 5073.466755859375C 6245.029054253471 5073.205755859375 6245.323054253472 5072.944755859375 6245.617054253472 5072.683755859375C 6245.922387586805 5073.028089192709 6246.227720920138 5073.372422526042 6246.533054253472 5073.716755859375C 6247.037054253472 5074.284755859375 6247.8250542534715 5075.199755859375 6248.284054253471 5075.749755859375C 6248.743054253472 5076.299755859375 6249.276054253472 5076.889755859375 6249.468054253472 5077.059755859375C 6249.584387586805 5077.163089192708 6249.700720920138 5077.266422526041 6249.817054253472 5077.369755859375C 6249.583720920138 5077.6194225260415 6249.3503875868055 5077.869089192708 6249.117054253472 5078.118755859375C 6243.809054253472 5083.792755859375 6232.015054253472 5084.341755859375 6224.917054253472 5079.246755859375C 6216.370054253472 5073.111755859375 6216.354054253472 5058.964755859375 6224.885054253472 5052.622755859375C 6232.042054253472 5047.303755859375 6243.117054253472 5048.460755859375 6248.312054253472 5055.070755859375C 6248.755054253472 5055.635755859375 6249.215054253472 5056.281755859375 6249.334054253472 5056.506755859375C 6249.453054253472 5056.731755859375 6249.599054253472 5056.953755859375 6249.658054253472 5056.999755859375C 6249.815054253471 5057.120755859375 6250.582054253472 5058.795755859375 6250.922054253471 5059.757755859375C 6251.251054253472 5060.691755859375 6251.4410542534715 5061.564755859375 6251.681054253471 5063.242755859375C 6251.773054253472 5063.880755859375 6251.882054253471 5064.436755859375 6251.924054253472 5064.478755859375C 6251.966054253472 5064.520755859375 6252.000054253472 5055.880755859375 6252.000054253472 5045.277755859375C 6252.000054253472 5038.851755859375 6252.000054253472 5032.425755859375 6252.000054253472 5025.999755859375C 6193.657387586805 5025.999755859375 6135.314720920138 5025.999755859375 6076.9720542534715 5025.999755859375C 5980.707054253472 5025.999755859375 5901.978054253472 5026.033755859375 5902.020054253472 5026.074755859375ZM 5975.750054253472 5037.582755859375 C 5975.750054253472 5038.638422526042 5975.750054253472 5039.694089192708 5975.750054253472 5040.749755859375C 5974.500054253472 5040.749755859375 5973.250054253472 5040.749755859375 5972.000054253472 5040.749755859375C 5970.750054253472 5040.749755859375 5969.500054253472 5040.749755859375 5968.250054253472 5040.749755859375C 5968.234720920138 5039.751755859375 5968.219387586805 5038.753755859375 5968.204054253471 5037.755755859375C 5968.179054253472 5036.108755859375 5968.196054253472 5034.662755859375 5968.242054253472 5034.543755859375C 5968.308054253472 5034.372755859375 5969.109054253472 5034.335755859375 5972.038054253471 5034.371755859375C 5973.275387586805 5034.386755859375 5974.512720920138 5034.401755859375 5975.750054253472 5034.416755859375C 5975.750054253472 5035.472089192708 5975.750054253472 5036.527422526042 5975.750054253472 5037.582755859375ZM 6176.083054253471 5038.166755859375 C 6176.083054253471 5039.416755859375 6176.083054253471 5040.666755859375 6176.083054253471 5041.916755859375C 6174.833054253471 5041.916755859375 6173.583054253471 5041.916755859375 6172.333054253471 5041.916755859375C 6171.083054253471 5041.916755859375 6169.833054253471 5041.916755859375 6168.583054253471 5041.916755859375C 6168.568054253472 5040.723422526042 6168.553054253472 5039.530089192708 6168.538054253471 5038.336755859375C 6168.513054253472 5036.368755859375 6168.5300542534715 5034.660755859375 6168.576054253472 5034.542755859375C 6168.641054253471 5034.372755859375 6169.455054253472 5034.336755859375 6172.371054253472 5034.371755859375C 6173.608387586805 5034.386755859375 6174.845720920139 5034.401755859375 6176.083054253471 5034.416755859375C 6176.083054253471 5035.666755859375 6176.083054253471 5036.916755859375 6176.083054253471 5038.166755859375ZM 5890.888054253472 5034.897755859375 C 5890.505054253472 5035.000755859375 5890.136054253472 5035.140755859375 5890.068054253472 5035.209755859375C 5890.000054253472 5035.277755859375 5889.806054253471 5035.332755859375 5889.637054253471 5035.332755859375C 5889.467054253471 5035.332755859375 5889.199054253471 5035.402755859375 5889.0390542534715 5035.488755859375C 5888.880054253472 5035.573755859375 5888.112054253472 5035.929755859375 5887.333054253471 5036.278755859375C 5880.040054253472 5039.550755859375 5870.296054253472 5045.700755859375 5868.699054253471 5048.041755859375C 5867.896054253471 5049.219755859375 5867.333054253471 5050.323755859375 5867.333054253471 5050.722755859375C 5867.333054253471 5050.929755859375 5867.266054253471 5051.170755859375 5867.184054253472 5051.257755859375C 5867.101054253471 5051.344755859375 5866.994054253471 5051.716755859375 5866.946054253472 5052.082755859375C 5866.578054253472 5054.864755859375 5866.474054253472 5055.873755859375 5866.334054253472 5057.999755859375C 5866.033054253472 5062.591755859375 5866.187054253472 5069.596755859375 5866.667054253472 5073.082755859375C 5866.755054253472 5073.724755859375 5866.8740542534715 5074.586755859375 5866.931054253471 5074.999755859375C 5866.988054253472 5075.412755859375 5867.101054253471 5075.820755859375 5867.184054253472 5075.907755859375C 5867.266054253471 5075.994755859375 5867.333054253471 5076.198755859375 5867.333054253471 5076.360755859375C 5867.333054253471 5076.705755859375 5868.0390542534715 5078.013755859375 5868.653054253472 5078.805755859375C 5869.638054253472 5080.077755859375 5873.985054253471 5083.334755859375 5877.667054253472 5085.560755859375C 5878.079054253471 5085.809755859375 5878.529054253472 5086.085755859375 5878.667054253472 5086.172755859375C 5878.804054253472 5086.260755859375 5879.404054253472 5086.603755859375 5880.000054253472 5086.936755859375C 5880.596054253471 5087.268755859375 5881.346054253471 5087.691755859375 5881.667054253472 5087.875755859375C 5881.988054253472 5088.059755859375 5883.262054253471 5088.718755859375 5884.500054253472 5089.337755859375C 5886.540054253472 5090.359755859375 5887.216054253472 5090.675755859375 5888.500054253472 5091.205755859375C 5888.729054253472 5091.300755859375 5889.067054253472 5091.439755859375 5889.250054253472 5091.516755859375C 5892.125054253472 5092.711755859375 5894.4230542534715 5092.551755859375 5898.140054253472 5090.893755859375C 5899.4410542534715 5090.314755859375 5903.937054253472 5088.078755859375 5904.750054253472 5087.607755859375C 5905.117054253472 5087.394755859375 5905.754054253472 5087.031755859375 5906.167054253472 5086.800755859375C 5907.854054253472 5085.854755859375 5908.1820542534715 5085.658755859375 5909.567054253472 5084.764755859375C 5910.361054253472 5084.252755859375 5911.058054253472 5083.832755859375 5911.114054253471 5083.832755859375C 5911.171054253472 5083.832755859375 5911.525054253471 5083.605755859375 5911.900054253471 5083.328755859375C 5912.276054253472 5083.051755859375 5913.2580542534715 5082.332755859375 5914.083054253471 5081.731755859375C 5916.7490542534715 5079.790755859375 5917.8650542534715 5078.458755859375 5918.676054253472 5076.249755859375C 5919.830054253472 5073.104755859375 5920.134054253472 5059.047755859375 5919.181054253471 5052.916755859375C 5918.6420542534715 5049.449755859375 5917.680054253472 5047.953755859375 5914.417054253472 5045.502755859375C 5912.854054253472 5044.329755859375 5910.210054253472 5042.499755859375 5910.077054253472 5042.499755859375C 5910.035054253472 5042.499755859375 5909.635054253472 5042.236755859375 5909.189054253472 5041.916755859375C 5908.742054253472 5041.595755859375 5908.337054253472 5041.332755859375 5908.2890542534715 5041.332755859375C 5908.2400542534715 5041.332755859375 5907.689054253472 5041.021755859375 5907.063054253472 5040.641755859375C 5905.579054253471 5039.740755859375 5904.945054253471 5039.396755859375 5901.750054253472 5037.763755859375C 5899.095054253472 5036.405755859375 5897.800054253472 5035.811755859375 5896.083054253471 5035.162755859375C 5894.705054253472 5034.641755859375 5892.293054253471 5034.518755859375 5890.888054253472 5034.897755859375ZM 5994.500054253472 5045.916755859375 C 5994.500054253472 5047.222089192708 5994.500054253472 5048.527422526042 5994.500054253472 5049.832755859375C 5995.943387586805 5049.832755859375 5997.386720920138 5049.832755859375 5998.830054253472 5049.832755859375C 6000.273387586805 5049.832755859375 6001.716720920138 5049.832755859375 6003.160054253472 5049.832755859375C 6003.1910542534715 5049.957755859375 6003.2220542534715 5050.082755859375 6003.253054253471 5050.207755859375C 6003.304054253472 5050.414755859375 6003.324054253471 5051.782755859375 6003.2980542534715 5053.249755859375C 6003.282054253472 5054.138755859375 6003.266054253471 5055.027755859375 6003.250054253472 5055.916755859375C 6001.805720920139 5055.944422526041 6000.361387586805 5055.972089192708 5998.917054253472 5055.999755859375C 5997.472387586805 5056.027422526042 5996.027720920139 5056.055089192709 5994.583054253471 5056.082755859375C 5994.567054253472 5058.805089192709 5994.551054253472 5061.527422526042 5994.535054253472 5064.249755859375C 5994.500054253472 5070.089755859375 5994.541054253472 5072.606755859375 5994.680054253472 5073.082755859375C 5995.111054253472 5074.569755859375 5995.680054253472 5075.318755859375 5996.880054253472 5075.983755859375C 5997.571054253472 5076.366755859375 6000.871054253472 5076.509755859375 6001.083054253471 5076.166755859375C 6001.140054253472 5076.074755859375 6001.330054253472 5075.999755859375 6001.506054253472 5075.999755859375C 6001.6820542534715 5075.999755859375 6002.071054253472 5075.849755859375 6002.371054253472 5075.666755859375C 6003.137054253471 5075.199755859375 6003.427054253471 5075.246755859375 6003.663054253471 5075.874755859375C 6004.095054253472 5077.021755859375 6004.192054253472 5077.268755859375 6004.831054253472 5078.832755859375C 6005.036054253472 5079.336755859375 6005.276054253472 5079.887755859375 6005.364054253471 5080.057755859375C 6005.946054253472 5081.183755859375 6001.842054253471 5082.690755859375 5998.187054253472 5082.691755859375C 5992.570054253471 5082.693755859375 5988.800054253472 5080.361755859375 5987.507054253471 5076.082755859375C 5987.396054253471 5075.716755859375 5987.224054253472 5075.191755859375 5987.1240542534715 5074.916755859375C 5987.006054253472 5074.591755859375 5986.909054253471 5071.197755859375 5986.846054253472 5065.249755859375C 5986.814054253472 5062.194089192708 5986.782054253472 5059.138422526042 5986.750054253472 5056.082755859375C 5985.861054253472 5056.055089192709 5984.9720542534715 5056.027422526042 5984.083054253471 5055.999755859375C 5983.194387586805 5055.972089192708 5982.305720920139 5055.944422526041 5981.417054253472 5055.916755859375C 5981.401720920138 5054.972422526042 5981.386387586805 5054.028089192709 5981.371054253472 5053.083755859375C 5981.314054253472 5049.577755859375 5981.079054253471 5049.832755859375 5984.3650542534715 5049.832755859375C 5985.187720920138 5049.832755859375 5986.010387586805 5049.832755859375 5986.833054253471 5049.832755859375C 5986.833054253471 5048.615089192708 5986.833054253471 5047.397422526042 5986.833054253471 5046.179755859375C 5986.833054253471 5044.170755859375 5986.879054253472 5042.408755859375 5986.934054253472 5042.263755859375C 5987.023054253472 5042.033755859375 5987.518054253472 5041.999755859375 5990.768054253472 5041.999755859375C 5992.012054253471 5041.999755859375 5993.256054253472 5041.999755859375 5994.500054253472 5041.999755859375C 5994.500054253472 5043.305422526042 5994.500054253472 5044.611089192708 5994.500054253472 5045.916755859375ZM 5894.833054253471 5048.788755859375 C 5898.228054253472 5050.307755859375 5906.102054253472 5058.217755859375 5907.608054253472 5061.621755859375C 5908.8070542534715 5064.333755859375 5907.0390542534715 5067.297755859375 5900.476054253471 5073.582755859375C 5893.852054253472 5079.926755859375 5891.8830542534715 5079.829755859375 5884.652054253472 5072.802755859375C 5878.969054253472 5067.280755859375 5877.2220542534715 5064.146755859375 5878.396054253471 5061.581755859375C 5880.328054253472 5057.361755859375 5889.3250542534715 5048.831755859375 5892.250054253472 5048.445755859375C 5893.018054253472 5048.344755859375 5894.187054253472 5048.499755859375 5894.833054253471 5048.788755859375ZM 6052.171054253472 5049.501755859375 C 6056.671054253472 5050.039755859375 6061.376054253472 5051.715755859375 6060.705054253472 5052.541755859375C 6060.612054253472 5052.655755859375 6059.958054253471 5053.874755859375 6059.252054253472 5055.249755859375C 6058.545054253472 5056.624755859375 6057.944054253472 5057.774755859375 6057.915054253472 5057.804755859375C 6057.886054253472 5057.834755859375 6057.312054253472 5057.597755859375 6056.640054253472 5057.277755859375C 6054.493054253472 5056.256755859375 6053.396054253471 5055.948755859375 6050.833054253471 5055.647755859375C 6049.264054253472 5055.463755859375 6045.340054253472 5055.596755859375 6045.092054253471 5055.842755859375C 6045.005054253472 5055.928755859375 6044.801054253472 5055.999755859375 6044.638054253472 5055.999755859375C 6043.425054253472 5055.999755859375 6041.667054253472 5057.873755859375 6041.667054253472 5059.166755859375C 6041.667054253472 5060.197755859375 6042.7580542534715 5061.666755859375 6043.524054253472 5061.666755859375C 6043.657054253472 5061.666755859375 6043.8380542534715 5061.725755859375 6043.925054253472 5061.798755859375C 6044.343054253472 5062.148755859375 6046.235054253471 5062.604755859375 6049.583054253471 5063.162755859375C 6058.906054253472 5064.716755859375 6061.755054253472 5066.943755859375 6061.743054253472 5072.666755859375C 6061.728054253472 5080.251755859375 6052.147054253472 5084.682755859375 6041.208054253471 5082.162755859375C 6039.459054253472 5081.759755859375 6038.873054253471 5081.610755859375 6038.250054253472 5081.411755859375C 6037.149054253472 5081.059755859375 6035.283054253472 5080.291755859375 6034.750054253472 5079.970755859375C 6034.475054253472 5079.805755859375 6034.089054253472 5079.599755859375 6033.891054253471 5079.511755859375C 6033.694054253472 5079.424755859375 6033.478054253472 5079.265755859375 6033.412054253472 5079.157755859375C 6033.273054253472 5078.933755859375 6036.176054253472 5073.087755859375 6036.322054253472 5073.295755859375C 6036.3740542534715 5073.370755859375 6037.0170542534715 5073.737755859375 6037.750054253472 5074.111755859375C 6045.286054253472 5077.954755859375 6055.761054253472 5076.828755859375 6054.305054253472 5072.332755859375C 6053.775054253471 5070.696755859375 6052.461054253472 5070.109755859375 6047.583054253471 5069.329755859375C 6045.1420542534715 5068.939755859375 6043.705054253472 5068.635755859375 6040.522054253472 5067.833755859375C 6037.348054253472 5067.034755859375 6034.812054253472 5064.228755859375 6034.332054253472 5060.983755859375C 6033.169054253472 5053.112755859375 6040.875054253472 5048.151755859375 6052.171054253472 5049.501755859375ZM 6085.667054253472 5049.499755859375 C 6093.863054253472 5050.744755859375 6099.330054253472 5057.545755859375 6099.132054253471 5066.249755859375C 6099.115720920138 5066.972089192708 6099.099387586805 5067.694422526041 6099.083054253471 5068.416755859375C 6094.845054253472 5068.430755859375 6090.607054253472 5068.444755859375 6086.369054253471 5068.458755859375C 6075.954054253471 5068.493755859375 6073.640054253472 5068.541755859375 6073.570054253471 5068.723755859375C 6072.957054253472 5070.321755859375 6076.786054253472 5074.639755859375 6079.583054253471 5075.505755859375C 6079.9500542534715 5075.619755859375 6080.400054253471 5075.771755859375 6080.583054253471 5075.842755859375C 6081.863054253472 5076.343755859375 6087.117054253472 5076.317755859375 6087.431054253471 5075.809755859375C 6087.480054253471 5075.730755859375 6087.679054253472 5075.666755859375 6087.873054253471 5075.666755859375C 6088.447054253472 5075.666755859375 6090.880054253472 5074.405755859375 6091.882054253471 5073.589755859375C 6092.9720542534715 5072.701755859375 6092.976054253471 5072.700755859375 6093.446054253472 5073.292755859375C 6093.646054253471 5073.543755859375 6094.524054253472 5074.574755859375 6095.397054253472 5075.582755859375C 6095.926054253472 5076.194089192708 6096.455054253472 5076.805422526042 6096.984054253472 5077.416755859375C 6096.723054253472 5077.6864225260415 6096.462054253472 5077.9560891927085 6096.201054253472 5078.225755859375C 6091.0170542534715 5083.573755859375 6079.924054253472 5084.292755859375 6072.917054253472 5079.733755859375C 6064.612054253472 5074.330755859375 6063.293054253471 5061.531755859375 6070.292054253472 5054.264755859375C 6074.001054253472 5050.412755859375 6079.815054253471 5048.611755859375 6085.667054253472 5049.499755859375ZM 6125.382054253471 5049.551755859375 C 6125.518054253472 5049.907755859375 6125.512054253471 5056.067755859375 6125.375054253472 5056.250755859375C 6125.306054253471 5056.343755859375 6124.500054253472 5056.422755859375 6123.583054253471 5056.426755859375C 6120.1820542534715 5056.440755859375 6117.774054253472 5057.508755859375 6116.086054253472 5059.749755859375C 6115.565054253471 5060.440755859375 6114.907054253472 5061.666755859375 6114.7890542534715 5062.166755859375C 6114.734054253472 5062.395755859375 6114.596054253472 5062.882755859375 6114.4810542534715 5063.249755859375C 6114.329054253471 5063.733755859375 6114.246054253472 5066.425755859375 6114.177054253471 5073.082755859375C 6114.145720920138 5076.138422526042 6114.114387586805 5079.194089192708 6114.083054253471 5082.249755859375C 6112.833054253471 5082.249755859375 6111.583054253471 5082.249755859375 6110.333054253471 5082.249755859375C 6109.083054253471 5082.249755859375 6107.833054253471 5082.249755859375 6106.583054253471 5082.249755859375C 6106.583054253471 5076.833089192708 6106.583054253471 5071.416422526042 6106.583054253471 5065.999755859375C 6106.583054253471 5060.583089192708 6106.583054253471 5055.166422526042 6106.583054253471 5049.749755859375C 6107.777720920139 5049.749755859375 6108.972387586805 5049.749755859375 6110.167054253472 5049.749755859375C 6111.361387586805 5049.749755859375 6112.555720920138 5049.749755859375 6113.750054253472 5049.749755859375C 6113.765720920139 5050.458089192708 6113.781387586805 5051.166422526042 6113.797054253471 5051.874755859375C 6113.822054253472 5053.043755859375 6113.866054253472 5053.999755859375 6113.893054253472 5053.999755859375C 6113.920054253472 5053.999755859375 6114.468054253472 5053.493755859375 6115.111054253472 5052.874755859375C 6116.757054253471 5051.290755859375 6117.616054253472 5050.752755859375 6119.583054253471 5050.079755859375C 6121.415054253472 5049.452755859375 6125.211054253472 5049.106755859375 6125.382054253471 5049.551755859375ZM 6205.667054253472 5049.740755859375 C 6206.852054253472 5050.029755859375 6207.386054253472 5050.210755859375 6208.457054253472 5050.685755859375C 6208.845054253472 5050.858755859375 6209.204054253471 5050.999755859375 6209.254054253472 5050.999755859375C 6209.451054253472 5050.999755859375 6211.662054253472 5052.536755859375 6212.404054253471 5053.190755859375C 6212.8380542534715 5053.571755859375 6213.637054253471 5054.545755859375 6214.1820542534715 5055.354755859375C 6214.511720920138 5055.845422526042 6214.8413875868055 5056.336089192709 6215.171054253472 5056.826755859375C 6214.958054253471 5056.961089192709 6214.745054253472 5057.095422526042 6214.532054253472 5057.229755859375C 6214.181054253471 5057.450755859375 6213.486054253472 5057.846755859375 6212.988054253472 5058.107755859375C 6212.491054253472 5058.368755859375 6212.058054253472 5058.639755859375 6212.028054253472 5058.707755859375C 6211.997054253472 5058.776755859375 6211.911054253472 5058.832755859375 6211.836054253472 5058.832755859375C 6211.762054253471 5058.832755859375 6211.207054253472 5059.132755859375 6210.603054253472 5059.499755859375C 6209.236054253472 5060.330755859375 6209.440054253471 5060.373755859375 6208.193054253472 5058.993755859375C 6207.081054253472 5057.762755859375 6205.837054253472 5056.860755859375 6204.7400542534715 5056.487755859375C 6204.379054253472 5056.365755859375 6204.012054253471 5056.205755859375 6203.925054253472 5056.132755859375C 6203.8380542534715 5056.059755859375 6203.552054253471 5055.999755859375 6203.290054253472 5055.999755859375C 6203.029054253471 5055.999755859375 6202.473054253472 5055.913755859375 6202.056054253471 5055.808755859375C 6201.2980542534715 5055.617755859375 6198.9140542534715 5055.831755859375 6198.083054253471 5056.165755859375C 6197.900054253471 5056.238755859375 6197.488054253472 5056.398755859375 6197.167054253472 5056.518755859375C 6192.451054253472 5058.296755859375 6190.161054253472 5063.631755859375 6191.6420542534715 5069.394755859375C 6193.5750542534715 5076.920755859375 6204.2800542534715 5078.594755859375 6208.918054253471 5072.095755859375C 6209.0300542534715 5071.939422526042 6209.1420542534715 5071.783089192709 6209.254054253472 5071.626755859375C 6209.7743875868055 5071.938755859375 6210.294720920138 5072.250755859375 6210.815054253471 5072.562755859375C 6211.6730542534715 5073.077755859375 6212.402054253472 5073.499755859375 6212.435054253472 5073.499755859375C 6212.467054253471 5073.499755859375 6212.904054253471 5073.761755859375 6213.4050542534715 5074.082755859375C 6213.907054253472 5074.403755859375 6214.384054253472 5074.666755859375 6214.466054253472 5074.666755859375C 6214.5480542534715 5074.666755859375 6214.751054253472 5074.816755859375 6214.917054253472 5074.999755859375C 6215.0880542534715 5075.188755859375 6215.135054253472 5075.332755859375 6215.026054253472 5075.332755859375C 6214.920054253472 5075.332755859375 6214.833054253471 5075.426755859375 6214.832054253472 5075.541755859375C 6214.829054253471 5075.862755859375 6213.295054253472 5077.828755859375 6212.3920542534715 5078.666755859375C 6205.3070542534715 5085.248755859375 6191.935054253472 5083.670755859375 6186.353054253472 5075.595755859375C 6185.5880542534715 5074.488755859375 6184.500054253472 5072.373755859375 6184.500054253472 5071.993755859375C 6184.500054253472 5071.902755859375 6184.429054253472 5071.698755859375 6184.342054253471 5071.538755859375C 6183.269054253472 5069.577755859375 6183.283054253472 5061.656755859375 6184.361054253472 5060.424755859375C 6184.438054253472 5060.337755859375 6184.500054253472 5060.144755859375 6184.500054253472 5059.995755859375C 6184.500054253472 5058.464755859375 6187.747054253472 5054.240755859375 6190.2580542534715 5052.504755859375C 6194.287054253472 5049.719755859375 6200.792054253472 5048.552755859375 6205.667054253472 5049.740755859375ZM 5975.750054253472 5065.999755859375 C 5975.750054253472 5071.416422526042 5975.750054253472 5076.833089192708 5975.750054253472 5082.249755859375C 5974.500054253472 5082.249755859375 5973.250054253472 5082.249755859375 5972.000054253472 5082.249755859375C 5970.750054253472 5082.249755859375 5969.500054253472 5082.249755859375 5968.250054253472 5082.249755859375C 5968.235720920138 5076.888755859375 5968.221387586805 5071.527755859375 5968.207054253472 5066.166755859375C 5968.183054253472 5057.320755859375 5968.2000542534715 5049.987755859375 5968.245054253472 5049.871755859375C 5968.3070542534715 5049.707755859375 5969.158054253472 5049.669755859375 5972.038054253471 5049.704755859375C 5973.275387586805 5049.719755859375 5974.512720920138 5049.734755859375 5975.750054253472 5049.749755859375C 5975.750054253472 5055.166422526042 5975.750054253472 5060.583089192708 5975.750054253472 5065.999755859375ZM 6135.947054253472 5050.166755859375 C 6136.062054253472 5050.395755859375 6136.263054253472 5050.845755859375 6136.3920542534715 5051.166755859375C 6136.522054253472 5051.487755859375 6136.787054253472 5052.104755859375 6136.9810542534715 5052.539755859375C 6137.175054253472 5052.973755859375 6137.333054253471 5053.365755859375 6137.333054253471 5053.410755859375C 6137.333054253471 5053.454755859375 6137.558054253472 5053.982755859375 6137.833054253471 5054.582755859375C 6138.108054253472 5055.183755859375 6138.333054253471 5055.716755859375 6138.333054253471 5055.767755859375C 6138.333054253471 5055.818755859375 6138.567054253472 5056.397755859375 6138.852054253472 5057.054755859375C 6139.513054253472 5058.579755859375 6139.833054253471 5059.331755859375 6140.000054253472 5059.749755859375C 6140.074054253471 5059.932755859375 6140.294054253472 5060.444755859375 6140.4900542534715 5060.886755859375C 6140.686054253471 5061.328755859375 6141.0750542534715 5062.265755859375 6141.355054253472 5062.969755859375C 6141.634054253472 5063.673755859375 6141.998054253471 5064.549755859375 6142.163054253471 5064.916755859375C 6142.329054253471 5065.282755859375 6142.741054253472 5066.257755859375 6143.080054253472 5067.082755859375C 6143.418054253471 5067.907755859375 6143.809054253472 5068.845755859375 6143.948054253472 5069.166755859375C 6144.087054253472 5069.486755859375 6144.260054253472 5069.899755859375 6144.333054253471 5070.082755859375C 6144.406054253472 5070.266755859375 6144.580054253472 5070.678755859375 6144.719054253472 5070.999755859375C 6144.859054253472 5071.320755859375 6145.104054253472 5071.920755859375 6145.265054253472 5072.332755859375C 6145.898054253472 5073.961755859375 6145.849054253472 5073.995755859375 6147.103054253472 5071.041755859375C 6147.230054253472 5070.743755859375 6147.440054253471 5070.255755859375 6147.570054253471 5069.957755859375C 6147.7000542534715 5069.659755859375 6148.084054253472 5068.778755859375 6148.4230542534715 5067.999755859375C 6148.762054253471 5067.220755859375 6149.189054253472 5066.245755859375 6149.371054253472 5065.832755859375C 6150.010054253472 5064.385755859375 6150.498054253471 5063.247755859375 6151.085054253472 5061.832755859375C 6151.332054253472 5061.236755859375 6151.668054253471 5060.449755859375 6151.832054253472 5060.082755859375C 6152.579054253471 5058.405755859375 6152.829054253471 5057.833755859375 6153.326054253472 5056.666755859375C 6153.619054253471 5055.978755859375 6153.966054253472 5055.172755859375 6154.096054253472 5054.874755859375C 6154.445054253471 5054.077755859375 6154.844054253472 5053.150755859375 6155.083054253471 5052.582755859375C 6155.841054253472 5050.779755859375 6156.259054253472 5049.900755859375 6156.410054253472 5049.793755859375C 6156.614054253471 5049.649755859375 6163.399054253472 5049.620755859375 6163.541054253472 5049.763755859375C 6163.636054253472 5049.857755859375 6163.462054253472 5050.343755859375 6162.8160542534715 5051.791755859375C 6162.6420542534715 5052.180755859375 6162.358054253472 5052.818755859375 6162.185054253472 5053.207755859375C 6162.011054253472 5053.597755859375 6161.592054253471 5054.591755859375 6161.254054253472 5055.416755859375C 6160.915054253472 5056.241755859375 6160.532054253472 5057.159755859375 6160.402054253472 5057.457755859375C 6160.273054253472 5057.755755859375 6160.062054253472 5058.243755859375 6159.934054253472 5058.541755859375C 6159.806054253471 5058.839755859375 6159.552054253471 5059.420755859375 6159.369054253471 5059.832755859375C 6159.186054253471 5060.245755859375 6158.236054253472 5062.457755859375 6157.2580542534715 5064.749755859375C 6156.2800542534715 5067.041755859375 6155.372054253472 5069.159755859375 6155.2400542534715 5069.457755859375C 6155.108054253472 5069.755755859375 6154.887054253471 5070.261755859375 6154.750054253472 5070.582755859375C 6154.612054253472 5070.903755859375 6154.395054253471 5071.409755859375 6154.266054253471 5071.707755859375C 6154.137054253471 5072.005755859375 6153.829054253471 5072.736755859375 6153.582054253472 5073.332755859375C 6153.335054253472 5073.928755859375 6152.9900542534715 5074.734755859375 6152.8160542534715 5075.124755859375C 6152.6420542534715 5075.514755859375 6152.359054253472 5076.151755859375 6152.186054253471 5076.541755859375C 6152.013054253472 5076.930755859375 6151.704054253471 5077.619755859375 6151.501054253472 5078.072755859375C 6151.297054253471 5078.525755859375 6151.034054253471 5079.162755859375 6150.916054253472 5079.489755859375C 6150.799054253472 5079.815755859375 6150.466054253472 5080.590755859375 6150.177054253471 5081.210755859375C 6150.001387586805 5081.586755859375 6149.825720920138 5081.962755859375 6149.650054253471 5082.338755859375C 6148.335054253472 5082.324089192708 6147.020054253471 5082.309422526042 6145.705054253472 5082.294755859375C 6144.389720920139 5082.279755859375 6143.074387586805 5082.264755859375 6141.759054253472 5082.249755859375C 6141.525054253471 5081.694089192708 6141.291054253472 5081.138422526042 6141.0570542534715 5080.582755859375C 6140.1550542534715 5078.439755859375 6139.853054253472 5077.735755859375 6139.485054253471 5076.916755859375C 6139.320054253471 5076.549755859375 6138.724054253472 5075.162755859375 6138.160054253472 5073.832755859375C 6137.596054253472 5072.503755859375 6137.000054253472 5071.116755859375 6136.836054253472 5070.749755859375C 6136.671054253472 5070.382755859375 6136.076054253472 5068.995755859375 6135.513054253472 5067.666755859375C 6134.476054253471 5065.219755859375 6134.400054253471 5065.042755859375 6133.947054253472 5063.999755859375C 6133.8070542534715 5063.678755859375 6133.342054253471 5062.591755859375 6132.913054253471 5061.582755859375C 6132.484054253472 5060.574755859375 6132.000054253472 5059.449755859375 6131.836054253472 5059.082755859375C 6131.6730542534715 5058.716755859375 6131.300054253472 5057.853755859375 6131.007054253471 5057.166755859375C 6130.714054253472 5056.478755859375 6130.330054253472 5055.598755859375 6130.154054253471 5055.209755859375C 6129.978054253472 5054.821755859375 6129.833054253471 5054.467755859375 6129.833054253471 5054.422755859375C 6129.833054253471 5054.378755859375 6129.638054253472 5053.909755859375 6129.399054253472 5053.379755859375C 6128.176054253472 5050.670755859375 6127.857054253472 5049.864755859375 6127.962054253472 5049.759755859375C 6128.0170542534715 5049.704755859375 6129.7890542534715 5049.680755859375 6131.899054253472 5049.704755859375C 6133.178387586805 5049.719755859375 6134.457720920138 5049.734755859375 6135.737054253472 5049.749755859375C 6135.8070542534715 5049.888755859375 6135.877054253472 5050.027755859375 6135.947054253472 5050.166755859375ZM 6176.083054253471 5065.999755859375 C 6176.083054253471 5071.416422526042 6176.083054253471 5076.833089192708 6176.083054253471 5082.249755859375C 6174.833054253471 5082.249755859375 6173.583054253471 5082.249755859375 6172.333054253471 5082.249755859375C 6171.083054253471 5082.249755859375 6169.833054253471 5082.249755859375 6168.583054253471 5082.249755859375C 6168.568720920139 5076.888755859375 6168.554387586805 5071.527755859375 6168.540054253472 5066.166755859375C 6168.5170542534715 5057.320755859375 6168.534054253471 5049.987755859375 6168.578054253472 5049.871755859375C 6168.641054253471 5049.707755859375 6169.492054253472 5049.669755859375 6172.371054253472 5049.704755859375C 6173.608387586805 5049.719755859375 6174.845720920139 5049.734755859375 6176.083054253471 5049.749755859375C 6176.083054253471 5055.166422526042 6176.083054253471 5060.583089192708 6176.083054253471 5065.999755859375ZM 6081.000054253472 5055.517755859375 C 6078.714054253472 5056.019755859375 6077.540054253472 5056.629755859375 6076.069054253472 5058.082755859375C 6074.687054253472 5059.447755859375 6073.621054253472 5061.372755859375 6073.5970542534715 5062.545755859375C 6073.592387586805 5062.780422526042 6073.587720920138 5063.015089192709 6073.583054253471 5063.249755859375C 6076.611054253472 5063.249755859375 6079.639054253472 5063.249755859375 6082.667054253472 5063.249755859375C 6085.694720920138 5063.249755859375 6088.722387586805 5063.249755859375 6091.750054253472 5063.249755859375C 6091.733720920139 5063.055422526042 6091.717387586805 5062.861089192708 6091.701054253472 5062.666755859375C 6091.476054253471 5059.981755859375 6088.997054253472 5057.129755859375 6085.750054253472 5055.821755859375C 6084.906054253472 5055.480755859375 6082.011054253472 5055.296755859375 6081.000054253472 5055.517755859375ZM 6233.583054253471 5055.536755859375 C 6233.125054253472 5055.623755859375 6232.620054253472 5055.763755859375 6232.461054253472 5055.847755859375C 6232.301054253472 5055.931755859375 6232.060054253472 5055.999755859375 6231.924054253472 5055.999755859375C 6230.757054253471 5055.999755859375 6227.715054253472 5058.780755859375 6226.934054253472 5060.562755859375C 6226.187054253472 5062.265755859375 6226.062054253472 5063.134755859375 6226.546054253472 5063.251755859375C 6227.751054253472 5063.544755859375 6244.413054253471 5063.245755859375 6244.474054253472 5062.930755859375C 6244.623054253471 5062.154755859375 6243.543054253471 5059.759755859375 6242.468054253472 5058.481755859375C 6241.576054253472 5057.422755859375 6239.537054253472 5055.999755859375 6238.909054253471 5055.999755859375C 6238.773054253472 5055.999755859375 6238.532054253472 5055.932755859375 6238.373054253471 5055.850755859375C 6237.479054253472 5055.391755859375 6235.152054253472 5055.239755859375 6233.583054253471 5055.536755859375ZM 6023.167054253472 5065.832755859375 C 6023.167054253472 5067.110755859375 6023.167054253472 5068.388755859375 6023.167054253472 5069.666755859375C 6021.922720920138 5069.666755859375 6020.678387586805 5069.666755859375 6019.434054253472 5069.666755859375C 6016.185054253472 5069.666755859375 6015.689054253472 5069.632755859375 6015.601054253471 5069.402755859375C 6015.4630542534715 5069.042755859375 6015.4720542534715 5062.249755859375 6015.611054253472 5062.110755859375C 6015.672054253471 5062.049755859375 6017.397054253472 5061.999755859375 6019.444054253472 5061.999755859375C 6020.685054253472 5061.999755859375 6021.926054253472 5061.999755859375 6023.167054253472 5061.999755859375C 6023.167054253472 5063.277422526042 6023.167054253472 5064.555089192709 6023.167054253472 5065.832755859375ZM 5852.012054253471 5090.041755859375 C 5852.0080542534715 5095.361089192708 5852.004054253472 5100.680422526042 5852.000054253472 5105.999755859375C 5858.486054253472 5105.998755859375 5864.9720542534715 5105.997755859375 5871.458054253471 5105.996755859375C 5884.082054253472 5105.995755859375 5890.829054253471 5105.937755859375 5890.667054253472 5105.832755859375C 5890.529054253472 5105.743755859375 5890.247054253472 5105.670755859375 5890.0390542534715 5105.668755859375C 5889.832054253472 5105.667755859375 5889.532054253472 5105.597755859375 5889.373054253471 5105.513755859375C 5889.214054253472 5105.429755859375 5888.783054253472 5105.231755859375 5888.417054253472 5105.072755859375C 5887.4720542534715 5104.663755859375 5886.021054253471 5103.947755859375 5885.3160542534715 5103.544755859375C 5882.674054253472 5102.028755859375 5878.442054253472 5099.257755859375 5875.333054253471 5097.007755859375C 5874.188054253472 5096.178755859375 5873.013054253472 5095.331755859375 5872.723054253472 5095.124755859375C 5872.434054253472 5094.918755859375 5871.609054253472 5094.293755859375 5870.890054253472 5093.736755859375C 5870.171054253472 5093.179755859375 5869.201054253472 5092.429755859375 5868.734054253472 5092.069755859375C 5866.271054253471 5090.173755859375 5862.8160542534715 5087.268755859375 5859.837054253472 5084.588755859375C 5855.394054253472 5080.590755859375 5852.3740542534715 5076.786755859375 5852.322054253472 5075.119755859375C 5852.315054253471 5074.916755859375 5852.245054253472 5074.599755859375 5852.167054253472 5074.416755859375C 5852.085054253472 5074.226755859375 5852.018054253472 5080.983755859375 5852.012054253471 5090.041755859375ZM 5827.000054253472 5025.999755859375 C 5833.666720920139 5025.999755859375 5840.333387586805 5025.999755859375 5847.000054253472 5025.999755859375C 5847.000054253472 5032.666422526042 5847.000054253472 5039.333089192708 5847.000054253472 5045.999755859375C 5840.333387586805 5045.999755859375 5833.666720920139 5045.999755859375 5827.000054253472 5045.999755859375C 5827.000054253472 5039.333089192708 5827.000054253472 5032.666422526042 5827.000054253472 5025.999755859375ZM 6257.000054253472 5025.999755859375 C 6263.666720920139 5025.999755859375 6270.333387586805 5025.999755859375 6277.000054253472 5025.999755859375C 6277.000054253472 5032.666422526042 6277.000054253472 5039.333089192708 6277.000054253472 5045.999755859375C 6270.333387586805 5045.999755859375 6263.666720920139 5045.999755859375 6257.000054253472 5045.999755859375C 6257.000054253472 5039.333089192708 6257.000054253472 5032.666422526042 6257.000054253472 5025.999755859375Z"></path><defs></defs></svg> 