<?xml version="1.0" encoding="UTF-8"?> <svg xmlns="http://www.w3.org/2000/svg" width="114" height="40" viewBox="0 0 114 40" fill="none"><g clip-path="url(#clip0_544_5)"><path fill-rule="evenodd" clip-rule="evenodd" d="M114 0C113.408 1.24026 112.902 2.33321 112.366 3.41222C109.902 8.3673 107.46 13.3323 104.944 18.2605C104.326 19.4709 104.306 20.4843 104.931 21.7126C107.776 27.2968 110.538 32.9227 113.324 38.5348C113.536 38.9628 113.718 39.4087 113.985 40H0V0H114Z" fill="white"></path><path d="M20.4233 31L15.3393 24.025H14.3473V31H8.73633V9.052H17.5093C19.9273 9.052 21.87 9.641 23.3373 10.819C24.8253 11.997 25.6003 13.8157 25.6623 16.275C25.6623 20.1603 24.226 22.5577 21.3533 23.467L27.3363 31H20.4233ZM14.3473 19.251H17.6023C18.6977 19.251 19.4727 18.8377 19.9273 18.011C20.382 17.1637 20.382 16.3267 19.9273 15.5C19.4727 14.6527 18.6977 14.229 17.6023 14.229H14.3473V19.251Z" fill="#1E0040"></path><path d="M44.8666 15.748C44.846 16.3473 44.6393 16.9983 44.2466 17.701C43.8746 18.4037 43.327 18.941 42.6036 19.313C43.947 19.995 44.846 20.9043 45.3006 22.041C45.7553 23.1777 45.8896 24.273 45.7036 25.327C45.1043 29.109 42.5003 31 37.8916 31H28.9326V9.052H37.7366C39.886 9.052 41.622 9.66167 42.9446 10.881C44.288 12.0797 44.9286 13.702 44.8666 15.748ZM34.5126 17.639H37.7366C38.584 17.639 39.1833 17.3187 39.5346 16.678C39.9066 16.0167 39.917 15.3657 39.5656 14.725C39.2143 14.0637 38.6046 13.733 37.7366 13.733H34.5126V17.639ZM34.5126 26.133H37.7366C38.7906 26.133 39.5243 25.761 39.9376 25.017C40.3716 24.2523 40.3716 23.498 39.9376 22.754C39.5036 22.01 38.77 21.638 37.7366 21.638H34.5126V26.133Z" fill="#1E0040"></path><path d="M47.5947 28.0551C47.5947 27.2078 47.8943 26.4844 48.4937 25.8851C49.093 25.2858 49.8163 24.9861 50.6637 24.9861C51.511 24.9861 52.2343 25.2858 52.8337 25.8851C53.4537 26.4844 53.7637 27.2078 53.7637 28.0551C53.7637 28.9231 53.4537 29.6671 52.8337 30.2871C52.2343 30.8864 51.511 31.1861 50.6637 31.1861C49.8163 31.1861 49.093 30.8864 48.4937 30.2871C47.8943 29.6671 47.5947 28.9231 47.5947 28.0551Z" fill="#1E0040"></path><path d="M68.2358 31L63.1518 24.025H62.1598V31H56.5488V9.052H65.3218C67.7398 9.052 69.6825 9.641 71.1498 10.819C72.6378 11.997 73.4128 13.8157 73.4748 16.275C73.4748 20.1603 72.0385 22.5577 69.1658 23.467L75.1488 31H68.2358ZM62.1598 19.251H65.4148C66.5101 19.251 67.2851 18.8377 67.7398 18.011C68.1945 17.1637 68.1945 16.3267 67.7398 15.5C67.2851 14.6527 66.5101 14.229 65.4148 14.229H62.1598V19.251Z" fill="#1E0040"></path><path d="M82.2321 9.052V23.653C82.2321 24.3143 82.4491 24.8827 82.8831 25.358C83.3171 25.8127 83.8338 26.0917 84.4331 26.195C85.0531 26.2983 85.6731 26.2983 86.2931 26.195C86.9131 26.0917 87.4401 25.8127 87.8741 25.358C88.3081 24.8827 88.5251 24.3143 88.5251 23.653V9.052H94.1361V23.653C94.1361 24.769 93.9294 25.792 93.5161 26.722C93.1234 27.6313 92.5861 28.3857 91.9041 28.985C91.2221 29.5843 90.4368 30.101 89.5481 30.535C88.6801 30.9483 87.7604 31.1963 86.7891 31.279C85.8384 31.3617 84.8774 31.3617 83.9061 31.279C82.9348 31.1963 82.0048 30.9483 81.1161 30.535C80.2481 30.101 79.4731 29.5843 78.7911 28.985C78.1298 28.3857 77.6028 27.6313 77.2101 26.722C76.8174 25.792 76.6211 24.769 76.6211 23.653V9.052H82.2321Z" fill="#1E0040"></path></g><defs><clipPath id="clip0_544_5"><rect width="114" height="40" fill="white"></rect></clipPath></defs></svg> 