<?xml version="1.0" encoding="UTF-8"?> <svg xmlns="http://www.w3.org/2000/svg" xmlns:xlink="http://www.w3.org/1999/xlink" id="svg" width="400" height="209.6975516082573" viewBox="0, 0, 400,209.6975516082573"> <g id="svgg"> <path id="path0" d="M228.997 83.938 C 218.355 85.472,212.194 94.491,212.194 108.534 C 212.194 120.372,216.069 127.881,223.944 131.300 C 231.161 134.434,242.819 133.776,249.592 129.852 L 250.792 129.157 250.792 124.594 L 250.792 120.030 248.824 121.067 C 245.120 123.016,240.913 124.160,236.678 124.368 C 228.834 124.755,224.583 121.294,223.977 114.026 L 223.853 112.530 237.514 112.530 L 251.176 112.530 251.176 107.835 C 251.176 89.919,243.664 81.825,228.997 83.938 M318.579 83.846 C 305.989 85.649,299.399 94.131,299.380 108.553 C 299.357 125.377,307.459 133.741,323.273 133.219 C 327.606 133.076,330.649 132.341,332.967 130.878 L 333.749 130.384 333.749 125.765 L 333.749 121.145 333.221 121.518 C 329.034 124.475,321.753 125.292,317.468 123.286 C 312.116 120.782,309.541 110.702,311.876 101.392 C 314.120 92.442,322.892 90.023,333.605 95.399 C 333.685 95.439,333.749 93.317,333.749 90.685 L 333.749 85.898 332.453 85.393 C 329.107 84.088,322.238 83.322,318.579 83.846 M120.019 108.497 L 120.019 132.309 125.682 132.309 L 131.346 132.309 131.395 122.372 L 131.445 112.434 139.030 112.434 L 146.615 112.434 146.665 122.372 L 146.715 132.309 152.378 132.309 L 158.041 132.309 158.041 108.497 L 158.041 84.686 152.376 84.686 L 146.711 84.686 146.711 94.095 L 146.711 103.505 139.030 103.505 L 131.349 103.505 131.349 94.095 L 131.349 84.686 125.684 84.686 L 120.019 84.686 120.019 108.497 M171.039 92.127 C 170.810 106.447,169.506 116.081,167.006 121.940 L 166.391 123.380 164.616 123.435 L 162.842 123.490 162.842 133.373 L 162.842 143.255 168.024 143.255 L 173.206 143.255 173.257 137.830 L 173.308 132.405 186.030 132.356 L 198.752 132.306 198.752 137.781 L 198.752 143.255 204.033 143.255 L 209.313 143.255 209.313 133.365 L 209.313 123.476 206.817 123.476 L 204.321 123.476 204.321 104.081 L 204.321 84.686 187.739 84.686 L 171.158 84.686 171.039 92.127 M258.857 108.497 L 258.857 132.309 264.522 132.309 L 270.187 132.309 270.193 120.643 L 270.199 108.977 270.625 109.474 C 270.860 109.747,274.638 114.993,279.021 121.131 L 286.990 132.291 293.375 132.300 C 296.887 132.305,299.760 132.262,299.760 132.205 C 299.760 132.147,295.858 126.595,291.090 119.867 C 286.321 113.138,282.263 107.408,282.071 107.134 L 281.724 106.634 289.557 95.886 C 293.866 89.974,297.454 85.036,297.531 84.911 C 297.637 84.740,296.288 84.688,291.946 84.697 L 286.222 84.708 278.253 95.682 L 270.283 106.657 270.234 95.671 L 270.184 84.686 264.521 84.686 L 258.857 84.686 258.857 108.497 M234.349 92.849 C 237.756 93.736,239.644 97.172,239.652 102.496 L 239.654 104.273 231.752 104.273 L 223.850 104.273 223.970 102.592 C 224.490 95.306,228.680 91.372,234.349 92.849 M192.895 108.497 L 192.895 123.380 184.861 123.430 C 178.456 123.470,176.847 123.431,176.927 123.238 C 179.106 117.945,180.421 109.184,180.817 97.309 L 180.944 93.514 186.919 93.564 L 192.895 93.615 192.895 108.497 " stroke="none" fill="#ffffff" fill-rule="evenodd"></path> <path id="path1" d="M88.910 66.655 C 75.156 68.206,67.573 76.279,68.030 88.885 C 68.337 97.362,71.340 102.229,80.839 109.650 L 81.453 110.130 76.325 117.715 C 73.504 121.887,70.124 126.877,68.814 128.805 L 66.432 132.309 72.727 132.299 L 79.021 132.290 87.278 119.995 C 91.819 113.232,95.562 107.626,95.595 107.536 C 95.628 107.446,93.856 106.163,91.658 104.685 C 81.804 98.057,79.494 94.799,79.454 87.470 C 79.409 79.113,84.566 75.283,95.871 75.278 L 98.896 75.276 98.896 103.793 L 98.896 132.309 104.753 132.309 L 110.610 132.309 110.610 99.376 L 110.610 66.443 100.480 66.468 C 94.909 66.481,89.702 66.566,88.910 66.655 M131.438 94.095 C 131.438 99.323,131.463 101.462,131.493 98.848 C 131.523 96.234,131.523 91.956,131.493 89.342 C 131.463 86.728,131.438 88.867,131.438 94.095 M192.890 108.497 C 192.890 116.683,192.914 120.031,192.943 115.939 C 192.972 111.846,192.972 105.149,192.943 101.056 C 192.914 96.964,192.890 100.312,192.890 108.497 M180.745 98.128 C 180.745 98.497,180.785 98.649,180.833 98.464 C 180.882 98.279,180.882 97.976,180.833 97.792 C 180.785 97.607,180.745 97.758,180.745 98.128 M227.796 104.224 C 229.988 104.255,233.574 104.255,235.766 104.224 C 237.957 104.194,236.164 104.168,231.781 104.168 C 227.398 104.168,225.605 104.194,227.796 104.224 M212.071 108.689 C 212.071 109.693,212.104 110.103,212.143 109.602 C 212.183 109.100,212.183 108.279,212.143 107.777 C 212.104 107.276,212.071 107.686,212.071 108.689 M131.437 112.578 C 131.386 112.710,131.368 117.225,131.397 122.612 L 131.449 132.405 131.495 122.470 L 131.541 112.534 139.078 112.482 L 146.615 112.429 139.072 112.384 C 133.181 112.348,131.509 112.391,131.437 112.578 M173.296 137.878 C 173.296 140.888,173.323 142.120,173.355 140.614 C 173.388 139.109,173.388 136.647,173.355 135.142 C 173.323 133.637,173.296 134.868,173.296 137.878 " stroke="none" fill="#ffffff" fill-rule="evenodd"></path> </g> </svg> 